<svg width="26" height="27" viewBox="0 0 26 27" fill="none" xmlns="http://www.w3.org/2000/svg">
<path d="M8.07281 16C8.17762 16.0432 8.29527 16.0433 8.40014 16.0003C8.50502 15.9572 8.58864 15.8744 8.63281 15.77L9.24283 14.3H11.5628L12.1728 15.77C12.217 15.8744 12.3006 15.9572 12.4055 16.0003C12.5104 16.0433 12.628 16.0432 12.7328 16C12.7854 15.9791 12.8334 15.948 12.8739 15.9085C12.9144 15.869 12.9468 15.8219 12.9691 15.7698C12.9914 15.7178 13.0032 15.6619 13.0038 15.6053C13.0045 15.5487 12.9939 15.4925 12.9728 15.44L10.8028 10.24C10.782 10.1862 10.7505 10.1371 10.7103 10.0957C10.67 10.0543 10.6219 10.0215 10.5687 9.99907C10.5155 9.97668 10.4584 9.96522 10.4007 9.96538C10.343 9.96554 10.2859 9.97731 10.2328 10C10.1283 10.0477 10.046 10.1336 10.0028 10.24L7.83282 15.44C7.8117 15.4925 7.80115 15.5487 7.80178 15.6053C7.80242 15.6619 7.81422 15.7178 7.83651 15.7698C7.85881 15.8219 7.89118 15.869 7.93173 15.9085C7.97228 15.948 8.02022 15.9791 8.07281 16ZM10.4028 11.53L11.1928 13.44H9.61282L10.4028 11.53Z" fill="white"/>
<path fill-rule="evenodd" clip-rule="evenodd" d="M13.8728 15.17C13.7578 15.17 13.6474 15.215 13.5652 15.2953C13.483 15.3757 13.4354 15.485 13.4328 15.6C13.4328 15.7167 13.4792 15.8286 13.5617 15.9111C13.6442 15.9936 13.7561 16.04 13.8728 16.04H16.4728C16.5878 16.0374 16.6971 15.9899 16.7775 15.9076C16.8579 15.8254 16.9029 15.715 16.9028 15.6C16.9028 15.486 16.8575 15.3766 16.7769 15.2959C16.6962 15.2153 16.5869 15.17 16.4728 15.17H15.6028V10.84H16.4728C16.5878 10.8374 16.6971 10.7899 16.7775 10.7076C16.8579 10.6254 16.9029 10.515 16.9028 10.4C16.9028 10.286 16.8575 10.1766 16.7769 10.0959C16.6962 10.0153 16.5869 9.97 16.4728 9.97H13.8728C13.7578 9.96997 13.6474 10.015 13.5652 10.0953C13.483 10.1757 13.4354 10.285 13.4328 10.4C13.4328 10.5167 13.4792 10.6286 13.5617 10.7111C13.6442 10.7936 13.7561 10.84 13.8728 10.84H14.7328V15.17H13.8728Z" fill="white"/>
<path d="M0.00281952 19.07C0.00281952 19.5288 0.185095 19.9689 0.509533 20.2933C0.833971 20.6177 1.27401 20.8 1.73283 20.8C1.95184 20.8009 2.16903 20.7601 2.37285 20.68C3.61857 21.5285 5.10754 21.9464 6.61284 21.87H7.44282C8.70282 24.44 10.5228 26.03 12.5728 26.03C14.6228 26.03 16.4328 24.44 17.6928 21.87H18.5228C20.0178 21.9376 21.4945 21.5202 22.7328 20.68C22.9332 20.7601 23.1471 20.8008 23.3628 20.8C23.7367 20.8018 24.101 20.6818 24.4005 20.458C24.7 20.2343 24.9185 19.919 25.0228 19.56C25.1273 19.2032 25.1147 18.8223 24.9869 18.4732C24.8591 18.1241 24.6229 17.8251 24.3128 17.62C24.2845 15.9523 23.7317 14.3358 22.7328 13C23.7329 11.6648 24.2858 10.048 24.3128 8.38C24.6761 8.15036 24.9389 7.79164 25.0484 7.37604C25.1578 6.96044 25.1059 6.51881 24.9028 6.14C24.7087 5.75737 24.3778 5.46169 23.9758 5.31165C23.5739 5.1616 23.1302 5.16815 22.7328 5.33C21.2558 4.36409 19.4842 3.95308 17.7328 4.17C16.4828 1.59 14.6628 0 12.6128 0C10.5628 0 8.74283 1.59 7.48283 4.17C5.69539 3.92879 3.88095 4.34069 2.37285 5.33C1.97379 5.16999 1.52943 5.1643 1.12642 5.31405C0.723397 5.46379 0.390575 5.75824 0.192822 6.14C-0.00455846 6.52094 -0.0524323 6.96189 0.0585751 7.37632C0.169583 7.79075 0.431462 8.14873 0.792828 8.38C0.822283 10.0459 1.37116 11.6611 2.36284 13C1.37116 14.3389 0.822283 15.9541 0.792828 17.62C0.550727 17.7767 0.351637 17.9914 0.213665 18.2447C0.075694 18.4979 0.00321025 18.7816 0.00281952 19.07ZM0.872845 19.07C0.87283 18.841 0.963096 18.6212 1.1241 18.4583C1.2851 18.2955 1.50383 18.2026 1.73283 18.2C1.96357 18.2 2.18485 18.2917 2.348 18.4548C2.51116 18.618 2.60283 18.8393 2.60283 19.07C2.60283 19.3007 2.51116 19.522 2.348 19.6852C2.18485 19.8483 1.96357 19.94 1.73283 19.94C1.50383 19.9374 1.2851 19.8445 1.1241 19.6817C0.963096 19.5188 0.87283 19.299 0.872845 19.07ZM7.98283 5.07C9.13565 5.20787 10.2715 5.46251 11.3728 5.83C10.5964 6.17659 9.83862 6.56379 9.10283 6.99C8.36432 7.41338 7.6499 7.87742 6.96284 8.38C7.18911 7.24802 7.53089 6.14223 7.98283 5.08V5.07ZM18.1828 8.38C17.4923 7.87741 16.7745 7.41337 16.0328 6.99C15.2872 6.56596 14.5194 6.18208 13.7328 5.84C14.8339 5.47156 15.9699 5.2169 17.1228 5.08C17.5846 6.14564 17.9396 7.25438 18.1828 8.39V8.38ZM17.1828 20.91C16.0259 20.777 14.8863 20.5222 13.7828 20.15C14.5601 19.8089 15.318 19.4249 16.0528 19C16.7947 18.5732 17.5124 18.1058 18.2028 17.6C17.9696 18.7391 17.6211 19.8514 17.1628 20.92L17.1828 20.91ZM15.6228 7.74C16.6038 8.30014 17.5399 8.93537 18.4228 9.64C18.5745 10.7503 18.6513 11.8694 18.6528 12.99C18.6566 14.1141 18.5797 15.2369 18.4228 16.35C17.535 17.048 16.5994 17.6829 15.6228 18.25C14.6579 18.8086 13.6555 19.2998 12.6228 19.72C11.5903 19.2994 10.588 18.8082 9.62284 18.25C8.61454 17.6804 7.64868 17.0387 6.73283 16.33C6.41283 14.1014 6.41283 11.8386 6.73283 9.61C7.61489 8.91198 8.54745 8.28025 9.52284 7.72C10.4838 7.15402 11.4867 6.66258 12.5228 6.25C13.5591 6.66218 14.5621 7.15364 15.5228 7.72L15.6228 7.74ZM19.3928 10.45C20.2548 11.221 21.0386 12.0751 21.7328 13C21.0435 13.9259 20.2592 14.7772 19.3928 15.54C19.4813 14.6962 19.5247 13.8484 19.5228 13C19.5244 12.1516 19.481 11.3038 19.3928 10.46V10.45ZM5.73283 15.54C4.86664 14.777 4.0824 13.9257 3.39283 13C4.08758 12.0786 4.87136 11.2278 5.73283 10.46C5.5628 12.1491 5.5628 13.8509 5.73283 15.54ZM9.07283 19.01C9.80876 19.433 10.5665 19.8168 11.3428 20.16C10.2428 20.5322 9.10648 20.787 7.95283 20.92C7.50884 19.8532 7.1738 18.7442 6.95283 17.61C7.6398 18.1158 8.35421 18.5832 9.09282 19.01H9.07283ZM12.5428 25.14C10.9128 25.14 9.43282 23.84 8.34282 21.75C9.77969 21.5475 11.1888 21.1818 12.5428 20.66C13.8966 21.1825 15.3058 21.5482 16.7428 21.75C15.6728 23.84 14.1928 25.14 12.5728 25.14H12.5428ZM23.3728 19.94C23.1421 19.94 22.9208 19.8483 22.7576 19.6852C22.5945 19.522 22.5028 19.3007 22.5028 19.07C22.5028 18.8393 22.5945 18.618 22.7576 18.4548C22.9208 18.2917 23.1421 18.2 23.3728 18.2C23.6036 18.2 23.8249 18.2917 23.988 18.4548C24.1512 18.618 24.2428 18.8393 24.2428 19.07C24.243 19.2956 24.1554 19.5125 23.9987 19.6748C23.842 19.8371 23.6283 19.9322 23.4028 19.94H23.3728ZM23.4628 17.34H23.3728C23.1453 17.3387 22.9197 17.3825 22.7092 17.469C22.4987 17.5555 22.3075 17.6828 22.1466 17.8438C21.9857 18.0047 21.8583 18.1959 21.7718 18.4064C21.6853 18.6169 21.6415 18.8424 21.6428 19.07C21.6418 19.4552 21.7723 19.8292 22.0128 20.13C20.8003 20.823 19.403 21.1234 18.0128 20.99C18.5519 19.6485 18.9345 18.2492 19.1528 16.82C20.265 15.9164 21.2714 14.8899 22.1528 13.76C22.9114 14.8084 23.3742 16.0414 23.4928 17.33L23.4628 17.34ZM24.2428 6.94C24.2402 7.169 24.1474 7.38773 23.9845 7.54873C23.8216 7.70973 23.6019 7.80002 23.3728 7.8C23.1438 7.80002 22.924 7.70973 22.7612 7.54873C22.5983 7.38773 22.5055 7.169 22.5028 6.94C22.5028 6.70926 22.5945 6.48797 22.7576 6.32482C22.9208 6.16166 23.1421 6.07 23.3728 6.07C23.4896 6.06598 23.6059 6.0855 23.715 6.12741C23.824 6.16933 23.9235 6.23277 24.0075 6.31396C24.0915 6.39516 24.1583 6.49243 24.2039 6.59999C24.2495 6.70755 24.2729 6.82318 24.2728 6.94H24.2428ZM22.0128 5.87C21.7723 6.1747 21.6419 6.5518 21.6428 6.94C21.6428 7.39883 21.8251 7.83886 22.1495 8.1633C22.474 8.48773 22.914 8.67 23.3728 8.67H23.4628C23.3694 9.9574 22.9345 11.1966 22.2028 12.26C21.3216 11.127 20.3152 10.0972 19.2028 9.19C18.9819 7.76134 18.5994 6.36238 18.0628 5.02C19.4527 4.89184 20.8485 5.19194 22.0628 5.88L22.0128 5.87ZM12.5428 0.870003C14.1628 0.870003 15.6428 2.16 16.7328 4.25C15.2988 4.45573 13.893 4.82479 12.5428 5.35C11.1895 4.82406 9.78025 4.45498 8.34282 4.25C9.43282 2.16 10.9128 0.870003 12.5428 0.870003ZM1.73283 6.07C1.96357 6.07 2.18485 6.16166 2.348 6.32482C2.51116 6.48797 2.60283 6.70926 2.60283 6.94C2.60019 7.169 2.50737 7.38773 2.34449 7.54873C2.18162 7.70973 1.96185 7.80002 1.73283 7.8C1.50555 7.79741 1.28833 7.70596 1.12761 7.54524C0.966884 7.38452 0.875443 7.16728 0.872845 6.94C0.87283 6.71099 0.963096 6.4912 1.1241 6.32833C1.2851 6.16545 1.50383 6.07264 1.73283 6.07ZM1.64283 8.66H1.73283C2.19258 8.66001 2.63364 8.47806 2.95967 8.15391C3.2857 7.82975 3.47018 7.38974 3.47282 6.93C3.47093 6.5406 3.33695 6.16337 3.09282 5.86C4.30718 5.17194 5.70297 4.87184 7.09282 5C6.55493 6.34121 6.17571 7.74071 5.96284 9.17C4.85084 10.0775 3.8445 11.1074 2.96284 12.24C2.21579 11.1835 1.76048 9.94862 1.64283 8.66ZM2.90284 13.76C3.7847 14.8895 4.79105 15.916 5.90284 16.82C6.12258 18.2478 6.50159 19.6466 7.03282 20.99C5.64274 21.1221 4.24578 20.8217 3.03282 20.13C3.27623 19.8301 3.41025 19.4562 3.41282 19.07C3.41562 18.618 3.24142 18.1828 2.92744 17.8576C2.61347 17.5324 2.18467 17.3431 1.73283 17.33H1.64283C1.74252 16.0501 2.17706 14.8189 2.90284 13.76Z" fill="white"/>
</svg>
