<svg width="23" height="19" viewBox="0 0 23 19" fill="none" xmlns="http://www.w3.org/2000/svg">
<path d="M21.98 8.37002H3.13001L9.99 1.55002C10.1592 1.37795 10.254 1.14632 10.254 0.905019C10.254 0.663721 10.1592 0.432082 9.99 0.260018C9.81671 0.0931953 9.58554 0 9.34501 0C9.10447 0 8.87327 0.0931953 8.69999 0.260018L0.269994 8.65002C0.184085 8.73501 0.115973 8.83626 0.0696158 8.94786C0.0232587 9.05946 -0.000403684 9.17917 5.21018e-06 9.30002C0.00184101 9.54066 0.0989108 9.77078 0.269994 9.94002L8.69999 18.33C8.78454 18.415 8.88507 18.4824 8.99576 18.5284C9.10645 18.5744 9.22514 18.5981 9.34501 18.5981C9.46487 18.5981 9.58356 18.5744 9.69425 18.5284C9.80494 18.4824 9.90544 18.415 9.99 18.33C10.1592 18.158 10.254 17.9263 10.254 17.685C10.254 17.4437 10.1592 17.2121 9.99 17.04L3.13001 10.19H21.98C22.0995 10.19 22.2178 10.1665 22.3283 10.1207C22.4387 10.075 22.5389 10.008 22.6234 9.92349C22.708 9.83898 22.775 9.73867 22.8207 9.62826C22.8664 9.51785 22.89 9.39952 22.89 9.28002C22.8874 9.03948 22.7907 8.80952 22.6206 8.63943C22.4505 8.46933 22.2205 8.37262 21.98 8.37002Z" fill="#650084"/>
</svg>
