<svg width="18" height="18" viewBox="0 0 18 18" fill="none" xmlns="http://www.w3.org/2000/svg">
<path d="M10.1104 8.99556L17.7767 1.34634C17.8504 1.27346 17.9088 1.18663 17.9486 1.09093C17.9883 0.995232 18.0086 0.89257 18.0083 0.788942C18.0086 0.685313 17.9883 0.582652 17.9486 0.486951C17.9088 0.39125 17.8504 0.304427 17.7767 0.231546C17.6274 0.0833478 17.4255 0.000187172 17.215 0.000187172C17.0046 0.000187172 16.8027 0.0833478 16.6534 0.231546L9.00413 7.88076L1.35493 0.231546C1.20716 0.0835357 1.00668 0.000255283 0.797533 1.05251e-05C0.692601 -0.000528556 0.58857 0.0196457 0.491449 0.059377C0.394328 0.0991082 0.306023 0.157616 0.231556 0.231546C0.157886 0.304427 0.0994509 0.39125 0.059698 0.486951C0.0199452 0.582652 -0.000346173 0.685313 4.46792e-06 0.788942C-0.000346173 0.89257 0.0199452 0.995232 0.059698 1.09093C0.0994509 1.18663 0.157886 1.27346 0.231556 1.34634L7.88076 8.99556L0.231556 16.6448C0.0874493 16.7986 0.00500965 17.0001 4.46792e-06 17.2108C0.00117839 17.4197 0.0843342 17.6199 0.231556 17.7682C0.304437 17.8418 0.391247 17.9002 0.486948 17.94C0.582649 17.9797 0.68532 18 0.788949 17.9997C0.894221 18.0027 0.99897 17.9837 1.09645 17.9438C1.19392 17.9039 1.28197 17.8441 1.35493 17.7682L9.00413 10.1189L16.6534 17.7682C16.8093 17.9033 17.0087 17.9777 17.215 17.9777C17.4214 17.9777 17.6208 17.9033 17.7767 17.7682C17.924 17.6199 18.0071 17.4197 18.0083 17.2108C18.0033 17.0001 17.9208 16.7986 17.7767 16.6448L10.1104 8.99556Z" fill="#650084"/>
</svg>
