<svg width="27" height="26" viewBox="0 0 27 26" fill="none" xmlns="http://www.w3.org/2000/svg">
<path d="M24.2998 20.9369C25.8531 18.7084 26.6838 16.0562 26.6795 13.3398C26.6619 9.80727 25.2508 6.42447 22.7529 3.92659C20.2551 1.42871 16.8723 0.0176188 13.3398 0C9.80727 0.0176188 6.42448 1.42871 3.9266 3.92659C1.42871 6.42447 0.0176188 9.80727 0 13.3398C0.00495066 15.5089 0.536182 17.6445 1.54808 19.5632C2.55997 21.482 4.02231 23.1265 5.80961 24.3557C5.90811 24.4109 6.02129 24.4343 6.13362 24.4227C6.19092 24.4125 6.24542 24.3903 6.29356 24.3576C6.34169 24.3248 6.38236 24.2823 6.41292 24.2328C6.44552 24.1883 6.46833 24.1375 6.47989 24.0835C6.49144 24.0296 6.49147 23.9739 6.47996 23.92C6.47173 23.8634 6.45152 23.8092 6.4207 23.761C6.38987 23.7129 6.34913 23.6718 6.30119 23.6406C4.62554 22.495 3.25435 20.9582 2.3063 19.1634C1.35826 17.3685 0.861927 15.3696 0.860274 13.3398C0.863232 10.0309 2.17898 6.85841 4.51869 4.51869C6.85841 2.17898 10.0309 0.863228 13.3398 0.86027C14.9829 0.85439 16.611 1.17276 18.1309 1.79714C19.6508 2.42153 21.0325 3.33965 22.1969 4.49892C23.3614 5.65819 24.2857 7.03581 24.9169 8.55288C25.548 10.0699 25.8737 11.6966 25.8751 13.3398C25.8839 15.8517 25.1304 18.3071 23.7141 20.3817C22.2978 22.4563 20.2854 24.0524 17.9428 24.959C17.4887 25.1408 16.9965 25.2063 16.5107 25.1498C16.0249 25.0932 15.561 24.9162 15.1609 24.635C14.6933 24.3121 14.3225 23.868 14.0883 23.3504C13.854 22.8327 13.7652 22.261 13.8314 21.6967V21.2051H14.1665C15.6684 21.0148 17.0494 20.2836 18.0509 19.1484C19.0525 18.0132 19.6059 16.5518 19.6074 15.038C19.6074 12.4236 15.9206 6.71457 13.742 3.76507C13.7027 3.70978 13.6508 3.6647 13.5905 3.6336C13.5303 3.6025 13.4634 3.58629 13.3956 3.58632C13.3278 3.58629 13.261 3.6025 13.2007 3.6336C13.1405 3.6647 13.0885 3.70978 13.0493 3.76507C12.446 4.58065 7.18382 11.8203 7.18382 15.038C7.1854 16.5518 7.73878 18.0132 8.74032 19.1484C9.74186 20.2836 11.1229 21.0148 12.6247 21.2051H12.9599V22.1212C12.9577 22.7476 13.1069 23.3653 13.3948 23.9216C13.6827 24.478 14.1008 24.9565 14.6134 25.3165C15.1304 25.6766 15.7286 25.9028 16.3545 25.9749C16.9804 26.0471 17.6144 25.9629 18.1997 25.7299C20.661 24.7683 22.7832 23.1008 24.2998 20.9369ZM13.3398 9.46296C13.2251 9.4658 13.1159 9.51261 13.0348 9.59372C12.9537 9.67483 12.9069 9.78402 12.904 9.89868V13.2504H12.8258L10.9042 12.1332C10.7958 12.0948 10.6775 12.0948 10.569 12.1332C10.4586 12.1671 10.3662 12.2434 10.3121 12.3454C10.2845 12.3945 10.267 12.4485 10.2605 12.5044C10.254 12.5603 10.2587 12.6169 10.2743 12.671C10.2899 12.725 10.3161 12.7754 10.3514 12.8193C10.3866 12.8631 10.4302 12.8995 10.4797 12.9264L12.904 14.2894V20.3895L12.4572 20.3113C11.2071 20.1068 10.0707 19.4638 9.25178 18.4974C8.43284 17.5311 7.98489 16.3046 7.98823 15.038C7.98823 12.5689 11.8427 6.88215 13.0158 5.20631L13.3398 4.74824L13.6638 5.20631C15.172 7.37374 18.6913 12.6582 18.6913 15.038C18.6947 16.3046 18.2467 17.5311 17.4278 18.4974C16.6088 19.4638 15.4725 20.1068 14.2224 20.3113L13.7755 20.3895V17.0378L16.1999 15.6748C16.2499 15.649 16.2938 15.6126 16.3285 15.5683C16.3632 15.5239 16.388 15.4726 16.401 15.4178C16.4228 15.3666 16.434 15.3115 16.434 15.2558C16.434 15.2001 16.4228 15.145 16.401 15.0938C16.3446 14.9932 16.2506 14.919 16.1396 14.8876C16.0286 14.8562 15.9096 14.8701 15.8089 14.9262L13.809 16.0435V9.89868C13.8076 9.83902 13.7942 9.78023 13.7697 9.72581C13.7452 9.67138 13.7101 9.62243 13.6663 9.58181C13.6226 9.5412 13.5712 9.50976 13.5151 9.48935C13.459 9.46893 13.3994 9.45996 13.3398 9.46296Z" fill="#650084"/>
</svg>
