<svg width="16" height="16" viewBox="0 0 16 16" fill="none" xmlns="http://www.w3.org/2000/svg">
<path d="M8 0C5.87827 0 3.84343 0.842855 2.34314 2.34315C0.842849 3.84344 0 5.87827 0 8C0 10.1217 0.842849 12.1566 2.34314 13.6569C3.84343 15.1571 5.87827 16 8 16C10.1217 16 12.1566 15.1571 13.6569 13.6569C15.1572 12.1566 16 10.1217 16 8C16 5.87827 15.1572 3.84344 13.6569 2.34315C12.1566 0.842855 10.1217 0 8 0ZM8 15C7.07902 15.0021 6.16666 14.8227 5.31509 14.4719C4.46351 14.1212 3.68943 13.606 3.03709 12.9559C2.38474 12.3058 1.86694 11.5335 1.51328 10.6831C1.15963 9.83272 0.97705 8.92098 0.976001 8C0.976001 6.14348 1.71349 4.36301 3.02625 3.05025C4.339 1.7375 6.11949 1 7.976 1C9.83187 1.00212 11.6111 1.7403 12.9234 3.05259C14.2357 4.36489 14.9739 6.14413 14.976 8C14.9718 9.85522 14.2329 11.6332 12.9211 12.9451C11.6092 14.2569 9.83122 14.9958 7.976 15H8Z" fill="black"/>
<path d="M8.4959 3H7.4959V8.208L10.6399 11.352L11.3519 10.648L8.4959 7.792V3Z" fill="black"/>
</svg>
