<svg width="28" height="26" viewBox="0 0 28 26" fill="none" xmlns="http://www.w3.org/2000/svg">
<path d="M18.9751 0.80127C19.9924 0.794862 21.0001 0.999925 21.9331 1.40576C22.8678 1.81238 23.7074 2.411 24.397 3.16162H24.396C25.8483 4.71394 26.6543 6.76128 26.6489 8.88721V8.90771C26.5813 11.2891 25.6451 13.5639 24.0171 15.3032L24.0161 15.3022C22.1378 17.3555 20.0996 19.2562 17.9204 20.9868C17.0813 21.7407 16.1331 22.5556 15.1489 23.4077L14.2319 24.2046L13.7036 24.6626L13.1792 24.2007L12.2729 23.4028L12.2651 23.397L12.2583 23.3901C11.2956 22.4988 10.3718 21.7171 9.54346 20.9985C7.35711 19.2675 5.31394 17.363 3.43408 15.3032C1.80606 13.5639 0.86991 11.2891 0.802246 8.90771V8.51221C0.848606 6.55739 1.58508 4.67663 2.88818 3.20752L2.89697 3.19873C3.58584 2.44644 4.42546 1.84683 5.36084 1.43994C6.29143 1.0352 7.29637 0.830646 8.31104 0.837402V0.836426C8.31624 0.83637 8.32145 0.83647 8.32666 0.836426L8.32568 0.837402C9.76819 0.824963 11.1751 1.26808 12.3472 2.10107L12.5796 2.27295L12.5815 2.2749C12.9637 2.57354 13.3182 2.90461 13.644 3.26221C13.9671 2.90499 14.3191 2.57427 14.6987 2.27588H14.6997C15.9176 1.31977 17.421 0.80108 18.9692 0.80127V0.800293L18.9722 0.80127C18.9734 0.80127 18.9749 0.800292 18.9761 0.800293L18.9751 0.80127Z" stroke="#650084" stroke-width="1.6"/>
</svg>
