<svg width="25" height="22" viewBox="0 0 25 22" fill="none" xmlns="http://www.w3.org/2000/svg">
<path d="M17.4462 22C17.2749 21.9978 17.1045 21.975 16.9385 21.9323L1.4793 17.82C0.968211 17.6793 0.533228 17.3427 0.268688 16.8834C0.0041481 16.424 -0.0685971 15.8788 0.066239 15.3662L2.01238 8.09769C2.02996 8.03423 2.05993 7.97488 2.10054 7.92304C2.14115 7.87121 2.19163 7.82793 2.24905 7.79568C2.30646 7.76343 2.36967 7.74286 2.43507 7.73516C2.50047 7.72745 2.56675 7.73275 2.63008 7.75077C2.75572 7.78448 2.86284 7.8667 2.9279 7.97935C2.99295 8.092 3.01061 8.22587 2.97701 8.35154L1.03084 15.62C0.963345 15.878 1.00008 16.1522 1.13307 16.3834C1.26607 16.6145 1.48464 16.7841 1.74161 16.8554L17.2009 20.9931C17.4543 21.0579 17.7231 21.0206 17.9494 20.8893C18.1757 20.7579 18.3414 20.543 18.4108 20.2908L19.1978 17.3969C19.2135 17.333 19.2419 17.2729 19.2812 17.2202C19.3206 17.1675 19.3702 17.1233 19.4271 17.0901C19.4839 17.057 19.5468 17.0356 19.6121 17.0272C19.6774 17.0189 19.7436 17.0238 19.807 17.0415C19.9348 17.0753 20.0441 17.1584 20.1107 17.2727C20.1773 17.3869 20.1959 17.5229 20.1624 17.6508L19.3839 20.5446C19.2627 20.9647 19.008 21.3338 18.6585 21.5964C18.3089 21.8589 17.8834 22.0006 17.4462 22Z" fill="#650084"/>
<path d="M21.9985 16.0008H5.99778C5.46739 15.9985 4.95946 15.7863 4.58521 15.4104C4.21095 15.0346 4.00084 14.5258 4.00084 13.9954V1.99692C4.00084 1.46731 4.21123 0.959383 4.58573 0.584888C4.96022 0.210392 5.46816 0 5.99778 0H21.9985C22.5281 0 23.0361 0.210392 23.4106 0.584888C23.7851 0.959383 23.9955 1.46731 23.9955 1.99692V13.9954C23.9955 14.5258 23.7854 15.0346 23.4111 15.4104C23.0368 15.7863 22.5289 15.9985 21.9985 16.0008ZM5.99778 0.998462C5.73888 1.00724 5.49352 1.1163 5.31353 1.30261C5.13355 1.48891 5.033 1.73788 5.03315 1.99692V13.9954C5.03204 14.1272 5.05704 14.258 5.10672 14.3801C5.1564 14.5022 5.22977 14.6133 5.3226 14.7069C5.41543 14.8005 5.52586 14.8748 5.64755 14.9255C5.76924 14.9762 5.89977 15.0023 6.03161 15.0023H22.0324C22.1642 15.0023 22.2947 14.9762 22.4164 14.9255C22.5381 14.8748 22.6486 14.8005 22.7414 14.7069C22.8342 14.6133 22.9076 14.5022 22.9573 14.3801C23.007 14.258 23.032 14.1272 23.0308 13.9954V1.99692C23.0308 1.73211 22.9256 1.47815 22.7384 1.29091C22.5511 1.10366 22.2972 0.998462 22.0324 0.998462H5.99778Z" fill="#650084"/>
<path d="M8.99314 6.99769C8.46353 6.99769 7.95561 6.7873 7.58111 6.41281C7.20662 6.03831 6.99623 5.53039 6.99623 5.00077C6.99623 4.47037 7.20634 3.96157 7.5806 3.58573C7.95485 3.20989 8.46275 2.99762 8.99314 2.99538C9.525 2.99538 10.0351 3.20667 10.4112 3.58275C10.7872 3.95883 10.9985 4.46891 10.9985 5.00077C10.9963 5.53116 10.784 6.03907 10.4082 6.41332C10.0324 6.78758 9.52354 6.9977 8.99314 6.99769ZM8.99314 4.00231C8.72833 4.00231 8.47438 4.1075 8.28713 4.29475C8.09988 4.482 7.99469 4.73596 7.99469 5.00077C8.00131 5.26115 8.10942 5.50864 8.29596 5.69043C8.48249 5.87223 8.73267 5.97393 8.99314 5.97385C9.12497 5.97496 9.25573 5.94996 9.37785 5.90028C9.49996 5.85061 9.61102 5.77724 9.70463 5.68441C9.79825 5.59158 9.87257 5.48114 9.92327 5.35944C9.97398 5.23775 10.0001 5.10722 10.0001 4.97538C9.99342 4.71353 9.88413 4.46478 9.69578 4.28275C9.50742 4.10072 9.25507 4 8.99314 4.00231ZM4.56778 14.9262C4.5019 14.9273 4.43646 14.9152 4.37537 14.8905C4.31428 14.8658 4.25879 14.8291 4.2122 14.7825C4.16561 14.7359 4.12889 14.6804 4.10421 14.6193C4.07953 14.5582 4.06738 14.4928 4.06852 14.4269C4.07074 14.2947 4.12202 14.1681 4.21238 14.0715L8.93391 9.35C9.22024 9.07737 9.60047 8.92531 9.99583 8.92531C10.3912 8.92531 10.7714 9.07737 11.0578 9.35L12.4624 10.7546L16.3547 6.09231C16.4925 5.92242 16.6667 5.78559 16.8644 5.69187C17.0621 5.59815 17.2782 5.54994 17.497 5.55077C17.7141 5.54965 17.9289 5.59602 18.1262 5.68665C18.3235 5.77727 18.4986 5.90995 18.6393 6.07538L23.8685 12.1762C23.961 12.2696 24.0129 12.3958 24.0129 12.5273C24.0129 12.6588 23.961 12.785 23.8685 12.8785C23.7736 12.9715 23.646 13.0236 23.5131 13.0236C23.3803 13.0236 23.2527 12.9715 23.1578 12.8785L17.9285 6.76923C17.8814 6.71481 17.8228 6.67145 17.757 6.6422C17.6912 6.61295 17.6198 6.59855 17.5478 6.6C17.4753 6.60072 17.4038 6.61696 17.3381 6.64761C17.2725 6.67826 17.2141 6.72261 17.167 6.77769L12.9362 11.8546C12.893 11.9078 12.839 11.9511 12.7777 11.9818C12.7164 12.0124 12.6493 12.0296 12.5809 12.0323C12.5108 12.037 12.4405 12.0265 12.3748 12.0017C12.3092 11.9769 12.2496 11.9383 12.2001 11.8885L10.4062 10.0946C10.3117 10.0041 10.1859 9.95359 10.0551 9.95359C9.92422 9.95359 9.79841 10.0041 9.70391 10.0946L4.98238 14.8162C4.93555 14.8624 4.88004 14.8989 4.81905 14.9235C4.75806 14.9482 4.69278 14.9606 4.62699 14.96L4.56778 14.9262Z" fill="#650084"/>
</svg>
