<svg width="24" height="23" viewBox="0 0 24 23" fill="none" xmlns="http://www.w3.org/2000/svg">
<path d="M22.25 10.0601H22.14V9.94013C22.0629 7.32858 20.9895 4.8455 19.14 3.00013C18.1796 2.04263 17.0393 1.28461 15.7848 0.76973C14.5302 0.254853 13.1861 -0.00669911 11.83 0.000130373C9.14525 -0.00876294 6.56333 1.03199 4.63525 2.90028C2.70718 4.76857 1.58566 7.31643 1.51001 10.0001V10.1201H1.40001C1.01243 10.2858 0.677307 10.554 0.430649 10.8958C0.18399 11.2376 0.0351109 11.6401 0 12.0601V14.8401C0.00263134 15.444 0.243686 16.0224 0.6707 16.4494C1.09771 16.8764 1.67612 17.1175 2.28 17.1201C2.46385 17.1201 2.64591 17.0839 2.81577 17.0136C2.98562 16.9432 3.13996 16.8401 3.26996 16.7101C3.39996 16.5801 3.50308 16.4257 3.57344 16.2559C3.6438 16.086 3.68001 15.904 3.68001 15.7201V11.2201C3.67927 10.8736 3.55002 10.5396 3.31728 10.2829C3.08453 10.0261 2.76481 9.86478 2.42 9.83012H2.22V9.64013C2.3724 7.20635 3.44529 4.92177 5.22083 3.25024C6.99636 1.57872 9.34146 0.645523 11.78 0.64013C13.0411 0.638025 14.2902 0.885195 15.4555 1.36743C16.6207 1.84967 17.6792 2.55746 18.57 3.45013C20.2263 5.10142 21.216 7.30515 21.35 9.64013V9.83012H21.16C20.8152 9.86478 20.4955 10.0261 20.2627 10.2829C20.03 10.5396 19.9007 10.8736 19.9 11.2201V15.7501C19.8991 16.0994 20.0307 16.4361 20.2682 16.6922C20.5058 16.9483 20.8316 17.1048 21.18 17.1301H21.36V18.4601C21.368 18.7954 21.3095 19.1289 21.1879 19.4414C21.0663 19.7539 20.8841 20.0392 20.6516 20.2809C20.4192 20.5226 20.1412 20.7159 19.8337 20.8497C19.5262 20.9834 19.1953 21.0549 18.86 21.0601H16.98V20.9301C16.8714 20.636 16.675 20.3823 16.4174 20.2034C16.1599 20.0246 15.8536 19.9292 15.54 19.9301H13.75C13.5291 19.93 13.3107 19.9778 13.11 20.0701C12.8416 20.1927 12.6141 20.3899 12.4546 20.6381C12.295 20.8863 12.2101 21.1751 12.21 21.4701C12.2094 21.671 12.2489 21.87 12.3262 22.0555C12.4034 22.2409 12.5169 22.4091 12.66 22.5501C12.8032 22.6931 12.9732 22.8064 13.1602 22.8836C13.3472 22.9608 13.5477 23.0004 13.75 23.0001H15.53C15.8449 23.0017 16.1528 22.9067 16.4121 22.7279C16.6714 22.5491 16.8696 22.2951 16.98 22.0001V21.8701H18.86C19.7299 21.8701 20.5642 21.5246 21.1793 20.9094C21.7944 20.2943 22.14 19.46 22.14 18.5901V17.0001H22.26C22.6591 16.8182 22.9976 16.5254 23.2351 16.1567C23.4727 15.7879 23.5993 15.3588 23.6 14.9201V12.0601C23.5834 11.6341 23.4483 11.2212 23.2098 10.8679C22.9713 10.5145 22.6389 10.2348 22.25 10.0601ZM2.25 10.6201C2.42239 10.6201 2.58773 10.6886 2.70963 10.8105C2.83152 10.9324 2.90001 11.0977 2.90001 11.2701V15.8001C2.90001 15.9725 2.83152 16.1379 2.70963 16.2598C2.58773 16.3816 2.42239 16.4501 2.25 16.4501C1.85035 16.4269 1.47546 16.2489 1.20479 15.954C0.934113 15.6591 0.78893 15.2703 0.800003 14.8701V12.0601C0.810006 11.6698 0.968841 11.2981 1.24399 11.0211C1.51913 10.7441 1.88977 10.5828 2.28 10.5701L2.25 10.6201ZM16.25 21.6201C16.2133 21.7975 16.1168 21.9569 15.9766 22.0716C15.8365 22.1863 15.6611 22.2493 15.48 22.2501H13.7C13.489 22.2471 13.2877 22.1609 13.14 22.0101C13.0661 21.939 13.0076 21.8536 12.968 21.759C12.9284 21.6644 12.9087 21.5627 12.91 21.4601C12.91 21.3564 12.9304 21.2537 12.9701 21.1578C13.0098 21.062 13.068 20.9749 13.1414 20.9015C13.2147 20.8282 13.3018 20.77 13.3977 20.7303C13.4935 20.6906 13.5963 20.6701 13.7 20.6701H15.48C15.5839 20.6698 15.6868 20.6899 15.7829 20.7294C15.879 20.7688 15.9664 20.8269 16.04 20.9001C16.1133 20.9738 16.1713 21.0611 16.2108 21.1572C16.2502 21.2533 16.2704 21.3562 16.27 21.4601C16.2696 21.4904 16.2662 21.5205 16.26 21.5501L16.25 21.6201ZM22.85 14.9401C22.8474 15.3451 22.6854 15.7327 22.399 16.0191C22.1126 16.3055 21.725 16.4675 21.32 16.4701C21.1476 16.4701 20.9823 16.4016 20.8604 16.2797C20.7385 16.1578 20.67 15.9925 20.67 15.8201V11.2201C20.67 11.0477 20.7385 10.8824 20.8604 10.7605C20.9823 10.6386 21.1476 10.5701 21.32 10.5701C21.7207 10.5674 22.1064 10.7219 22.3944 11.0005C22.6824 11.2791 22.8495 11.6596 22.86 12.0601L22.85 14.9401Z" fill="#650084"/>
<path d="M15.5201 14.8702C15.8171 14.8768 16.1125 14.8241 16.3888 14.715C16.6652 14.6059 16.917 14.4427 17.1294 14.235C17.3418 14.0272 17.5105 13.7791 17.6257 13.5053C17.7409 13.2314 17.8002 12.9373 17.8001 12.6402V7.64018C17.7933 7.34369 17.728 7.05145 17.6078 6.7803C17.4877 6.50914 17.3151 6.26441 17.1001 6.06018C16.8927 5.85286 16.6463 5.68867 16.3751 5.5771C16.1039 5.46554 15.8133 5.4088 15.5201 5.41018H8.09009C7.49853 5.41279 6.9318 5.64825 6.51257 6.06561C6.09334 6.48297 5.85535 7.04865 5.8501 7.64018V12.6402C5.85535 13.2317 6.09334 13.7974 6.51257 14.2147C6.9318 14.6321 7.49853 14.8676 8.09009 14.8702H8.2901V16.3502C8.28934 16.4818 8.31455 16.6122 8.36432 16.7341C8.41408 16.8559 8.48741 16.9667 8.58009 17.0602C8.76635 17.2449 9.01775 17.3491 9.28009 17.3502C9.54243 17.3491 9.79383 17.2449 9.98009 17.0602L12.1801 14.8702H15.5201ZM11.8001 14.2302L9.39009 16.6302H9.23009C9.18456 16.6118 9.14578 16.5799 9.11896 16.5388C9.09213 16.4976 9.07857 16.4493 9.08009 16.4002V14.5002C9.08013 14.4011 9.04147 14.3059 8.97235 14.235C8.90324 14.164 8.80914 14.1228 8.7101 14.1202H8.09009C7.69664 14.1202 7.31917 13.9646 7.04002 13.6873C6.76088 13.41 6.60274 13.0336 6.6001 12.6402V7.64018C6.60274 7.24675 6.76088 6.87032 7.04002 6.59305C7.31917 6.31578 7.69664 6.16017 8.09009 6.16018H15.5201C15.7149 6.15871 15.908 6.19597 16.0883 6.26979C16.2685 6.34361 16.4323 6.45252 16.5701 6.59018C16.85 6.86814 17.0082 7.24574 17.0101 7.64018V12.6402C17.0075 13.0336 16.8493 13.41 16.5702 13.6873C16.291 13.9646 15.9135 14.1202 15.5201 14.1202H12.0601C11.9625 14.1221 11.8694 14.1615 11.8001 14.2302Z" fill="#650084"/>
<path d="M9.02012 10.9001C9.3791 10.9001 9.67012 10.6091 9.67012 10.2501C9.67012 9.89111 9.3791 9.6001 9.02012 9.6001C8.66113 9.6001 8.37012 9.89111 8.37012 10.2501C8.37012 10.6091 8.66113 10.9001 9.02012 10.9001Z" fill="#650084"/>
<path d="M14.5901 9.60986C14.4203 9.60986 14.2576 9.67729 14.1375 9.79731C14.0175 9.91733 13.9501 10.0801 13.9501 10.2499C13.9501 10.4205 14.0172 10.5844 14.1369 10.706C14.2567 10.8276 14.4194 10.8972 14.5901 10.8999C14.6754 10.8999 14.76 10.883 14.8388 10.8504C14.9177 10.8177 14.9893 10.7698 15.0497 10.7095C15.1101 10.6491 15.1579 10.5775 15.1906 10.4986C15.2233 10.4197 15.2401 10.3352 15.2401 10.2499C15.2375 10.0792 15.1678 9.91644 15.0462 9.79669C14.9246 9.67695 14.7607 9.60984 14.5901 9.60986Z" fill="#650084"/>
<path d="M11.8 9.60986C11.6303 9.60986 11.4675 9.67729 11.3475 9.79731C11.2275 9.91733 11.16 10.0801 11.16 10.2499C11.16 10.4205 11.2271 10.5844 11.3469 10.706C11.4666 10.8276 11.6294 10.8972 11.8 10.8999C11.8854 10.8999 11.9699 10.883 12.0488 10.8504C12.1276 10.8177 12.1993 10.7698 12.2597 10.7095C12.32 10.6491 12.3679 10.5775 12.4006 10.4986C12.4332 10.4197 12.45 10.3352 12.45 10.2499C12.4474 10.0792 12.3778 9.91644 12.2561 9.79669C12.1345 9.67695 11.9707 9.60984 11.8 9.60986Z" fill="#650084"/>
</svg>
