<svg width="24" height="24" viewBox="0 0 24 24" fill="none" xmlns="http://www.w3.org/2000/svg">
<path d="M5.67665 10.6091C5.61317 10.5709 5.54073 10.5502 5.46666 10.5491C5.40491 10.5493 5.34419 10.565 5.29004 10.5947C5.2359 10.6244 5.19003 10.6671 5.15665 10.7191C5.10389 10.8014 5.08585 10.9012 5.10646 10.9968C5.12707 11.0923 5.18466 11.1758 5.26665 11.2291L6.10666 11.8191C6.18375 11.8743 6.27948 11.8968 6.3731 11.8818C6.46671 11.8669 6.55064 11.8156 6.60666 11.7391H6.70665L6.62665 11.6791L7.68666 10.0791C7.7163 10.0413 7.7376 9.99775 7.74918 9.95118C7.76076 9.90461 7.76235 9.85612 7.75385 9.80889C7.74535 9.76166 7.72696 9.71677 7.69986 9.67716C7.67277 9.63755 7.63759 9.60412 7.59665 9.57908C7.55555 9.54763 7.5083 9.52516 7.45796 9.5131C7.40763 9.50105 7.35534 9.49969 7.30445 9.50911C7.25355 9.51854 7.20521 9.53854 7.16252 9.56781C7.11984 9.59709 7.08378 9.635 7.05666 9.67908L6.21666 10.9391L5.67665 10.6091Z" fill="#650084"/>
<path d="M10.1868 5.16886C10.2266 5.19803 10.2721 5.21846 10.3204 5.2288C10.3686 5.23914 10.4185 5.23916 10.4668 5.22885L13.9868 4.55885C14.0355 4.54961 14.0818 4.53069 14.123 4.50321C14.1642 4.47572 14.1995 4.44023 14.2268 4.39885C14.2772 4.3148 14.295 4.21516 14.2768 4.11885C14.2681 4.06998 14.2494 4.02343 14.2219 3.98213C14.1943 3.94082 14.1586 3.90567 14.1168 3.87885C14.0575 3.83953 13.9879 3.81865 13.9168 3.81885H13.8468L10.2968 4.49885C10.2479 4.50753 10.2014 4.52623 10.1601 4.55377C10.1187 4.5813 10.0836 4.61708 10.0568 4.65885C10.0055 4.74256 9.9876 4.84255 10.0068 4.93885C10.0201 4.98717 10.0429 5.03237 10.0738 5.07184C10.1047 5.11131 10.1431 5.14428 10.1868 5.16886Z" fill="#650084"/>
<path d="M8.23674 18.8991L5.71675 19.3891V19.2891L5.12674 16.2891L7.65674 15.7891C7.70625 15.7823 7.75358 15.7644 7.79515 15.7367C7.83673 15.709 7.87146 15.6722 7.89675 15.6291C7.94743 15.5488 7.96533 15.4522 7.94675 15.3591C7.9393 15.3098 7.92111 15.2628 7.89347 15.2213C7.86582 15.1798 7.82938 15.1449 7.78675 15.1191C7.72747 15.0798 7.65788 15.0589 7.58675 15.0591H7.50675L4.59674 15.6291C4.50415 15.6505 4.42257 15.705 4.36733 15.7824C4.31209 15.8597 4.28698 15.9545 4.29674 16.0491L5.05675 19.9091C5.07852 20.0128 5.13963 20.1041 5.22727 20.1638C5.3149 20.2235 5.42224 20.2469 5.52675 20.2291L8.43675 19.6491C8.48563 19.6404 8.53217 19.6217 8.57347 19.5942C8.61477 19.5666 8.64993 19.5309 8.67674 19.4891C8.72806 19.4054 8.74592 19.3054 8.72675 19.2091C8.72083 19.1536 8.70246 19.1002 8.67301 19.0529C8.64355 19.0056 8.60378 18.9655 8.55666 18.9357C8.50954 18.9059 8.45629 18.8871 8.4009 18.8808C8.3455 18.8744 8.28938 18.8807 8.23674 18.8991Z" fill="#650084"/>
<path d="M10.4967 7.41914C10.5055 7.46664 10.5243 7.51173 10.5519 7.55139C10.5795 7.59105 10.6152 7.62437 10.6567 7.64914C10.7007 7.66902 10.7484 7.6793 10.7967 7.6793C10.845 7.6793 10.8927 7.66902 10.9367 7.64914L14.4767 6.96914C14.5752 6.94746 14.6615 6.88849 14.7174 6.80459C14.7733 6.72068 14.7946 6.61838 14.7767 6.51914C14.7488 6.42225 14.687 6.33862 14.6025 6.28354C14.5181 6.22846 14.4166 6.2056 14.3167 6.21914L10.7867 6.92914C10.733 6.93771 10.6819 6.95801 10.637 6.98859C10.592 7.01917 10.5544 7.05927 10.5267 7.10605C10.499 7.15283 10.482 7.20514 10.4768 7.25925C10.4716 7.31336 10.4784 7.36796 10.4967 7.41914Z" fill="#650084"/>
<path d="M7.35667 13.369C7.38585 13.3292 7.40627 13.2836 7.41661 13.2354C7.42695 13.1871 7.42698 13.1372 7.41667 13.089C7.39504 12.9919 7.33799 12.9063 7.25667 12.849C7.17261 12.7986 7.07297 12.7808 6.97667 12.799L4.42666 13.279V13.189L3.83667 10.189L6.37666 9.67896C6.46535 9.64707 6.53902 9.58336 6.58337 9.50021C6.62772 9.41705 6.63959 9.32038 6.61667 9.22897C6.60787 9.18146 6.58905 9.13638 6.56146 9.09672C6.53387 9.05706 6.49814 9.02373 6.45666 8.99896C6.39739 8.95964 6.3278 8.93877 6.25667 8.93897H6.17666L3.26666 9.50897C3.171 9.52839 3.08648 9.58388 3.03062 9.66394C2.97477 9.744 2.95188 9.84248 2.96667 9.93897L3.72667 13.829C3.75057 13.9282 3.81152 14.0146 3.89705 14.0704C3.98257 14.1262 4.0862 14.1471 4.18667 14.129L7.09666 13.559C7.15127 13.5483 7.20286 13.5257 7.24779 13.4929C7.29271 13.46 7.32989 13.4177 7.35667 13.369Z" fill="#650084"/>
<path d="M14.7867 9.22924L8.60669 10.4292C8.51084 10.4509 8.4271 10.5088 8.37303 10.5908C8.31896 10.6728 8.29876 10.7726 8.31668 10.8692C8.3262 10.9173 8.3452 10.9631 8.37256 11.0038C8.39991 11.0445 8.43507 11.0793 8.47601 11.1063C8.51695 11.1333 8.56285 11.1518 8.61104 11.1609C8.65922 11.17 8.70872 11.1695 8.75668 11.1592L14.9367 9.95924C14.9861 9.94969 15.0331 9.93043 15.075 9.90257C15.1169 9.8747 15.1528 9.8388 15.1807 9.79694C15.2086 9.75507 15.228 9.70809 15.2376 9.6587C15.2472 9.60931 15.2469 9.55851 15.2367 9.50924C15.2185 9.42721 15.173 9.35381 15.1075 9.3011C15.0421 9.24839 14.9607 9.21952 14.8767 9.21924L14.7867 9.22924Z" fill="#650084"/>
<path d="M23.5067 4.229C23.3835 4.03822 23.2237 3.87372 23.0367 3.74499C22.8496 3.61627 22.6389 3.52586 22.4167 3.479H22.3367L15.9167 2.229L15.7667 1.449C15.6587 0.981781 15.3754 0.573889 14.9752 0.309616C14.5751 0.0453426 14.0888 -0.0551126 13.6167 0.0289992L4.10667 1.89899C4.06008 1.9028 4.01501 1.91743 3.97508 1.94174C3.93515 1.96605 3.90144 1.99935 3.87666 2.03899L0.126662 7.419C0.0775902 7.46591 0.0409481 7.52428 0.0200034 7.58886C-0.000941366 7.65344 -0.00552829 7.72221 0.00666719 7.78899L2.83667 22.159C2.92349 22.6296 3.19315 23.0467 3.58667 23.319C3.77978 23.4576 3.99895 23.5556 4.23097 23.6071C4.46299 23.6587 4.70305 23.6627 4.93668 23.619L17.6867 21.149C18.1601 21.05 18.5759 20.7695 18.8451 20.3677C19.1143 19.9658 19.2153 19.4745 19.1267 18.999L16.8067 7.139L19.9467 7.769C19.9975 7.78059 20.0502 7.7813 20.1013 7.7711C20.1525 7.76089 20.2009 7.74 20.2433 7.70979C20.2858 7.67957 20.3214 7.64072 20.3479 7.59578C20.3743 7.55084 20.3909 7.50082 20.3967 7.449C20.4068 7.40283 20.4071 7.35507 20.3977 7.30876C20.3883 7.26245 20.3694 7.21862 20.3421 7.18004C20.3148 7.14146 20.2798 7.10899 20.2392 7.08471C20.1987 7.06043 20.1536 7.04485 20.1067 7.03899L16.6667 6.339L16.0267 3.029L22.1867 4.229C22.3144 4.24973 22.4365 4.29692 22.5449 4.36752C22.6534 4.43812 22.746 4.53058 22.8167 4.639C22.9684 4.85372 23.0295 5.11957 22.9867 5.379L19.7667 22.229C19.7066 22.4992 19.5433 22.7351 19.3116 22.8865C19.0799 23.0379 18.7982 23.0926 18.5267 23.039L15.3467 22.419H15.2467C15.2014 22.4204 15.1568 22.4309 15.1156 22.4498C15.0743 22.4686 15.0373 22.4956 15.0067 22.529C14.9596 22.5849 14.9275 22.6519 14.9135 22.7236C14.8995 22.7954 14.9041 22.8695 14.9267 22.939C14.9445 22.9985 14.9797 23.0513 15.0278 23.0905C15.076 23.1297 15.1348 23.1536 15.1967 23.159L18.3967 23.789C18.6245 23.8363 18.8595 23.8376 19.0879 23.793C19.3162 23.7483 19.5334 23.6586 19.7267 23.529C19.9207 23.4024 20.0871 23.238 20.216 23.0455C20.3448 22.8531 20.4335 22.6366 20.4767 22.409L23.7467 5.56899C23.8006 5.34111 23.807 5.10459 23.7658 4.87408C23.7245 4.64358 23.6363 4.42402 23.5067 4.229ZM3.85667 3.349L4.25667 5.459C4.28915 5.59541 4.29258 5.73712 4.26674 5.87495C4.2409 6.01277 4.18637 6.14362 4.10667 6.259C4.03342 6.3783 3.93592 6.48089 3.82051 6.56013C3.7051 6.63937 3.57433 6.69349 3.43668 6.71899L1.24667 7.119L3.85667 3.349ZM18.4267 19.119C18.4764 19.4012 18.413 19.6917 18.2502 19.9275C18.0873 20.1633 17.8382 20.3255 17.5567 20.379L4.80667 22.859H4.61667C4.39614 22.8559 4.18108 22.79 3.99667 22.669C3.76664 22.4981 3.60668 22.2492 3.54666 21.969L0.80667 7.96899L3.54666 7.42899C4.0206 7.33468 4.43802 7.05675 4.70779 6.65583C4.97757 6.25491 5.07781 5.76355 4.98666 5.28899L4.45666 2.549L13.7367 0.728996C14.0146 0.678442 14.3013 0.737763 14.5364 0.894462C14.7714 1.05116 14.9364 1.29299 14.9967 1.56899L18.4267 19.119Z" fill="#650084"/>
<path d="M11.5567 13.1592C11.5341 13.2304 11.5296 13.306 11.5436 13.3793C11.5576 13.4527 11.5895 13.5214 11.6367 13.5792C11.6782 13.623 11.7309 13.6545 11.7891 13.6703C11.8473 13.6862 11.9087 13.6858 11.9667 13.6692L15.6767 12.9292C15.7258 12.9249 15.7735 12.9101 15.8166 12.886C15.8597 12.8619 15.8972 12.8289 15.9267 12.7892C15.984 12.7079 16.009 12.608 15.9967 12.5092C15.9742 12.4266 15.9244 12.3539 15.8554 12.3031C15.7864 12.2523 15.7023 12.2262 15.6167 12.2292H15.5166L11.8067 12.9692C11.7515 12.9747 11.6989 12.9954 11.6548 13.0289C11.6107 13.0625 11.5767 13.1076 11.5567 13.1592Z" fill="#650084"/>
<path d="M8.84676 15.6988C8.77752 15.6383 8.6887 15.605 8.59676 15.605C8.50482 15.605 8.416 15.6383 8.34676 15.6988L7.45676 17.0288L6.91677 16.6788C6.85679 16.641 6.78765 16.6202 6.71677 16.6188C6.65333 16.6173 6.59057 16.6322 6.53453 16.6619C6.47849 16.6917 6.43105 16.7354 6.39676 16.7888C6.34401 16.8711 6.32597 16.9709 6.34658 17.0665C6.36719 17.162 6.42477 17.2456 6.50676 17.2988L7.34676 17.8788C7.42506 17.933 7.52164 17.9539 7.61534 17.937C7.70905 17.9202 7.79226 17.8669 7.84676 17.7888L8.91677 16.1888C8.94434 16.152 8.96441 16.1102 8.97582 16.0657C8.98722 16.0211 8.98975 15.9748 8.98325 15.9293C8.97675 15.8838 8.96135 15.84 8.93793 15.8005C8.91451 15.7609 8.88353 15.7264 8.84676 15.6988Z" fill="#650084"/>
<path d="M9.61673 16.9992C9.63835 17.095 9.69625 17.1788 9.77829 17.2328C9.86033 17.2869 9.96013 17.3071 10.0567 17.2892L16.2367 16.0892C16.2856 16.0805 16.3322 16.0618 16.3735 16.0343C16.4148 16.0067 16.4499 15.971 16.4767 15.9292C16.5281 15.8455 16.5459 15.7455 16.5267 15.6492C16.5172 15.6011 16.4982 15.5554 16.4709 15.5147C16.4435 15.474 16.4083 15.4391 16.3674 15.4121C16.3265 15.3852 16.2806 15.3666 16.2324 15.3575C16.1842 15.3484 16.1347 15.349 16.0867 15.3592L9.90672 16.5592C9.81088 16.5808 9.72713 16.6387 9.67306 16.7207C9.61899 16.8028 9.59881 16.9026 9.61673 16.9992Z" fill="#650084"/>
</svg>
