<svg width="62" height="62" viewBox="0 0 62 62" fill="none" xmlns="http://www.w3.org/2000/svg">
<circle cx="30.8044" cy="30.8044" r="30.8044" fill="#AEA7A7"/>
<path d="M60.676 31.4801C60.6677 31.8553 60.6523 32.2295 60.6297 32.6025C60.6239 32.7008 60.6173 32.8 60.6107 32.8992C60.6016 33.0281 60.5908 33.157 60.5801 33.2868C60.4058 35.4003 60.004 37.4888 59.3817 39.5161C59.3593 39.5905 59.3362 39.6657 59.3122 39.7401C58.9558 40.87 58.5332 41.978 58.0469 43.0584C55.9281 47.7811 52.6163 51.8709 48.4373 54.9252C47.9755 55.2641 47.503 55.5897 47.0198 55.9021C45.5816 56.8334 44.066 57.6395 42.4898 58.3113C38.7887 59.8878 34.8071 60.6997 30.7842 60.6982H30.1974C28.9352 60.6418 27.6853 60.4244 26.4782 60.0511C25.903 59.8729 25.3393 59.6592 24.7905 59.4114C24.3261 59.2016 23.873 58.9674 23.4334 58.7097C22.1461 57.9553 20.9805 57.0104 19.9762 55.9071C18.0443 53.8021 16.7715 51.1774 16.3148 48.3571C16.3074 48.3166 16.3008 48.2744 16.295 48.2364C16.2751 48.1108 16.2578 47.9884 16.2421 47.857C16.2421 47.8314 16.2355 47.8058 16.2322 47.7802C16.1318 46.9552 16.1005 46.1234 16.1388 45.2933C16.2021 43.892 16.4648 42.5069 16.919 41.1798C17.0386 40.831 17.1705 40.4886 17.3149 40.1525L17.3744 40.0153C17.457 39.8202 17.5504 39.6268 17.6446 39.4367C18.2503 38.2115 19.0236 37.0766 19.9423 36.0646C19.9894 36.0117 20.0373 35.9597 20.0861 35.9076C20.1349 35.8556 20.2026 35.7836 20.2621 35.7225L20.4035 35.5787C23.1474 32.81 26.878 31.2434 30.776 31.2231L31.6471 31.2181V31.2305C35.0147 31.0514 38.232 29.7784 40.8104 27.6047C40.9167 27.5154 41.0222 27.4245 41.1269 27.3319C41.4338 27.0597 41.7294 26.7763 42.0138 26.4815C42.1113 26.3798 42.2088 26.2773 42.3039 26.1724C42.9874 25.4251 43.5963 24.613 44.1221 23.7474C44.2048 23.6144 44.2874 23.4788 44.361 23.3425C45.6827 21.0163 46.3781 18.3869 46.3793 15.7115C46.3938 11.6889 44.8434 7.81841 42.0559 4.9183L41.1286 3.95048L40.4922 3.28929L38.9822 1.71234L43.032 3.53062C43.3841 3.68931 43.732 3.85461 44.0759 4.02652C44.2737 4.12404 44.4698 4.22377 44.6643 4.32571L44.8908 4.44555L44.9552 4.48026L45.1602 4.59101L45.1734 4.59845L45.271 4.65217C45.304 4.66953 45.3363 4.68771 45.3685 4.70672C45.4511 4.75383 45.5396 4.80177 45.6247 4.85136C45.6655 4.8734 45.706 4.89654 45.7462 4.92078C45.8289 4.96872 45.9115 5.01748 45.9942 5.06707L46.0049 5.07368L46.0834 5.11914L46.0991 5.12906C46.2074 5.1927 46.3148 5.25799 46.4214 5.32328C46.5013 5.37177 46.5815 5.42136 46.662 5.47205C46.7496 5.5266 46.8363 5.58115 46.9231 5.63735C47.0099 5.69355 47.0735 5.73322 47.1479 5.78199C47.2625 5.85637 47.3771 5.93213 47.4918 6.00927C47.5827 6.07043 47.6736 6.13159 47.7637 6.19441C47.9146 6.29799 48.0645 6.40296 48.2133 6.5093C49.8288 7.6693 51.324 8.98837 52.6763 10.4467C55.3011 13.2724 57.3526 16.5805 58.7172 20.1877C59.0749 21.1292 59.3853 22.0881 59.647 23.0606C60.0528 24.5642 60.3394 26.0974 60.504 27.646C60.6437 28.919 60.7011 30.1997 60.676 31.4801Z" fill="#01C063"/>
<path d="M45.6116 15.7478C45.6013 17.9463 45.098 20.1145 44.1388 22.0928C44.071 22.2327 44.0008 22.3705 43.9281 22.506L43.9107 22.5391C43.8404 22.6697 43.7702 22.7986 43.6966 22.9275C43.2441 23.7225 42.7184 24.4734 42.1263 25.1706C42.0569 25.2533 41.9858 25.3359 41.9139 25.4186C41.8883 25.4475 41.8626 25.4764 41.8362 25.5012C41.7676 25.5781 41.6973 25.6541 41.6263 25.7302C41.5072 25.8575 41.3852 25.9831 41.2601 26.107C41.1709 26.1955 41.0808 26.2831 40.9899 26.3682C40.9221 26.4335 40.8527 26.498 40.7832 26.5608C40.7452 26.5955 40.7072 26.6294 40.6692 26.6625C40.6022 26.7228 40.5353 26.7815 40.4675 26.8401C37.8026 29.1376 34.3988 30.3976 30.8802 30.3891H30.7827C28.6657 30.388 26.5708 30.8201 24.627 31.6587C22.6832 32.4973 20.9314 33.7247 19.4796 35.2654C19.3821 35.3687 19.2854 35.4729 19.1911 35.5795C18.4559 36.3999 17.8095 37.2958 17.2629 38.2523C17.1803 38.397 17.0976 38.5424 17.0216 38.6904C15.8358 40.9278 15.2174 43.4222 15.2207 45.9544C15.2207 46.7393 15.2793 47.523 15.3959 48.2992C15.4166 48.4356 15.4389 48.5719 15.4637 48.7075C15.9996 51.7075 17.4083 54.4829 19.5135 56.6864L20.5449 57.7699L21.1285 58.3832L22.5657 59.894L21.0119 59.1923L19.8937 58.6874H19.8862L18.5316 58.0749C16.5746 57.1924 14.7181 56.1021 12.9941 54.8227C11.5171 53.7258 10.1455 52.4937 8.89719 51.1423C6.2773 48.3119 4.2319 44.9998 2.87454 41.3897C1.78937 38.5269 1.15183 35.514 0.984355 32.457C0.940275 31.6707 0.928158 30.882 0.947994 30.0907C0.952953 29.8797 0.960393 29.6692 0.970311 29.4593C1.14118 25.6777 2.03297 21.9635 3.59772 18.5165C5.59839 14.081 8.65375 10.2022 12.4974 7.2184C13.1762 6.6911 13.8787 6.19245 14.6049 5.72246C19.2538 2.71078 24.6497 1.05344 30.1876 0.936238C30.2686 0.936238 30.3496 0.934586 30.4306 0.93128L30.4414 0.90979H30.9794C31.8553 0.91581 32.7289 0.998779 33.5903 1.15774C34.3294 1.29455 35.057 1.48796 35.7664 1.73628C36.261 1.90892 36.7458 2.1084 37.2186 2.33384C37.7058 2.56576 38.1795 2.82487 38.6377 3.10992C39.6328 3.72794 40.5511 4.46175 41.3734 5.29598C42.7355 6.67155 43.8115 8.30354 44.539 10.0976C45.2664 11.8916 45.631 13.812 45.6116 15.7478Z" fill="#650084"/>
<g opacity="0.2">
<path d="M47.7042 43.9643C47.4851 44.0916 47.2636 44.1991 47.0603 44.2949C46.5107 44.5611 46.2446 44.7082 46.1801 44.9123C46.1099 45.1355 46.1297 45.2975 46.1801 45.6438C46.2545 46.1504 46.357 46.8438 45.976 47.7389L45.9628 47.7695C45.6908 48.4084 45.3181 49.282 45.6074 49.6936C45.6371 49.7357 45.6644 49.7762 45.69 49.8051L45.7933 49.9374L45.8925 49.8018C46.128 49.4803 46.495 48.8101 46.9049 47.4215L47.9794 43.8032L47.7042 43.9643ZM46.6636 47.353C46.3099 48.5464 45.9917 49.1828 45.7908 49.5018C45.6445 49.1712 46.0008 48.3307 46.1975 47.8703L46.2107 47.8389C46.6239 46.8777 46.5115 46.143 46.433 45.6074C46.4091 45.4755 46.3942 45.3421 46.3884 45.2082C46.3884 45.1342 46.3998 45.0606 46.4223 44.99C46.4603 44.8685 46.8711 44.6702 47.1769 44.523C47.2975 44.4644 47.4248 44.4024 47.5587 44.3329L46.6636 47.353Z" fill="white"/>
<path d="M42.489 58.3122C38.7879 59.8887 34.8063 60.7006 30.7834 60.6991H30.1966C28.9343 60.6427 27.6845 60.4253 26.4774 60.052C27.8762 60.2556 29.288 60.3578 30.7016 60.3578C34.3459 60.355 37.9585 59.6806 41.3584 58.3684C41.7192 58.2279 42.116 58.2082 42.489 58.3122Z" fill="white"/>
<path d="M16.3165 48.3571L16.2438 47.8612C16.7568 47.3274 17.1154 46.6645 17.2815 45.943C17.4476 45.2216 17.4148 44.4686 17.1868 43.7642L16.7835 42.5245C16.6979 42.265 16.6979 41.9848 16.7835 41.7253C16.841 41.5487 16.8866 41.3684 16.9198 41.1856C17.0394 40.8368 17.1714 40.4944 17.3157 40.1583L17.3752 40.0211C17.4353 40.6395 17.3667 41.2637 17.1736 41.8542C17.1153 42.0308 17.1153 42.2215 17.1736 42.398L17.5769 43.6378C17.8429 44.4623 17.8655 45.3461 17.6419 46.1831C17.4184 47.0202 16.9582 47.775 16.3165 48.3571Z" fill="white"/>
<path d="M21.0027 59.2007L19.8844 58.6957H19.877L18.5224 58.0833C16.5653 57.2007 14.7088 56.1104 12.9849 54.831L14.0874 49.072L14.566 48.9166C14.7202 48.867 14.8712 48.8076 15.0181 48.739C15.0395 48.8786 15.0619 49.0183 15.0875 49.1572C14.9594 49.2125 14.8288 49.2621 14.6932 49.3068L14.4453 49.3894L13.4271 54.7004L13.4924 54.7492C15.5844 56.2764 17.8701 57.5187 20.2894 58.4436L21.0027 59.2007Z" fill="white"/>
<path d="M16.5314 12.9635C16.4401 13.1828 16.4064 13.4217 16.4335 13.6576C16.4605 13.8936 16.5474 14.1186 16.6859 14.3116L20.0605 19.0383C19.577 19.5019 19.1018 20.1565 18.5794 20.897C18.3315 21.2508 18.0951 21.5847 17.9364 21.7682C17.7948 21.9302 17.6526 22.091 17.5099 22.2508C16.7661 23.0906 15.9942 23.9575 15.4437 25.1229C14.2296 27.6941 14.4767 30.6819 16.0859 32.9217C16.8703 34.0192 17.9498 34.8718 19.1993 35.3805C19.0993 35.4863 19.0001 35.5929 18.9034 35.702C17.6415 35.157 16.5522 34.278 15.7528 33.1597C14.056 30.7992 13.7965 27.6528 15.0743 24.9485C15.6528 23.7286 16.4405 22.8385 17.205 21.9789C17.3482 21.8191 17.4895 21.6593 17.629 21.4995C17.7744 21.3342 18.0149 20.9904 18.2463 20.6607C18.6214 20.1086 19.027 19.578 19.4613 19.0713L19.5282 18.9953L16.3545 14.5496C16.1753 14.3006 16.0627 14.0098 16.0276 13.705C15.9924 13.4002 16.0358 13.0915 16.1537 12.8082L18.5083 7.10041C18.6057 6.86461 18.7517 6.65201 18.9368 6.47654C19.122 6.30107 19.3421 6.16668 19.5828 6.08217L27.8328 3.18945L27.8667 3.17705L29.3238 1.3505L29.0395 1.36703C24.4712 1.64383 20.0294 2.97694 16.0636 5.26146C15.0992 5.81867 14.1668 6.42959 13.2709 7.09132L13.1411 7.18719L13.2643 7.29133C14.0499 7.94755 14.6631 8.78602 15.0503 9.73361C15.4791 10.7792 15.5995 11.9257 15.3973 13.0375C15.195 14.1493 14.6785 15.18 13.9089 16.0075L12.5543 17.4597L9.11939 23.4559C8.99044 23.682 8.81391 23.8774 8.60201 24.0286L6.79282 25.3221L8.05735 27.1784C8.20544 27.3939 8.30421 27.6394 8.34663 27.8974C8.42576 28.3712 8.31349 28.857 8.03451 29.2481C7.75554 29.6391 7.33269 29.9033 6.85894 29.9827C6.13824 30.1025 5.4101 30.2166 4.69601 30.3232C3.45627 30.5075 2.8174 30.5893 2.33472 30.5893C2.04816 30.5992 1.76254 30.5511 1.49501 30.448L1.32062 30.3752V30.5637C1.31566 30.9546 1.32062 31.3505 1.33219 31.7398L1.33714 31.9051L3.91415 31.0678C4.192 30.9786 4.48726 30.9575 4.77496 31.0064C5.06267 31.0554 5.33438 31.1728 5.56713 31.3489L10.9889 35.4706L11.0121 35.4888L13.7634 36.026C14.389 36.1487 14.9814 36.4029 15.5014 36.7716C16.0215 37.1403 16.4573 37.6152 16.7801 38.1649C16.8322 38.2542 16.881 38.3435 16.9264 38.4352C16.8438 38.5831 16.7611 38.7319 16.6785 38.884C16.6066 38.7076 16.522 38.5366 16.4256 38.3724C16.1323 37.8727 15.7363 37.441 15.2637 37.1059C14.7911 36.7708 14.2527 36.5399 13.6841 36.4285L10.8393 35.8731L5.3167 31.6786C5.13673 31.5417 4.92627 31.4504 4.70331 31.4125C4.48036 31.3747 4.25155 31.3914 4.03647 31.4613L0.968531 32.458C0.924452 31.6717 0.912325 30.883 0.932161 30.0918C0.93712 29.8807 0.94456 29.6703 0.954477 29.4603L0.986712 29.4926C1.05477 29.6043 1.13824 29.7058 1.23466 29.7942C1.50244 30.0372 1.76692 30.1785 2.32976 30.1785C2.78433 30.1785 3.43395 30.0959 4.62988 29.9174C5.34976 29.8107 6.0746 29.6959 6.78621 29.5777C7.15192 29.515 7.47798 29.3101 7.69321 29.0079C7.90844 28.7056 7.99538 28.3305 7.93503 27.9644C7.90127 27.765 7.82486 27.5753 7.71105 27.4081L6.22336 25.2212L8.3582 23.6947C8.52173 23.5774 8.65814 23.4263 8.75822 23.2517L12.2171 17.2134L13.6039 15.7257C14.3205 14.9557 14.8014 13.9965 14.9898 12.9616C15.1781 11.9268 15.0661 10.8596 14.6668 9.88651C14.2198 8.8 13.4597 7.87101 12.4832 7.21777C13.162 6.69047 13.8646 6.19182 14.5908 5.72182C19.2397 2.71014 24.6355 1.05281 30.1734 0.935608L28.1072 3.5217L19.7167 6.47062C19.5313 6.5363 19.3619 6.64032 19.2195 6.7759C19.0771 6.91147 18.9649 7.07556 18.8902 7.25744L16.5314 12.9635Z" fill="white"/>
<path d="M40.9889 26.3716C40.9212 26.4369 40.8518 26.5013 40.7823 26.5642C40.7443 26.5989 40.7063 26.6327 40.6683 26.6658C40.5377 26.3658 40.4071 26.0245 40.2691 25.6682C39.8013 24.4583 39.2715 23.0871 38.3607 22.1226C37.5342 21.2449 36.0011 20.83 34.6481 20.4638C34.2018 20.3432 33.7803 20.2291 33.5059 20.1274C33.2985 20.0506 33.0758 20.0243 32.8563 20.0506C32.8045 20.0564 32.7531 20.0655 32.7025 20.0778C32.0331 20.2349 31.6116 20.4084 31.2975 20.6638C31.1505 20.7852 31.0243 20.9298 30.9239 21.092C30.9033 21.1258 30.8834 21.1622 30.8636 21.2002C30.795 21.1647 30.7239 21.1258 30.6504 21.0845C30.2685 20.868 29.8396 20.5837 29.542 20.3845C29.5927 20.142 29.5966 19.892 29.5536 19.6481C29.5318 19.5244 29.4981 19.4032 29.4528 19.2861C29.4354 19.2423 29.4181 19.2034 29.3999 19.1637C29.1668 18.6678 28.7693 18.3422 28.318 18.1265C27.3262 17.6496 26.0683 17.7133 25.7377 17.7447C25.4749 17.767 25.1426 17.7785 24.7897 17.7901C24.3013 17.8083 23.7549 17.8281 23.2053 17.8802C23.4375 17.3013 23.8375 16.805 24.3538 16.4551C24.8701 16.1052 25.4793 15.9176 26.103 15.9165H26.827C26.8823 15.9165 26.9375 15.9129 26.9923 15.9057C27.177 15.8837 27.3552 15.8243 27.5163 15.7313C27.7301 15.609 27.9079 15.4324 28.0315 15.2194C28.1552 15.0063 28.2204 14.7644 28.2205 14.518C28.2194 14.147 28.0716 13.7914 27.8092 13.5289C27.5469 13.2665 27.1915 13.1184 26.8204 13.1171H26.0964C25.1201 13.1218 24.1599 13.3658 23.2998 13.8278C22.4397 14.2897 21.7061 14.9555 21.1631 15.7669L19.4134 13.3163L21.2317 8.90533L29.4139 6.03657C29.6623 5.9491 29.8811 5.7936 30.0454 5.58779L33.5728 1.16357C34.312 1.30038 35.0395 1.4938 35.749 1.74212C35.1429 1.63798 34.5318 1.55285 33.9158 1.48674L33.8464 1.47847L30.3669 5.844C30.1544 6.10966 29.8714 6.31015 29.5503 6.42254L21.5391 9.23262L19.8762 13.2651L21.1639 15.0685L21.2689 14.9453C21.8674 14.2509 22.6075 13.6926 23.4396 13.3077C24.2716 12.9228 25.1764 12.7203 26.0931 12.7138H26.8171C27.297 12.7142 27.7571 12.9051 28.0965 13.2444C28.4358 13.5838 28.6267 14.0439 28.6271 14.5238C28.6274 14.8505 28.5385 15.1712 28.3701 15.4511C28.226 15.6926 28.0277 15.8971 27.7908 16.0486C27.554 16.2001 27.2851 16.2943 27.0055 16.3239C26.9436 16.3297 26.8807 16.333 26.8171 16.333H26.0931C25.7212 16.3338 25.3533 16.4108 25.0122 16.559C24.6711 16.7073 24.3639 16.9237 24.1095 17.195L23.8971 17.4232L24.2079 17.4091C24.388 17.4008 24.5633 17.3951 24.7319 17.3893H24.7633C25.1096 17.3769 25.4377 17.3653 25.6906 17.3438C26.0782 17.3116 27.6204 17.2331 28.7569 17.9141C28.9934 18.0534 29.2065 18.2291 29.3883 18.4348C29.504 18.565 29.6046 18.7077 29.6883 18.8604C29.7123 18.9042 29.7354 18.9497 29.7577 18.996C29.829 19.144 29.8844 19.2991 29.923 19.4588C29.9488 19.5676 29.9665 19.6781 29.9759 19.7894C29.9862 19.8993 29.9881 20.0098 29.9817 20.12L29.9768 20.1936L30.0379 20.2332C30.2644 20.382 30.4578 20.5043 30.6297 20.6076L30.6727 20.6332L30.7198 20.6622L30.7892 20.5795C30.8432 20.5182 30.9009 20.4603 30.962 20.406L31.033 20.3456C31.3711 20.0754 31.7951 19.8844 32.4306 19.7225L32.6025 19.6803C32.6715 19.6641 32.7413 19.652 32.8116 19.6439C32.9052 19.6332 32.9994 19.6299 33.0935 19.634C33.2814 19.6416 33.4669 19.679 33.6431 19.7448C33.8133 19.8076 34.0563 19.8795 34.3208 19.953C34.4605 19.9919 34.606 20.0307 34.7498 20.0696C34.9275 20.1175 35.1085 20.1663 35.2903 20.2175C36.5466 20.5679 37.8615 21.0035 38.6541 21.8416C39.6203 22.8664 40.1649 24.2773 40.6476 25.5253C40.7674 25.8228 40.8799 26.1121 40.9889 26.3716Z" fill="white"/>
<path d="M46.2537 34.6943C45.6512 35.5679 44.8916 36.2746 44.1569 36.9589C42.5138 38.4888 42.0799 39.0731 42.3667 39.9988C42.8312 41.4972 43.3585 43.1956 41.4526 45.2685C41.3576 45.3718 41.2617 45.4734 41.1658 45.5759C40.6831 46.09 40.5955 46.1834 40.422 46.7248C40.112 47.7 39.626 48.248 39.2707 48.648C39.1372 48.7865 39.0179 48.9379 38.9144 49.1001L38.9087 49.1108C38.8676 49.2382 38.8366 49.3687 38.8161 49.5009C38.7111 50.0216 38.5533 50.8093 37.9169 51.5911C37.6689 51.8961 35.4143 54.5731 32.8695 54.5731C32.4098 54.5752 31.9551 54.4782 31.5364 54.2888C30.7032 53.9103 29.766 53.0656 28.561 49.4836C28.4287 49.0869 28.2163 48.6216 27.9924 48.1273C27.2807 46.557 26.3964 44.6122 27.0353 42.632C27.0683 42.5303 27.1014 42.4278 27.1353 42.3262C27.5006 41.2129 27.6229 40.8385 27.3088 40.0781L27.3014 40.0632C27.1923 39.9108 27.0718 39.7669 26.9411 39.6326C26.5278 39.1781 25.9625 38.5582 25.7402 37.6416C25.6386 37.1847 25.5953 36.7168 25.6112 36.249C25.6112 36.1911 25.6112 36.0655 25.6112 35.9779V35.9151L25.5608 35.8787C25.4484 35.796 25.3079 35.7663 24.3112 36.0126C23.8807 36.1284 23.4431 36.2159 23.0012 36.2746C21.9793 36.3996 20.943 36.3278 19.9481 36.063C19.9952 36.0101 20.0432 35.958 20.0919 35.906C20.1407 35.8539 20.2085 35.782 20.268 35.7208C21.1473 35.9267 22.0558 35.9768 22.9524 35.8688C23.3776 35.811 23.7986 35.726 24.2128 35.6142C25.3236 35.3398 25.5881 35.3398 25.8823 35.6142C26.0228 35.7456 26.0278 35.7506 26.0245 36.2523C26.008 36.6861 26.0475 37.1203 26.1418 37.5441C26.3394 38.359 26.8435 38.9128 27.2469 39.3566C27.4279 39.5549 27.6312 39.7806 27.6857 39.9095C28.0651 40.8186 27.9072 41.2964 27.5279 42.4543C27.494 42.5559 27.4618 42.6576 27.4295 42.7584C26.8386 44.5866 27.651 46.3776 28.3709 47.9653C28.5982 48.4662 28.8139 48.9398 28.9494 49.3555C30.1065 52.7986 30.995 53.5946 31.7083 53.9185C32.0735 54.084 32.4702 54.1686 32.8711 54.1665C34.7836 54.1665 36.7441 52.387 37.5995 51.3349C38.1723 50.6324 38.3119 49.9348 38.4144 49.4232C38.4615 49.1894 38.4971 49.005 38.5615 48.8968C38.6778 48.7107 38.8133 48.5373 38.9657 48.3794C39.3145 47.986 39.7492 47.4959 40.0327 46.6049C40.2327 45.9735 40.3633 45.8305 40.8674 45.2974C40.9625 45.1966 41.0559 45.0957 41.1501 44.9941C42.8948 43.0931 42.4485 41.6518 41.9766 40.1236C41.6088 38.9367 42.2733 38.1582 43.8775 36.6614C44.5958 35.9928 45.3388 35.301 45.9165 34.4646C46.176 34.0893 46.9653 32.9463 46.4678 31.7925C45.9785 30.6594 44.7701 30.4743 43.799 30.3247C43.4816 30.2767 42.8899 30.1858 42.7378 30.0842C41.9857 29.5883 41.5121 28.5444 41.0559 27.5278C41.165 27.4361 41.2741 27.3427 41.3807 27.2485C41.3914 27.2741 41.403 27.3005 41.4154 27.3311L41.4228 27.346C41.8518 28.3047 42.2964 29.2965 42.9419 29.7321L42.9651 29.7453C43.1122 29.804 43.4982 29.8685 43.861 29.9247C44.8181 30.0709 46.2661 30.2924 46.843 31.6338C47.2347 32.5306 47.0356 33.5629 46.2537 34.6943Z" fill="white"/>
<path d="M44.1387 22.0913C44.0709 22.2312 44.0007 22.369 43.9279 22.5045L43.9106 22.5376L42.7345 20.2854V19.1985C42.7341 19.0092 42.6954 18.822 42.6209 18.648C42.5463 18.474 42.4374 18.3169 42.3006 18.1861L39.931 15.9231C39.7872 15.7861 39.6159 15.6813 39.4285 15.6157L37.2953 14.8661C37.1214 14.8038 36.9367 14.7769 36.7522 14.787C36.5677 14.7971 36.3871 14.8439 36.2209 14.9247C36.0547 15.0037 35.9059 15.115 35.7831 15.252C35.6604 15.3891 35.5662 15.5493 35.506 15.7231C35.3845 16.0735 35.4064 16.4576 35.5669 16.7919C35.7274 17.1262 36.0136 17.3834 36.363 17.5075L38.2111 18.1572L39.9302 19.7977V20.6358C39.9303 20.8614 39.9847 21.0836 40.0889 21.2838L42.1212 25.1757C42.0518 25.2584 41.9807 25.341 41.9088 25.4237C41.8832 25.4526 41.8576 25.4815 41.8311 25.5063L39.726 21.473C39.5912 21.2142 39.5206 20.9268 39.5202 20.635V19.9738L37.9929 18.515L36.2267 17.8952C35.7742 17.7354 35.4036 17.4028 35.196 16.9703C34.9884 16.5377 34.9608 16.0405 35.1192 15.5876C35.1975 15.3631 35.3196 15.1563 35.4783 14.9793C35.6371 14.8022 35.8294 14.6584 36.044 14.5561C36.2581 14.4524 36.4906 14.3923 36.7282 14.3792C36.9657 14.3662 37.2034 14.4005 37.4276 14.4801L39.5599 15.2289C39.8024 15.3142 40.0238 15.4503 40.2095 15.6281L42.5799 17.8902C42.7566 18.0595 42.8973 18.2627 42.9936 18.4876C43.0899 18.7126 43.1398 18.9547 43.1403 19.1994V20.1911L44.1387 22.0913Z" fill="white"/>
<path d="M40.9575 2.59503L41.3807 3.20498C47.624 5.60925 52.964 10.1773 56.3609 16.0594C57.5876 18.1856 58.5415 20.4579 59.1999 22.8226L59.2213 22.8986L58.9279 23.1606C58.6451 23.4132 58.4009 23.7058 58.2031 24.0293L58.0651 24.2524L57.7775 23.4631C57.6257 23.0428 57.3989 22.6535 57.108 22.3143L55.5377 20.4787C55.1882 20.0679 54.7536 19.7381 54.2639 19.512C53.7743 19.2859 53.2413 19.1691 52.702 19.1695H50.7804C50.3492 19.1687 49.9259 19.2853 49.5561 19.5069C49.1862 19.7286 48.8837 20.0468 48.6811 20.4274C48.496 20.7714 48.3987 21.1557 48.3978 21.5463C48.397 21.9369 48.4926 22.3216 48.6761 22.6664L48.7266 22.7606L48.6439 22.8259C47.7121 23.5597 46.6885 24.1687 45.5991 24.6376L45.49 24.6847L44.6924 23.1582C44.6098 23.2978 44.5321 23.4367 44.4445 23.5714L45.2958 25.2021C46.7416 24.639 48.0845 23.8412 49.2704 22.8408L49.1381 22.6433C48.9395 22.3467 48.8254 22.0017 48.8082 21.6452C48.7911 21.2887 48.8714 20.9342 49.0406 20.62C49.2081 20.3052 49.4582 20.0419 49.7639 19.8585C50.0697 19.675 50.4197 19.5783 50.7763 19.5786H52.7003C53.1804 19.5784 53.6547 19.6825 54.0905 19.8838C54.5263 20.085 54.9132 20.3785 55.2244 20.744L56.7948 22.5796C57.0535 22.8816 57.2554 23.228 57.3907 23.602L58.0767 25.4889C58.2136 24.7071 58.6092 23.994 59.1999 23.464L59.6569 23.0573C59.3952 22.0847 59.0849 21.1259 58.7271 20.1844C57.3626 16.5772 55.3111 13.2691 52.6863 10.4434C51.3339 8.98506 49.8388 7.666 48.2232 6.50599C48.0745 6.3991 47.9246 6.29413 47.7736 6.1911C47.6835 6.12829 47.5926 6.06713 47.5017 6.00597C47.3876 5.92938 47.273 5.85362 47.1579 5.77868C47.0835 5.72992 47.0083 5.68115 46.9331 5.63404C46.8579 5.58693 46.7595 5.52329 46.6719 5.46875C46.5843 5.4142 46.5116 5.36874 46.4314 5.31998C46.3248 5.25469 46.2173 5.18939 46.1091 5.12575L46.0148 5.07038L46.0041 5.06376C45.9214 5.01417 45.8388 4.96541 45.7561 4.91748C45.7159 4.89323 45.6754 4.87009 45.6346 4.84805C45.552 4.79846 45.4644 4.75052 45.3784 4.70341C45.3462 4.6844 45.314 4.66622 45.2809 4.64887L45.1834 4.59514L45.1702 4.5877L44.9652 4.47696L44.9007 4.44224L44.6743 4.3224C44.4792 4.22047 44.2831 4.12074 44.0858 4.02321L40.9575 2.59503Z" fill="white"/>
<path d="M60.676 31.4801C60.6677 31.8554 60.6523 32.2295 60.6297 32.6025C60.6239 32.7009 60.6173 32.8 60.6107 32.8992C60.6016 33.0282 60.5908 33.1571 60.5801 33.2868C60.3996 35.3995 59.998 37.4873 59.3817 39.5161C59.3594 39.5905 59.3362 39.6657 59.3122 39.7401C58.9558 40.87 58.5333 41.9781 58.0469 43.0585C55.9281 47.7812 52.6163 51.8709 48.4373 54.9252C48.5407 54.558 48.7587 54.2334 49.0596 53.9987C52.76 51.0755 55.7012 47.3031 57.6336 43.0014C59.5732 38.6911 60.4659 33.983 60.2387 29.2618L60.2239 28.961L60.0189 29.1808C59.9825 29.2205 59.9462 29.2635 59.9081 29.2965L59.0816 30.123C58.8942 30.3094 58.6687 30.4529 58.4205 30.5437C58.1971 30.6257 57.9598 30.6625 57.7221 30.652C57.4845 30.6415 57.2513 30.5839 57.0361 30.4826C56.8203 30.3828 56.6265 30.2413 56.4659 30.066C56.3053 29.8908 56.1811 29.6855 56.1005 29.4618L54.3649 24.6798L52.9292 23.0012L52.8937 23.2863C52.8441 23.6858 52.663 24.0574 52.3788 24.3426C50.6299 26.0859 48.5262 27.4325 46.2107 28.2907L45.252 28.6436C44.8389 28.7956 44.3848 28.792 43.9741 28.6337C43.5635 28.4754 43.2245 28.1731 43.0204 27.7832L42.2857 26.3782C42.3857 26.2741 42.4857 26.1691 42.5832 26.0617L43.3841 27.5973C43.5423 27.8981 43.8046 28.131 44.122 28.2527C44.4394 28.3744 44.7902 28.3764 45.109 28.2585L46.0685 27.9047C48.3286 27.0674 50.3819 25.7533 52.0887 24.0516C52.3031 23.8359 52.4417 23.5565 52.4837 23.2553C52.5258 22.9541 52.4689 22.6474 52.3218 22.3813H52.6987C52.7739 22.3812 52.8483 22.3975 52.9167 22.429C52.9851 22.4606 53.0457 22.5066 53.0945 22.5639L54.6649 24.4004C54.7058 24.4475 54.7375 24.5019 54.7583 24.5607L56.4939 29.3197C56.5566 29.4928 56.6531 29.6516 56.7778 29.787C56.9026 29.9224 57.053 30.0316 57.2204 30.1082C57.3874 30.1868 57.5684 30.2314 57.7529 30.2395C57.9373 30.2476 58.1215 30.2189 58.2948 30.1553C58.4869 30.0846 58.6614 29.9733 58.8064 29.8288L59.6329 29.0023C60.0201 28.6133 60.3241 28.1496 60.5264 27.6394C60.6588 28.9151 60.7088 30.198 60.676 31.4801Z" fill="white"/>
</g>
<path d="M28.2931 18.7563C28.3716 19.0103 28.3555 19.2842 28.2478 19.5272C28.1401 19.7703 27.9481 19.9662 27.7072 20.0787L27.4187 19.1555C27.3392 18.8972 27.3569 18.6187 27.4687 18.3726C27.5805 18.1266 27.7785 17.9299 28.0254 17.8199C28.0503 17.9632 28.0851 18.1046 28.1295 18.243L28.2948 18.7513L28.2931 18.7563Z" fill="#01C063"/>
<path d="M29.4503 17.9157L28.5412 18.6472L28.3858 18.1628C28.1912 17.5613 28.2002 16.9124 28.4114 16.3165L29.3776 16.6719L29.4503 17.9157Z" fill="#01C063"/>
<path d="M26.7584 14.523L28.5866 13.9139C28.8355 13.8318 29.1057 13.843 29.347 13.9454C29.5883 14.0477 29.7842 14.2342 29.8982 14.4701L28.0709 15.0776C27.8221 15.1603 27.5516 15.1497 27.3101 15.0476C27.0686 14.9456 26.8725 14.7591 26.7584 14.523Z" fill="#01C063"/>
<path d="M30.3007 14.6445L30.533 15.7363L29.4932 16.4214L28.5171 16.0636C28.5287 16.0379 28.5411 16.0115 28.5543 15.9809C28.7255 15.6406 28.9715 15.3435 29.274 15.1121C29.5765 14.8806 29.9275 14.7207 30.3007 14.6445Z" fill="#01C063"/>
<path d="M30.6239 19.9538L29.1279 20.4687L28.6329 18.9257L29.6114 18.1389L30.7098 18.6885L30.6239 19.9538Z" fill="#01C063"/>
<path d="M30.695 15.957L31.8116 16.5157L31.886 17.762L30.8429 18.4497L29.7255 17.891L29.652 16.6446L30.695 15.957Z" fill="#01C063"/>
<path d="M31.8958 19.777C31.9561 20.0404 31.9176 20.3167 31.7876 20.5536C31.6577 20.7905 31.4453 20.9715 31.1908 21.0622L30.2817 21.3854C30.2267 21.124 30.2685 20.8516 30.3992 20.6188C30.5299 20.3859 30.7408 20.2084 30.9925 20.1192L31.5123 19.9407C31.6434 19.894 31.7715 19.8394 31.8958 19.777Z" fill="#01C063"/>
<path d="M32.0273 17.9959L32.8827 18.553C32.5322 19.0793 32.0181 19.4755 31.4198 19.6803L30.9049 19.8572L30.9875 18.6844L32.0273 17.9959Z" fill="#01C063"/>
<path d="M30.8057 15.7065L30.5727 14.6048C30.6531 14.5965 30.7339 14.5924 30.8148 14.5924C30.9676 14.592 31.1201 14.6061 31.2702 14.6345C31.2752 14.635 31.2801 14.635 31.2851 14.6345C31.5121 14.6781 31.7321 14.7526 31.9388 14.856C32.3801 15.0754 32.7464 15.4205 32.9918 15.8478L31.9488 16.2784L30.8057 15.7065Z" fill="#01C063"/>
<path d="M33.2034 16.3207C33.3086 16.634 33.3505 16.9652 33.3268 17.2949C33.3031 17.6246 33.2143 17.9463 33.0653 18.2414L33.024 18.3183L32.1595 17.7563L32.0859 16.5166L33.1158 16.0917C33.148 16.1636 33.1761 16.2364 33.1984 16.3116L33.2034 16.3207Z" fill="#01C063"/>
<path d="M32.0612 14.6131C31.8842 14.5247 31.6983 14.4554 31.5066 14.4065C31.6747 14.042 31.7968 13.658 31.8702 13.2634C31.8973 13.1122 31.9673 12.9719 32.0717 12.8592C32.1762 12.7466 32.3108 12.6663 32.4595 12.6278C32.649 12.5775 32.8503 12.5981 33.0256 12.6858C33.201 12.7735 33.3382 12.9221 33.4117 13.1039C33.4708 13.2464 33.4874 13.4029 33.4593 13.5546C33.4313 13.7063 33.3599 13.8466 33.2538 13.9585C32.9823 14.2526 32.7493 14.5801 32.5604 14.9329C32.4059 14.8087 32.2386 14.7015 32.0612 14.6131Z" fill="#01C063"/>
<path d="M35.3101 18.8017C35.076 18.8478 34.8332 18.8147 34.62 18.7075C34.4933 18.6443 34.3803 18.5568 34.2875 18.4498C34.1948 18.3429 34.124 18.2187 34.0795 18.0843L33.4712 16.2569C33.7283 16.2068 33.9949 16.2519 34.2213 16.3837C34.4477 16.5155 34.6184 16.7251 34.7018 16.9735L35.3101 18.8017Z" fill="#01C063"/>
<path d="M33.3298 46.1544C33.2153 46.1547 33.1025 46.1832 33.0016 46.2374C32.9007 46.2916 32.8147 46.3698 32.7513 46.4652C32.6018 46.6784 32.5192 46.9313 32.5141 47.1917C32.501 47.4528 32.5664 47.7118 32.7017 47.9355C32.7581 48.0347 32.8382 48.1185 32.9348 48.1794C33.0314 48.2402 33.1416 48.2762 33.2554 48.2843C33.3455 48.2869 33.435 48.2694 33.5174 48.2331C33.6438 48.1758 33.7528 48.0859 33.8332 47.9727C33.983 47.7601 34.0651 47.5072 34.0687 47.2471C34.0842 46.9858 34.019 46.7261 33.8819 46.5032C33.8256 46.4036 33.7454 46.3196 33.6487 46.2585C33.5519 46.1975 33.4415 46.1615 33.3273 46.1536L33.3298 46.1544ZM31.5115 47.3603C31.5651 47.3526 31.6174 47.3376 31.6669 47.3157C31.84 47.2344 31.9777 47.0932 32.0545 46.9181C32.1711 46.6628 32.2077 46.3781 32.1595 46.1015C32.1205 45.8244 31.9993 45.5653 31.8115 45.3577C31.6206 45.1569 31.3892 45.0651 31.1595 45.1015C30.7074 45.1717 30.4156 45.7362 30.5115 46.3602C30.6073 46.9842 31.0479 47.4322 31.5091 47.3603H31.5115ZM30.7677 51.6936C30.9508 51.698 31.1324 51.6609 31.2992 51.5852C31.4659 51.5095 31.6134 51.3971 31.7306 51.2564C31.8533 51.11 32.0085 50.9941 32.1838 50.9181C32.3591 50.8421 32.5497 50.8079 32.7405 50.8183C32.9312 50.8283 33.1215 50.794 33.2968 50.7183C33.4578 50.6481 33.6018 50.5441 33.7191 50.4134C33.843 50.2735 33.9314 50.1058 33.9767 49.9245C34.022 49.7432 34.023 49.5537 33.9794 49.372C33.9194 49.1136 33.7744 48.8829 33.5676 48.7168C33.3607 48.5507 33.1041 48.459 32.8389 48.4562C32.5982 48.4525 32.368 48.3567 32.1959 48.1884C31.924 47.9256 31.4768 47.6694 30.8941 47.9215L30.8817 47.9273C30.4511 48.1182 30.2205 48.5058 30.2007 49.0455C30.1995 49.2901 30.1079 49.5255 29.9437 49.7067C29.7607 49.9018 29.6492 50.1532 29.6276 50.4198C29.606 50.6864 29.6755 50.9525 29.8247 51.1745C29.928 51.33 30.0673 51.4584 30.2307 51.5487C30.3941 51.639 30.5769 51.6887 30.7636 51.6936H30.7677ZM29.6461 49.262C29.5759 49.0109 29.4319 48.7866 29.2329 48.6182C28.7833 48.2256 28.2072 48.1744 27.9196 48.5033C27.632 48.8323 27.7593 49.3968 28.208 49.7893C28.4012 49.9647 28.643 50.0774 28.9015 50.1125C29.0384 50.1314 29.1779 50.1134 29.3056 50.0604C29.3888 50.0256 29.4629 49.9722 29.5222 49.9042C29.594 49.8156 29.6429 49.7107 29.6645 49.5987C29.6861 49.4866 29.6798 49.371 29.6461 49.262ZM29.9098 48.0777C29.9585 48.0569 30.0039 48.0291 30.0445 47.995C30.4065 47.7132 30.3842 47.0793 29.9957 46.5817C29.6073 46.0842 28.9973 45.9114 28.6337 46.1941C28.3494 46.4164 28.3031 46.8553 28.4841 47.2752C28.5362 47.3934 28.6031 47.5045 28.6833 47.6058C29.0271 48.0454 29.5437 48.2314 29.9098 48.0727V48.0777Z" fill="#650084"/>
<path d="M33.5728 37.7118C33.3943 37.7118 33.2238 37.7102 33.0612 37.7069L33.0422 37.7242V37.83L33.0612 37.8465C33.2207 37.8573 33.3158 37.8655 33.3455 37.8721C33.3753 37.8788 33.4034 37.8928 33.41 37.911C33.4208 37.9776 33.4247 38.0452 33.4216 38.1127C33.4216 38.2499 33.4216 38.3606 33.41 38.4366C33.2764 38.4987 33.1308 38.5308 32.9835 38.5309C32.8537 38.5342 32.7249 38.5069 32.6076 38.4512C32.4903 38.3955 32.3877 38.3129 32.3083 38.2102C32.1371 37.9886 32.0493 37.7139 32.0603 37.4341C32.0565 37.2568 32.0923 37.0809 32.1653 36.9192C32.3168 36.5974 32.5923 36.4368 32.9918 36.4374C33.1329 36.4365 33.2729 36.4614 33.405 36.5109C33.5017 36.5448 33.5874 36.6042 33.653 36.6828C33.6621 36.7292 33.6679 36.7761 33.6704 36.8233C33.6704 36.8903 33.677 36.9349 33.677 36.9556L33.6935 36.9729H33.7943L33.8133 36.9556C33.8217 36.7821 33.8458 36.6098 33.8852 36.4407L33.8704 36.4101C33.7553 36.36 33.635 36.3228 33.5117 36.2993C33.3325 36.2602 33.1496 36.2403 32.9662 36.2398C32.7028 36.2303 32.4407 36.2812 32.2 36.3886C31.7592 36.6035 31.5388 36.9644 31.5388 37.4713C31.5388 37.8598 31.6631 38.1667 31.9116 38.392C32.1601 38.6174 32.4854 38.7298 32.8877 38.7292C33.2379 38.7205 33.5837 38.6485 33.9084 38.5168C33.8993 38.4242 33.8952 38.33 33.8952 38.2342C33.8893 38.1201 33.8948 38.0058 33.9117 37.8928C33.9233 37.8631 33.9637 37.8399 34.0332 37.8234L34.0497 37.8044V37.7217L34.0332 37.7044L33.5728 37.7118Z" fill="white"/>
<path d="M35.387 37.073C35.2878 37.1804 35.2035 37.2755 35.1341 37.3557V37.0251L35.0977 37.0027C34.8907 37.0736 34.6764 37.1207 34.4588 37.1432L34.4423 37.1614V37.2556L34.4588 37.273C34.5415 37.273 34.5919 37.2788 34.6051 37.2813C34.6197 37.2819 34.634 37.2861 34.6466 37.2934C34.6593 37.3008 34.67 37.3111 34.6779 37.3234C34.7031 37.4507 34.7117 37.5807 34.7035 37.7102V37.9516C34.7035 38.1169 34.7035 38.2755 34.6911 38.421C34.6911 38.4648 34.677 38.4921 34.6547 38.5036C34.5896 38.523 34.5218 38.5317 34.4539 38.5293L34.4373 38.5458V38.6483L34.4539 38.6656C34.5597 38.6574 34.7126 38.6532 34.9134 38.6532C35.0787 38.6532 35.244 38.6532 35.4052 38.664L35.4225 38.6466V38.5441L35.4052 38.5293C35.3264 38.532 35.2476 38.5234 35.1713 38.5036C35.1588 38.494 35.149 38.4814 35.1428 38.4669C35.1366 38.4525 35.1341 38.4367 35.1357 38.421C35.1283 38.2755 35.1242 38.1615 35.1242 38.0797V37.6854C35.1198 37.6203 35.1376 37.5557 35.1746 37.5019C35.1991 37.4699 35.2308 37.444 35.2671 37.4263C35.3034 37.4087 35.3433 37.3997 35.3837 37.4003C35.427 37.3991 35.4698 37.409 35.5082 37.4291C35.5465 37.4492 35.5791 37.4789 35.6027 37.5152L35.673 37.4929C35.6771 37.43 35.6787 37.3738 35.6804 37.3276L35.692 37.0275C35.6536 37.0134 35.613 37.0066 35.5721 37.0077C35.5042 37.0045 35.4378 37.0279 35.387 37.073Z" fill="white"/>
<path d="M36.806 37.0209C36.5888 37.0329 36.3817 37.1169 36.2176 37.2598C36.0688 37.3755 35.9936 37.5903 35.9936 37.9036C35.9936 38.1675 36.0636 38.3705 36.2035 38.5127C36.2817 38.5868 36.3743 38.644 36.4755 38.6809C36.5768 38.7177 36.6845 38.7333 36.792 38.7268C36.9814 38.7277 37.1669 38.6734 37.3259 38.5706L37.4003 38.4053L37.3598 38.3565C37.2417 38.422 37.1103 38.4598 36.9755 38.4673C36.9016 38.4696 36.8281 38.4552 36.7606 38.4251C36.693 38.395 36.6331 38.3501 36.5854 38.2937C36.4861 38.1789 36.4316 38.0322 36.4316 37.8804H36.6325H36.8308C37.029 37.8857 37.2271 37.8654 37.4201 37.8201L37.4391 37.7961C37.4391 37.7581 37.4391 37.7292 37.4391 37.7135C37.4526 37.5275 37.3933 37.3435 37.2738 37.2002C37.2129 37.1391 37.1397 37.0915 37.0591 37.0605C36.9785 37.0296 36.8922 37.0161 36.806 37.0209ZM36.9994 37.6978C36.9225 37.7082 36.8449 37.7132 36.7672 37.7127C36.6513 37.7152 36.5353 37.7102 36.4201 37.6978V37.6606C36.4201 37.3598 36.5195 37.2093 36.7184 37.2093C36.9069 37.2093 37.0011 37.3609 37.0011 37.6639C37.0003 37.6705 36.9994 37.6821 36.9986 37.6978H36.9994Z" fill="white"/>
<path d="M38.6673 37.0209C38.4822 37.0209 38.2863 37.1005 38.0797 37.2597C37.9298 37.3754 37.8552 37.59 37.8557 37.9035C37.8557 38.1675 37.9257 38.3705 38.0656 38.5127C38.1438 38.5868 38.2363 38.6441 38.3376 38.681C38.4388 38.7178 38.5466 38.7334 38.6541 38.7267C38.8435 38.7275 39.0289 38.6732 39.188 38.5705L39.2624 38.4052L39.2219 38.3565C39.1037 38.4217 38.9724 38.4596 38.8376 38.4672C38.7636 38.4693 38.6901 38.4548 38.6224 38.4248C38.5548 38.3947 38.4947 38.3499 38.4467 38.2937C38.348 38.1785 38.2938 38.032 38.2938 37.8804H38.4938H38.6929C38.8911 37.8856 39.0892 37.8653 39.2822 37.8201L39.3004 37.7961C39.3004 37.7581 39.3004 37.7292 39.3004 37.7135C39.3139 37.5274 39.2546 37.3434 39.1351 37.2002C39.0741 37.1391 39.001 37.0916 38.9204 37.0607C38.8397 37.0298 38.7535 37.0162 38.6673 37.0209ZM38.8616 37.6977C38.7843 37.7082 38.7064 37.7132 38.6285 37.7126C38.5129 37.7152 38.3972 37.7102 38.2822 37.6977V37.6606C38.2822 37.3597 38.3814 37.2093 38.5797 37.2093C38.7687 37.2093 38.8632 37.3608 38.8632 37.6639C38.8632 37.6705 38.8624 37.682 38.8616 37.6977Z" fill="white"/>
<path d="M41.4063 38.5077C41.3936 38.4968 41.3835 38.4832 41.3768 38.4679C41.3701 38.4526 41.3668 38.436 41.3674 38.4193C41.3616 38.373 41.3591 38.2647 41.3591 38.0953C41.3591 38.0366 41.3592 37.9391 41.3658 37.8019C41.3724 37.6647 41.3724 37.587 41.3724 37.568C41.3819 37.4307 41.3436 37.2943 41.2641 37.182C41.2141 37.1262 41.1519 37.0827 41.0824 37.0548C41.0129 37.0268 40.9379 37.0152 40.8633 37.0208C40.7798 37.0198 40.6969 37.0352 40.6194 37.0663L40.3293 37.3084V37.0258L40.293 37.0035C40.086 37.0743 39.8717 37.1215 39.6541 37.144L39.6376 37.1622V37.2564L39.6541 37.2737C39.7367 37.2737 39.7872 37.2795 39.8012 37.282C39.8157 37.2827 39.8299 37.2868 39.8424 37.2942C39.8549 37.3015 39.8655 37.3118 39.8731 37.3242C39.8989 37.4514 39.9075 37.5815 39.8987 37.711V37.9523C39.8987 38.1176 39.8987 38.2763 39.8872 38.4217C39.8872 38.4655 39.8723 38.4928 39.85 38.5044C39.7849 38.5238 39.717 38.5325 39.6491 38.53L39.6326 38.5465V38.649L39.6491 38.6664C39.7549 38.6581 39.9078 38.654 40.1095 38.654C40.2988 38.654 40.4401 38.654 40.5368 38.6647L40.5541 38.6474V38.5449L40.5368 38.5284C40.4153 38.5284 40.3508 38.5052 40.3417 38.4655C40.3209 38.2878 40.3134 38.1088 40.3194 37.93V37.6151C40.322 37.5481 40.3484 37.4842 40.3938 37.4349C40.4233 37.3999 40.4605 37.3721 40.5025 37.3537C40.5445 37.3354 40.5902 37.327 40.636 37.3291C40.8335 37.3291 40.9327 37.4655 40.9327 37.7424V38.073C40.9327 38.2093 40.9228 38.4036 40.9021 38.6515L40.9195 38.6689C41.0699 38.6606 41.1839 38.6565 41.2625 38.6565C41.341 38.6565 41.4525 38.6565 41.5757 38.6689L41.5931 38.6498V38.5507L41.5782 38.5341C41.5197 38.5358 41.4615 38.5268 41.4063 38.5077Z" fill="white"/>
<path d="M44.1544 36.2763L43.8478 36.2813C43.6701 36.2813 43.5345 36.2862 43.4403 36.2862C43.2122 36.2862 43.0433 36.2829 42.9337 36.2763L42.9146 36.2928V36.4044L42.9312 36.4226C42.9973 36.4248 43.0632 36.4306 43.1287 36.4399C43.1434 36.4432 43.1568 36.4509 43.167 36.462C43.1772 36.4731 43.1837 36.487 43.1857 36.5019C43.2054 36.6753 43.2129 36.8499 43.208 37.0243V37.9152C43.2129 38.0897 43.2054 38.2642 43.1857 38.4376C43.1837 38.4525 43.1772 38.4665 43.167 38.4775C43.1568 38.4886 43.1434 38.4963 43.1287 38.4996C43.064 38.5084 42.9989 38.5139 42.9337 38.5161L42.9146 38.5351V38.6475L42.9312 38.6632C43.0361 38.6566 43.2089 38.6525 43.4502 38.6525C43.6651 38.6525 43.8486 38.6525 44.0031 38.6632L44.0197 38.6459V38.5384L44.0015 38.5194C43.8577 38.5111 43.7808 38.5053 43.7701 38.5029C43.7554 38.4996 43.742 38.4919 43.7318 38.4809C43.7216 38.4698 43.715 38.4558 43.713 38.4409C43.6938 38.2675 43.6866 38.0929 43.6916 37.9185V37.0276C43.6853 36.844 43.6902 36.6602 43.7064 36.4771C43.7732 36.4665 43.8405 36.4596 43.9081 36.4565C44.1897 36.4565 44.3307 36.6132 44.3313 36.9268C44.3385 37.0478 44.3021 37.1674 44.2288 37.264C44.1953 37.3035 44.1532 37.3349 44.1059 37.3558C44.0585 37.3767 44.007 37.3865 43.9552 37.3846C43.9112 37.3836 43.8677 37.3755 43.8263 37.3607L43.7907 37.3979C43.8141 37.4364 43.8338 37.4771 43.8494 37.5194C43.9163 37.535 43.9848 37.5431 44.0535 37.5433C44.2494 37.5442 44.439 37.475 44.5883 37.3483C44.6672 37.2819 44.7296 37.1981 44.7703 37.1034C44.8111 37.0086 44.8291 36.9057 44.823 36.8028C44.8259 36.7004 44.8014 36.5991 44.7519 36.5094C44.6619 36.3548 44.4618 36.2763 44.1544 36.2763Z" fill="white"/>
<path d="M46.0809 37.073C45.9817 37.1804 45.8983 37.2755 45.828 37.3557V37.0251L45.7916 37.0027C45.5847 37.0736 45.3704 37.1207 45.1528 37.1432L45.1362 37.1614V37.2556L45.1528 37.273C45.2354 37.273 45.2858 37.2788 45.2999 37.2813C45.3144 37.2819 45.3285 37.2861 45.3411 37.2934C45.3536 37.3008 45.3641 37.3111 45.3718 37.3234C45.3975 37.4506 45.4061 37.5807 45.3974 37.7102V37.9516C45.3974 38.1169 45.3974 38.2755 45.3858 38.421C45.3858 38.4648 45.371 38.4921 45.3486 38.5036C45.2836 38.5231 45.2157 38.5318 45.1478 38.5293L45.1313 38.5458V38.6483L45.1478 38.6656C45.2536 38.6574 45.4065 38.6532 45.6082 38.6532C45.7735 38.6532 45.9388 38.6532 46.1041 38.664L46.1206 38.6466V38.5441L46.1041 38.5293C46.025 38.532 45.946 38.5234 45.8693 38.5036C45.8569 38.494 45.8471 38.4814 45.8408 38.4669C45.8346 38.4525 45.8322 38.4367 45.8338 38.421C45.8264 38.2755 45.8222 38.1615 45.8222 38.0797V37.6854C45.8179 37.6203 45.8356 37.5557 45.8726 37.5019C45.8971 37.4699 45.9288 37.444 45.9651 37.4263C46.0014 37.4087 46.0414 37.3997 46.0817 37.4003C46.125 37.3991 46.1679 37.409 46.2063 37.4291C46.2446 37.4492 46.2771 37.4789 46.3008 37.5152L46.3718 37.4929C46.3718 37.43 46.3768 37.3738 46.3785 37.3276L46.39 37.0275C46.3517 37.0133 46.311 37.0066 46.2702 37.0077C46.2359 37.0056 46.2015 37.0102 46.169 37.0214C46.1365 37.0326 46.1066 37.0502 46.0809 37.073Z" fill="white"/>
<path d="M47.5141 36.9969C47.359 36.9936 47.2052 37.0258 47.0644 37.0911C46.8016 37.2195 46.6702 37.4762 46.6702 37.8614C46.6702 38.1399 46.738 38.3573 46.8735 38.5027C47.0091 38.6482 47.2041 38.7267 47.4636 38.7267C47.6186 38.7297 47.7718 38.6945 47.9099 38.6242C48.1772 38.4837 48.3108 38.2149 48.3108 37.8176C48.3165 37.664 48.2883 37.5111 48.2281 37.3696C48.1108 37.1206 47.8728 36.9963 47.5141 36.9969ZM47.8108 38.2969C47.7678 38.4689 47.6683 38.5548 47.5124 38.5548C47.2617 38.5548 47.1366 38.2961 47.1372 37.7787C47.1372 37.3754 47.2474 37.1737 47.4678 37.1737C47.5272 37.1725 47.5857 37.189 47.6356 37.2213C47.6856 37.2536 47.7247 37.3 47.748 37.3548C47.8091 37.4754 47.8397 37.6762 47.8397 37.9556C47.8436 38.0701 47.8339 38.1847 47.8108 38.2969Z" fill="white"/>
<path d="M50.4225 38.5177C50.4141 38.515 50.4064 38.5106 50.4 38.5045C50.3936 38.4985 50.3886 38.4912 50.3854 38.4829C50.3628 38.3104 50.3556 38.1361 50.3639 37.9623V37.4184C50.3639 36.9341 50.3688 36.5713 50.3787 36.3299C50.3837 36.2233 50.3854 36.1646 50.3854 36.1646L50.3482 36.144C50.1366 36.2135 49.9183 36.2603 49.6969 36.2837L49.6804 36.3027V36.3952L49.6969 36.4134C49.7795 36.4134 49.8341 36.42 49.8514 36.4233C49.8672 36.4243 49.8823 36.43 49.8947 36.4398C49.9071 36.4495 49.9162 36.4628 49.9209 36.4779C49.9421 36.6508 49.9493 36.8253 49.9423 36.9994V37.0936C49.8393 37.044 49.7261 37.0188 49.6118 37.0201C49.5416 37.0175 49.4716 37.0291 49.406 37.054C49.3022 37.1054 49.2036 37.1669 49.1117 37.2374C49.0352 37.2865 48.965 37.3448 48.9026 37.411C48.8031 37.566 48.7553 37.7486 48.7663 37.9325C48.7571 38.1351 48.8197 38.3344 48.9431 38.4953C48.9982 38.5653 49.0689 38.6214 49.1496 38.6591C49.2302 38.6968 49.3186 38.7152 49.4076 38.7127C49.4672 38.7164 49.5268 38.7077 49.5828 38.6871C49.6475 38.6402 49.7085 38.5885 49.7655 38.5325C49.8399 38.4631 49.8986 38.4111 49.9382 38.3772C49.9382 38.5069 49.9382 38.5987 49.9316 38.6532L49.9473 38.6656C50.0903 38.6573 50.2044 38.6532 50.2887 38.6532C50.373 38.6532 50.4771 38.6532 50.587 38.6656L50.6035 38.6482V38.5573L50.587 38.5408C50.5316 38.5381 50.4765 38.5304 50.4225 38.5177ZM49.9423 37.7689C49.9423 38.0141 49.9407 38.1446 49.9374 38.1606C49.9208 38.2212 49.8818 38.2732 49.8283 38.3061C49.7644 38.3548 49.6863 38.3812 49.606 38.3813C49.5634 38.3834 49.5209 38.3765 49.4812 38.3612C49.4415 38.3458 49.4054 38.3222 49.3754 38.292C49.2663 38.1805 49.2101 38.0077 49.2101 37.7755C49.2089 37.6753 49.2214 37.5755 49.2473 37.4788C49.2595 37.4092 49.2967 37.3465 49.352 37.3025C49.4073 37.2585 49.4767 37.2362 49.5473 37.2399C49.6035 37.2393 49.6594 37.2482 49.7126 37.2664C49.8048 37.3073 49.8848 37.3713 49.9448 37.4523L49.9423 37.7689Z" fill="white"/>
<path d="M52.6606 38.5045C52.653 38.5025 52.646 38.4987 52.6402 38.4934C52.6344 38.4881 52.6301 38.4813 52.6276 38.4739C52.6064 38.3409 52.5994 38.2059 52.6069 38.0714V37.5466C52.6069 37.3697 52.6143 37.1978 52.6292 37.0292L52.5937 37.0069C52.3826 37.0792 52.1637 37.1263 51.9416 37.1474L51.9234 37.1656V37.2598L51.9416 37.2771C52.0242 37.2771 52.0763 37.2829 52.0895 37.2854C52.104 37.2856 52.1182 37.2896 52.1307 37.297C52.1432 37.3044 52.1535 37.3149 52.1606 37.3276C52.1853 37.4549 52.1939 37.5849 52.1862 37.7144V38.016C52.1862 38.0293 52.1862 38.064 52.1862 38.1185C52.1835 38.1557 52.1732 38.192 52.156 38.2251C52.1388 38.2582 52.1151 38.2874 52.0862 38.3111C52.022 38.3659 51.94 38.3953 51.8556 38.3937C51.796 38.3959 51.7376 38.3772 51.6903 38.3408C51.6446 38.3021 51.615 38.2475 51.6077 38.1879C51.5942 38.0835 51.589 37.9782 51.592 37.873V37.5424C51.592 37.3838 51.5994 37.2118 51.6143 37.0251L51.5771 37.0027C51.3661 37.0754 51.1472 37.1225 50.925 37.1432L50.9085 37.1614V37.2556L50.925 37.273C51.0076 37.273 51.0597 37.2788 51.0738 37.2813C51.0883 37.2819 51.1024 37.2861 51.1149 37.2934C51.1275 37.3008 51.138 37.3111 51.1457 37.3234C51.1712 37.4507 51.1798 37.5807 51.1713 37.7102V37.9259C51.1713 37.983 51.1713 38.0425 51.1713 38.1045C51.1713 38.1664 51.1713 38.2069 51.1713 38.2259C51.167 38.2912 51.1765 38.3567 51.1992 38.418C51.2218 38.4794 51.2571 38.5353 51.3027 38.5822C51.4014 38.6689 51.5302 38.7135 51.6614 38.7061C51.7413 38.7067 51.8206 38.6924 51.8953 38.664C51.9922 38.5649 52.0946 38.4714 52.2019 38.3838C52.2019 38.4665 52.197 38.5549 52.1879 38.6466L52.2019 38.6607C52.2375 38.6607 52.292 38.6607 52.3672 38.6607C52.4424 38.6607 52.4953 38.6557 52.5325 38.6557C52.5697 38.6557 52.6821 38.6557 52.8507 38.6648L52.8681 38.6475V38.5384L52.8491 38.5218C52.7858 38.522 52.7227 38.5162 52.6606 38.5045Z" fill="white"/>
<path d="M54.2103 38.4706C54.1302 38.4745 54.0504 38.4582 53.9782 38.4232C53.906 38.3883 53.8437 38.3358 53.7971 38.2705C53.6932 38.1138 53.6427 37.9277 53.6533 37.7399C53.6533 37.4308 53.7723 37.2771 54.0103 37.2771C54.1508 37.2771 54.2459 37.3209 54.2954 37.4085C54.308 37.4773 54.3157 37.5469 54.3186 37.6168L54.3359 37.6342H54.4368L54.4533 37.6168C54.4607 37.4854 54.4657 37.4102 54.469 37.3912L54.4872 37.2771C54.5021 37.187 54.5095 37.1349 54.5112 37.1201L54.4938 37.0895C54.3739 37.04 54.2449 37.0166 54.1153 37.0209C54.0312 37.0168 53.9472 37.0283 53.8673 37.0548C53.7537 37.1138 53.6453 37.1824 53.5433 37.2597C53.4849 37.2977 53.4311 37.3424 53.383 37.3928C53.2813 37.5135 53.2301 37.6887 53.2301 37.9201C53.2179 38.1353 53.2889 38.3469 53.4285 38.5111C53.5615 38.6549 53.7524 38.7268 54.007 38.7268C54.165 38.7245 54.32 38.6834 54.4583 38.6069L54.5326 38.4416L54.5004 38.4028C54.4115 38.4508 54.3113 38.4742 54.2103 38.4706Z" fill="white"/>
<path d="M55.6633 38.4086C55.6133 38.411 55.564 38.3955 55.5244 38.3648C55.4905 38.3356 55.4692 38.2944 55.4649 38.2499C55.46 38.2177 55.4583 38.1102 55.4583 37.9268V37.3556H55.8088L55.8253 37.3391L55.8492 37.1424L55.8302 37.1234C55.7418 37.1317 55.636 37.135 55.5137 37.135H55.4583L55.4732 36.844C55.479 36.7341 55.4881 36.6093 55.5021 36.4696L55.4583 36.4366C55.3624 36.4837 55.293 36.5192 55.2368 36.5383C55.1806 36.5573 55.1161 36.5829 55.0318 36.6102C55.0409 36.7168 55.0459 36.8176 55.0459 36.9126V37.1424C55.0091 37.1719 54.9707 37.1995 54.931 37.2251C54.888 37.2523 54.8566 37.2722 54.8368 37.2862L54.8236 37.311V37.3548L54.8418 37.3705H54.9104H54.9996H55.0459V37.7912L55.0401 38.1937C55.0378 38.2747 55.0431 38.3558 55.0558 38.4359C55.0647 38.4858 55.0854 38.5328 55.1162 38.5731C55.1588 38.6207 55.2118 38.6578 55.2712 38.6815C55.3306 38.7052 55.3946 38.7147 55.4583 38.7094C55.5145 38.7093 55.5703 38.7001 55.6236 38.6822C55.6716 38.6309 55.7278 38.5731 55.7939 38.5103C55.8344 38.4722 55.8583 38.4483 55.8666 38.4392L55.8294 38.3788C55.7762 38.3984 55.72 38.4085 55.6633 38.4086Z" fill="white"/>
<path d="M57.3031 37.7853C57.1887 37.7174 57.0615 37.6737 56.9295 37.6572C56.8055 37.6324 56.7229 37.6134 56.6816 37.6002C56.6398 37.5905 56.6027 37.5665 56.5766 37.5324C56.5505 37.4984 56.5371 37.4563 56.5386 37.4134C56.5382 37.3813 56.5455 37.3495 56.5599 37.3207C56.5742 37.292 56.5953 37.2671 56.6212 37.2481C56.6839 37.2032 56.7599 37.1805 56.8369 37.1837C56.8952 37.1802 56.9534 37.1906 57.0069 37.214C57.0603 37.2374 57.1075 37.2732 57.1444 37.3184C57.1579 37.3834 57.1659 37.4495 57.1684 37.5159L57.1865 37.5324H57.2832L57.3014 37.5159C57.3014 37.3856 57.3111 37.2555 57.3304 37.1266L57.3147 37.1002C57.1747 37.0348 57.0211 37.0036 56.8667 37.0093C56.6864 36.9993 56.5085 37.0541 56.365 37.1638C56.3074 37.2113 56.2615 37.2714 56.2308 37.3395C56.2001 37.4076 56.1855 37.4818 56.1881 37.5564C56.1839 37.62 56.1947 37.6837 56.2195 37.7424C56.2443 37.8011 56.2826 37.8532 56.3311 37.8944C56.4445 37.9652 56.5715 38.0111 56.7039 38.0292C56.7808 38.0435 56.8567 38.0629 56.9312 38.087C56.9731 38.1009 57.0092 38.1285 57.0336 38.1654C57.0581 38.2023 57.0694 38.2463 57.0659 38.2903C57.0672 38.3274 57.0598 38.3643 57.0443 38.398C57.0288 38.4318 57.0056 38.4614 56.9766 38.4846C56.908 38.5354 56.8239 38.5608 56.7386 38.5565C56.6659 38.5582 56.5939 38.5425 56.5286 38.5106C56.4632 38.4786 56.4066 38.4314 56.3634 38.373C56.3536 38.2993 56.3486 38.225 56.3485 38.1507L56.3278 38.1325H56.2286L56.2121 38.1507L56.203 38.3631C56.203 38.4201 56.1948 38.5003 56.1848 38.6036L56.203 38.6292C56.3631 38.6926 56.5333 38.7268 56.7055 38.73C56.8976 38.7388 57.0867 38.6803 57.2403 38.5647C57.3062 38.5131 57.359 38.4467 57.3944 38.3709C57.4299 38.2951 57.447 38.212 57.4444 38.1283C57.4497 38.0641 57.4396 37.9995 57.4151 37.9398C57.3905 37.8802 57.3521 37.8273 57.3031 37.7853Z" fill="white"/>
<path d="M14.3428 24.9012L14.2941 24.8582H14.2288C13.218 24.8905 12.637 24.907 12.5006 24.907C12.3642 24.907 11.7948 24.8905 10.7724 24.8582H10.7013L10.6509 24.9086L10.6079 24.9508L10.56 24.9996V25.4384L10.6079 25.4864L10.6509 25.5285L10.6964 25.5748H10.7608C11.308 25.5955 11.4807 25.6219 11.5352 25.636C11.5826 25.6435 11.6276 25.6619 11.6667 25.6897C11.6938 25.748 11.7103 25.8107 11.7154 25.8748C11.7423 26.1622 11.7536 26.4508 11.7493 26.7393L11.7617 27.9171V28.6022C11.2088 28.6221 10.4393 28.632 9.46323 28.632C8.72765 28.632 7.94083 28.6212 7.12177 28.6006V27.9154L7.13417 26.5286C7.13089 26.3077 7.14138 26.0869 7.16558 25.8674C7.1879 25.7021 7.22757 25.6723 7.22757 25.6723C7.30765 25.6327 7.3953 25.6107 7.48461 25.6079C7.63007 25.5922 7.84165 25.5806 8.11522 25.5723H8.17472L8.21936 25.5326L8.26729 25.4905L8.3235 25.4417V24.9896L8.26729 24.9401L8.21936 24.8979L8.16977 24.8549H8.1053C7.09037 24.8872 6.50934 24.9037 6.3771 24.9037C6.24487 24.9037 5.67294 24.8872 4.6547 24.8549H4.5894L4.54064 24.8979L4.49271 24.9401L4.43568 24.9896V25.4417L4.49271 25.4905L4.54064 25.5326L4.58445 25.5715H4.64313C5.18448 25.5922 5.35722 25.6186 5.41177 25.6327C5.46131 25.6399 5.50822 25.6595 5.54814 25.6897C5.57599 25.7456 5.59175 25.8067 5.59442 25.869C5.61095 25.9947 5.62169 26.2823 5.62583 26.736L5.63823 27.9138V30.709L5.63162 31.9818C5.62666 32.5025 5.606 32.7041 5.59029 32.7826C5.58388 32.8382 5.56556 32.8918 5.53657 32.9397C5.48391 32.9678 5.42643 32.9857 5.36713 32.9926C5.12691 33.0263 4.88484 33.0453 4.6423 33.0496H4.59106L4.55056 33.0802L4.5018 33.1165L4.43568 33.1661V33.619L4.48445 33.6678L4.53238 33.7157L4.58362 33.7662H4.6547C5.67294 33.7339 6.2523 33.7174 6.3771 33.7174C6.50191 33.7174 7.08624 33.7339 8.1053 33.7662H8.17638L8.22679 33.7157L8.27556 33.6678L8.3235 33.619V33.1661L8.25737 33.1165L8.20944 33.0802L8.16812 33.0496H8.11605C7.57635 33.0298 7.40526 33.0016 7.35071 32.9859C7.23749 32.9545 7.21187 32.9264 7.21187 32.9256C7.18296 32.8688 7.16607 32.8066 7.16227 32.743C7.13563 32.4578 7.12405 32.1714 7.12757 31.8851L7.12177 30.7081V29.4932C8.18464 29.4717 8.95742 29.461 9.42025 29.461C9.88309 29.461 10.66 29.4717 11.7617 29.494V30.709L11.7493 31.9809C11.7493 32.5016 11.7286 32.7025 11.7113 32.7802C11.7043 32.8387 11.6848 32.895 11.6543 32.9454C11.6024 32.9714 11.5465 32.9884 11.489 32.9959C11.2468 33.0297 11.0028 33.0488 10.7583 33.0529H10.7013L10.6583 33.0901L10.6162 33.1265L10.5583 33.176V33.6157L10.5988 33.6628L10.641 33.7108L10.6931 33.7703H10.7707C11.789 33.7381 12.3708 33.7215 12.4989 33.7215C12.627 33.7215 13.2048 33.7381 14.2271 33.7703H14.299L14.3495 33.7199L14.3974 33.6719L14.4461 33.6232V33.1703L14.38 33.1207L14.3313 33.0843L14.2899 33.0537H14.2387C13.694 33.0339 13.5238 33.0058 13.4709 32.9909C13.3601 32.9595 13.3345 32.9314 13.3337 32.9298C13.3048 32.8729 13.2879 32.8107 13.2841 32.7471C13.2572 32.462 13.2459 32.1756 13.2502 31.8892L13.2378 30.7114V27.9179L13.2502 26.531C13.2502 26.2492 13.2659 26.0261 13.2849 25.8699C13.3039 25.7136 13.3436 25.6773 13.3436 25.6773C13.4237 25.6378 13.5114 25.6158 13.6006 25.6128C13.7461 25.5971 13.9602 25.5855 14.2371 25.5773H14.2966L14.3412 25.5376L14.3891 25.4955L14.4461 25.4467V24.9946L14.3891 24.945L14.3428 24.9012Z" fill="white"/>
<path d="M17.9373 33.1274L17.8943 33.0893H17.8381C17.329 33.0571 17.2265 33.0447 17.2066 33.0406C17.1887 33.0379 17.1722 33.0295 17.1595 33.0166C17.1391 32.989 17.1262 32.9565 17.1223 32.9224C17.1149 32.8901 17.0959 32.7472 17.0744 32.1108C17.0546 31.5182 17.0504 31.3215 17.0504 31.2611V29.8933C17.0504 29.0875 17.0727 28.4155 17.1166 27.8957L17.1248 27.7998L17.0422 27.7452L16.9273 27.6675L16.8554 27.6171L16.7727 27.6502C16.1603 27.8773 15.5216 28.0259 14.8718 28.0924L14.8148 28.099L14.7743 28.1395L14.7263 28.1882L14.6776 28.2362V28.6387L14.733 28.6883L14.7875 28.7362L14.8338 28.7775H14.8958L15.4024 28.7833C15.4815 28.7761 15.5612 28.7842 15.6371 28.8073C15.6421 28.8073 15.6462 28.8122 15.6487 28.8312C15.6553 28.8717 15.6669 28.9908 15.6867 29.3271C15.7024 29.6015 15.7107 29.823 15.7107 29.9759V31.1661C15.7107 31.3884 15.7016 31.7223 15.6834 32.1579C15.6603 32.7232 15.6446 32.8744 15.638 32.9141C15.6347 32.9457 15.6233 32.9759 15.6049 33.0017C15.5901 33.0172 15.5712 33.0281 15.5503 33.0331C15.5338 33.0331 15.4396 33.0513 14.9173 33.0835H14.8602L14.8181 33.1216L14.7635 33.1703L14.7082 33.2191V33.6158L14.7561 33.6637L14.8106 33.7183L14.8635 33.7712L14.9379 33.7662C15.4338 33.7348 15.919 33.7183 16.3768 33.7183C16.8347 33.7183 17.3257 33.7348 17.8224 33.7662L17.905 33.772L17.9587 33.7117L18.0067 33.6571L18.0488 33.61V33.2191L17.9935 33.1703L17.9373 33.1274Z" fill="white"/>
<path d="M16.3239 26.6278C16.4355 26.6295 16.5463 26.6083 16.6495 26.5657C16.7527 26.5231 16.8461 26.4598 16.924 26.3799C17.0034 26.3028 17.0664 26.2104 17.109 26.1082C17.1516 26.0061 17.173 25.8963 17.1719 25.7856C17.1736 25.674 17.1524 25.5632 17.1098 25.4601C17.0672 25.3569 17.0039 25.2635 16.924 25.1856C16.8462 25.1057 16.753 25.0424 16.6499 24.9998C16.5469 24.9572 16.4362 24.936 16.3247 24.9376C16.2137 24.9368 16.1037 24.9583 16.0012 25.0009C15.8986 25.0435 15.8057 25.1063 15.728 25.1856C15.6477 25.2634 15.5842 25.3569 15.5415 25.4602C15.4989 25.5636 15.478 25.6747 15.4801 25.7865C15.4778 25.898 15.4987 26.0089 15.5414 26.112C15.5841 26.2151 15.6476 26.3083 15.728 26.3857C15.8061 26.4638 15.8991 26.5255 16.0015 26.5671C16.1038 26.6087 16.2135 26.6293 16.3239 26.6278Z" fill="white"/>
<path d="M24.4847 28.2519C24.2518 28.0377 23.9772 27.874 23.6781 27.7709C23.3703 27.6716 23.0485 27.6227 22.7251 27.6262C22.1557 27.6262 21.7589 27.7163 21.5118 27.9006C21.3308 28.0362 21.0449 28.28 20.6424 28.6445C20.6531 28.3965 20.6713 28.1164 20.6977 27.818L20.706 27.718L20.6233 27.6643L20.5093 27.5915L20.4374 27.5461L20.3547 27.5775C19.7427 27.8058 19.1038 27.9544 18.4538 28.0197L18.3976 28.0271L18.3571 28.0668L18.3083 28.1155L18.2604 28.1635V28.5668L18.3158 28.6156L18.3703 28.6643L18.4158 28.7048H18.4778L18.9852 28.7106C19.0624 28.7057 19.1398 28.7124 19.215 28.7304C19.2195 28.7329 19.2234 28.7363 19.2266 28.7404C19.2266 28.7536 19.2423 28.823 19.2662 29.1875C19.2836 29.4586 19.2927 29.6999 19.2927 29.9041V34.5324C19.2927 34.7581 19.2836 35.101 19.2654 35.5523C19.2439 36.1077 19.2282 36.2879 19.22 36.3408C19.217 36.3747 19.2056 36.4074 19.1869 36.4358C19.1716 36.4513 19.152 36.462 19.1307 36.4664C19.11 36.4714 19.0059 36.4854 18.4993 36.5177H18.4431L18.4001 36.5557L18.3455 36.6036L18.2902 36.6532V37.0507L18.3389 37.0995L18.3935 37.154L18.4464 37.2069L18.5207 37.202C19.0166 37.1697 19.5001 37.154 19.9597 37.154C20.4192 37.154 20.9027 37.1697 21.3986 37.202L21.4812 37.2069L21.535 37.1466L21.5829 37.0921L21.625 37.0458V36.6548L21.5697 36.6053L21.5151 36.5573L21.4721 36.5193H21.4159C20.9077 36.4871 20.8043 36.4738 20.7837 36.4705C20.7662 36.4673 20.7501 36.459 20.7374 36.4466C20.7171 36.4186 20.7042 36.3859 20.7002 36.3515C20.6928 36.3201 20.6738 36.1771 20.6523 35.5399C20.6324 34.9473 20.6283 34.7514 20.6283 34.6911V33.6621C20.9171 33.7852 21.2243 33.8595 21.5374 33.882L21.7614 33.8878C21.874 33.8858 21.9864 33.8767 22.0978 33.8605C23.5723 33.7382 24.3789 32.5844 24.4574 32.4678C24.5656 32.3299 24.6637 32.1844 24.7508 32.0323C24.9113 31.7605 25.0395 31.4709 25.1327 31.1694C25.2278 30.868 25.2771 30.554 25.279 30.238C25.2859 29.8447 25.2136 29.454 25.0666 29.0891C24.9357 28.7711 24.7372 28.4854 24.4847 28.2519ZM23.8764 30.6363C23.8817 31.0479 23.8021 31.4562 23.6425 31.8356C23.5132 32.1572 23.2918 32.4335 23.0061 32.6298C22.7246 32.8112 22.3955 32.9048 22.0606 32.8984C21.774 32.9011 21.4908 32.836 21.2341 32.7083C21.0157 32.6004 20.8141 32.4612 20.6357 32.2951V30.0206C20.6357 29.9189 20.6357 29.8247 20.6415 29.7412C20.6552 29.6522 20.6888 29.5675 20.7399 29.4933C20.8315 29.3514 20.9467 29.2262 21.0804 29.123C21.2342 28.9939 21.4089 28.8919 21.5969 28.8214C21.7777 28.7547 21.9688 28.7205 22.1614 28.7205C22.478 28.7211 22.7883 28.8089 23.0582 28.9743C23.3305 29.1338 23.5461 29.3745 23.6747 29.6627C23.8112 29.969 23.88 30.3011 23.8764 30.6363Z" fill="white"/>
<path d="M31.919 28.2519C31.6861 28.0377 31.4115 27.874 31.1123 27.7709C30.8046 27.6715 30.4828 27.6227 30.1594 27.6262C29.5899 27.6262 29.1932 27.7163 28.9461 27.9006C28.7651 28.0362 28.4791 28.28 28.0766 28.6445C28.0874 28.3965 28.1064 28.1164 28.132 27.818L28.1411 27.718L28.0584 27.6643L27.9436 27.5915L27.8717 27.5461L27.794 27.5775C27.1819 27.8056 26.543 27.9542 25.893 28.0197L25.8368 28.0271L25.7963 28.0668L25.7476 28.1155L25.6996 28.1635V28.5668L25.755 28.6156L25.8096 28.6643L25.8558 28.7048H25.917L26.4245 28.7106C26.5016 28.7057 26.5791 28.7124 26.6542 28.7304C26.6587 28.7329 26.6627 28.7363 26.6658 28.7404C26.6866 28.8886 26.6999 29.0379 26.7055 29.1875C26.7228 29.4586 26.7319 29.6999 26.7319 29.9041V34.5324C26.7319 34.7581 26.7228 35.101 26.7055 35.5523C26.6832 36.1077 26.6675 36.2879 26.6592 36.3408C26.6562 36.3747 26.6449 36.4074 26.6261 36.4358C26.6108 36.4513 26.5913 36.462 26.5699 36.4664C26.5493 36.4714 26.446 36.4854 25.9393 36.5177H25.8823L25.8393 36.5557L25.7856 36.6036L25.7294 36.6532V37.0507L25.7782 37.0995L25.8327 37.154L25.8856 37.2069L25.96 37.202C26.4559 37.1697 26.9394 37.154 27.3989 37.154C27.8584 37.154 28.3419 37.1697 28.8378 37.202L28.9205 37.2069L28.9742 37.1466L29.0221 37.0921L29.0643 37.0458V36.6548L29.0089 36.6053L28.9544 36.5573L28.9122 36.5193H28.8552C28.3469 36.4871 28.2444 36.4738 28.2229 36.4705C28.2055 36.4673 28.1893 36.459 28.1766 36.4466C28.1563 36.4186 28.1435 36.3859 28.1394 36.3515C28.132 36.3201 28.113 36.1771 28.0915 35.5399C28.0717 34.9473 28.0675 34.7514 28.0675 34.6911V33.6621C28.3564 33.7853 28.6635 33.8598 28.9767 33.8828L29.1998 33.8878C29.3122 33.8858 29.4242 33.8767 29.5354 33.8605C31.0099 33.7382 31.8165 32.5844 31.895 32.4678C32.0033 32.3298 32.1016 32.1842 32.1893 32.0323C32.3491 31.7603 32.477 31.4708 32.5703 31.1694C32.6654 30.868 32.7147 30.554 32.7166 30.238C32.7234 29.8447 32.6512 29.454 32.5041 29.0891C32.3723 28.7708 32.1726 28.4851 31.919 28.2519ZM31.3107 30.6363C31.316 31.0479 31.2364 31.4562 31.0768 31.8356C30.9475 32.1572 30.7261 32.4335 30.4404 32.6298C30.1589 32.8112 29.8297 32.9048 29.4949 32.8984C29.2083 32.9011 28.9251 32.836 28.6684 32.7083C28.4499 32.6004 28.2484 32.4612 28.07 32.2951V30.0206C28.07 29.9189 28.07 29.8247 28.0758 29.7412C28.0895 29.6522 28.1231 29.5675 28.1742 29.4933C28.2661 29.3516 28.3812 29.2264 28.5147 29.123C28.6686 28.9941 28.8433 28.8921 29.0312 28.8214C29.212 28.7547 29.4031 28.7205 29.5957 28.7205C29.9123 28.7211 30.2225 28.8089 30.4925 28.9743C30.7648 29.1338 30.9804 29.3745 31.109 29.6627C31.2454 29.969 31.3142 30.3011 31.3107 30.6363Z" fill="white"/>
<path d="M34.7919 26.6278C34.9035 26.6295 35.0143 26.6084 35.1175 26.5658C35.2207 26.5231 35.3141 26.4599 35.3919 26.3799C35.4715 26.3029 35.5346 26.2105 35.5772 26.1083C35.6198 26.0062 35.6412 25.8963 35.6399 25.7856C35.6416 25.674 35.6205 25.5632 35.5778 25.46C35.5352 25.3569 35.4719 25.2635 35.3919 25.1856C35.314 25.1056 35.2206 25.0424 35.1175 24.9998C35.0143 24.9571 34.9035 24.936 34.7919 24.9377C34.6809 24.9368 34.5708 24.9583 34.4683 25.0009C34.3658 25.0435 34.2729 25.1063 34.1952 25.1856C34.1148 25.2634 34.0513 25.3569 34.0087 25.4602C33.966 25.5636 33.9451 25.6747 33.9472 25.7865C33.9455 25.8984 33.9671 26.0095 34.0106 26.1127C34.0541 26.2159 34.1187 26.3088 34.2001 26.3857C34.2777 26.4633 34.37 26.5247 34.4716 26.5663C34.5732 26.6079 34.6821 26.6288 34.7919 26.6278Z" fill="white"/>
<path d="M36.4052 33.1274L36.3631 33.0893H36.306C35.7977 33.0571 35.6953 33.0447 35.6746 33.0406C35.6567 33.0379 35.6401 33.0295 35.6275 33.0166C35.607 32.989 35.5942 32.9565 35.5903 32.9224C35.5828 32.8901 35.5638 32.7472 35.5423 32.1108C35.5225 31.5182 35.5184 31.3215 35.5184 31.2611V29.8933C35.5184 29.0875 35.5407 28.4155 35.5845 27.8957L35.5928 27.7998L35.5101 27.7452L35.3952 27.6675L35.3225 27.6171L35.2399 27.6502C34.6275 27.8774 33.9887 28.026 33.3389 28.0924L33.2819 28.099L33.2422 28.1395L33.1935 28.1882L33.1455 28.2362V28.6387L33.2009 28.6883L33.2546 28.7362L33.3009 28.7775H33.3629L33.8704 28.7833C33.9491 28.776 34.0286 28.7841 34.1043 28.8073C34.1092 28.8073 34.1133 28.8122 34.1166 28.8312C34.1224 28.8717 34.134 28.9908 34.1538 29.3271C34.1695 29.6015 34.1778 29.823 34.1778 29.9759V31.1661C34.1778 31.3884 34.1687 31.7223 34.1505 32.1579C34.1274 32.7232 34.1117 32.8744 34.1051 32.9141C34.1018 32.9457 34.0904 32.9759 34.072 33.0017C34.0572 33.0172 34.0383 33.0281 34.0175 33.0331C34.0018 33.0331 33.9067 33.0513 33.3844 33.0835H33.3282L33.2852 33.1216L33.2306 33.1703L33.1753 33.2191V33.6158L33.224 33.6637L33.2778 33.7183L33.3306 33.7712L33.4059 33.7662C33.9018 33.7348 34.3861 33.7183 34.8448 33.7183C35.3035 33.7183 35.7928 33.7348 36.2895 33.7662L36.3721 33.772L36.4259 33.7117L36.4746 33.6571L36.516 33.61V33.2191L36.4606 33.1703L36.4052 33.1274Z" fill="white"/>
<path d="M41.2526 27.9593C40.8415 27.7113 40.3688 27.5844 39.8889 27.5931C39.5294 27.5906 39.1726 27.6563 38.8376 27.7865C38.514 27.9142 38.2084 28.0834 37.9284 28.2899C37.6913 28.4515 37.4817 28.6502 37.3077 28.8783C37.1516 29.1273 37.0332 29.398 36.9565 29.6817C36.8425 30.0691 36.7867 30.4713 36.7912 30.8751C36.7912 31.5363 36.9366 32.1149 37.2226 32.5909C37.4825 33.0438 37.8788 33.403 38.3549 33.6174C38.809 33.8154 39.2993 33.9167 39.7947 33.915C40.1046 33.9097 40.4129 33.8675 40.7129 33.7894C41.1301 33.6716 41.5253 33.4868 41.8832 33.2422L41.9253 33.2158L41.9452 33.1703L42.1386 32.7356L42.1832 32.6356L42.1072 32.5529L42.0113 32.4504L41.9196 32.3537L41.8055 32.4215C41.5524 32.5761 41.2857 32.7072 41.0088 32.8133C40.7673 32.9028 40.5117 32.9484 40.2542 32.948C39.9968 32.9551 39.7407 32.9105 39.5009 32.8168C39.2611 32.7231 39.0426 32.5822 38.8582 32.4025C38.5103 32.0719 38.3177 31.5438 38.2855 30.8446H40.055C40.2063 30.8446 40.5178 30.8346 40.9798 30.814C41.3603 30.8042 41.7394 30.7627 42.113 30.69L42.1601 30.6793L42.1948 30.6454L42.2609 30.5792L42.3022 30.5371L42.3088 30.4792C42.3215 30.3532 42.3279 30.2266 42.3279 30.0999C42.3298 29.6903 42.2494 29.2844 42.0915 28.9064C41.9189 28.51 41.6252 28.1785 41.2526 27.9593ZM40.8955 30.0114C40.8955 30.0321 40.8955 30.0561 40.8955 30.0842C40.7542 30.0924 40.498 30.0999 40.0352 30.0999C39.8029 30.0999 39.4426 30.0916 38.9607 30.0759C38.6053 30.0643 38.402 30.0544 38.2863 30.0478C38.3045 29.4908 38.4268 29.0643 38.65 28.7783C38.8872 28.4758 39.2112 28.3287 39.6418 28.3287C40.0327 28.3287 40.3311 28.4585 40.5509 28.7254C40.7707 28.9924 40.8955 29.4329 40.8955 30.0139V30.0114Z" fill="white"/>
<path d="M49.0481 32.8603C49.01 32.8438 48.8761 32.7661 48.448 32.3843C48.1216 32.095 47.6885 31.6793 47.1595 31.1503C46.7149 30.7057 46.3793 30.3577 46.1595 30.1122L46.6124 29.7436C47.0546 29.3808 47.4389 29.0824 47.7637 28.8634C48.1769 28.5791 48.3282 28.5039 48.3811 28.4832C48.515 28.4416 48.6541 28.4188 48.7943 28.4155H48.8629L48.9084 28.3642L48.9563 28.3097L48.9985 28.2634V27.8964L48.9497 27.8477L48.8952 27.7931L48.8439 27.7419H48.772C48.4927 27.7534 48.3059 27.76 48.2166 27.76C48.1513 27.76 47.9463 27.7534 47.6067 27.7419H47.4835L47.4513 27.8377C47.4182 27.8774 47.286 28.013 46.7967 28.4692C46.3512 28.8824 45.9247 29.2543 45.5289 29.5734C45.3085 29.7508 45.1283 29.8913 44.9883 29.9949V27.4716C44.9883 26.0897 45.0106 25.1574 45.0536 24.7029L45.0635 24.602L44.9809 24.5475L44.866 24.4747L44.7949 24.4301L44.7172 24.4615C44.105 24.6878 43.466 24.8342 42.8163 24.8971L42.7535 24.9045L42.7113 24.9516L42.6634 25.0062L42.6213 25.0533V25.4384L42.67 25.4864L42.7237 25.5409L42.7725 25.5897H42.8411C43.4015 25.5897 43.5106 25.6037 43.5304 25.6079C43.5412 25.6107 43.5517 25.6146 43.5618 25.6194C43.5769 25.6927 43.5869 25.767 43.5916 25.8418C43.6048 26.012 43.618 26.322 43.6296 26.7633L43.6544 28.0419V31.1677C43.6544 31.39 43.6453 31.7239 43.6271 32.1595C43.604 32.7248 43.5882 32.876 43.5808 32.9157C43.5781 32.9473 43.5669 32.9775 43.5486 33.0033C43.5338 33.0188 43.5149 33.0297 43.494 33.0347C43.4775 33.0347 43.3825 33.0529 42.8609 33.0851H42.8039L42.7609 33.1232L42.7072 33.1719L42.6518 33.2207V33.6174L42.6998 33.6653L42.7543 33.7199L42.8072 33.7728L42.8816 33.7678C43.3775 33.7364 43.8626 33.7199 44.3205 33.7199C44.7784 33.7199 45.2685 33.7364 45.7652 33.7678L45.8479 33.7736L45.9016 33.7133L45.9495 33.6587L45.9917 33.6116V33.2207L45.9355 33.1719L45.8818 33.1232L45.8388 33.0851H45.7818C45.2735 33.0529 45.171 33.0405 45.1511 33.0364C45.1329 33.0339 45.1161 33.0255 45.1032 33.0124C45.0836 32.9844 45.0708 32.9521 45.066 32.9182C45.0594 32.886 45.0404 32.743 45.0189 32.1066C45.0032 31.6297 44.9949 31.3437 44.9949 31.2569V30.9164L45.6049 31.4809C45.8785 31.7289 46.1008 31.9404 46.2661 32.1049L46.7975 32.6413L47.243 33.1C47.3595 33.2198 47.624 33.4587 48.0505 33.8282L48.1232 33.891L48.2133 33.8587C48.972 33.5934 49.2464 33.5157 49.3431 33.4967L49.4778 33.4719V32.9099H49.3125C49.2219 32.9117 49.1319 32.8948 49.0481 32.8603Z" fill="white"/>
<path d="M51.1944 26.6278C51.3061 26.6295 51.4169 26.6084 51.52 26.5658C51.6232 26.5231 51.7166 26.4599 51.7945 26.3799C51.874 26.3029 51.9371 26.2105 51.9797 26.1083C52.0223 26.0061 52.0437 25.8963 52.0424 25.7856C52.0441 25.674 52.0229 25.5632 51.9803 25.4601C51.9377 25.3569 51.8744 25.2635 51.7945 25.1856C51.7166 25.1056 51.6232 25.0424 51.52 24.9998C51.4168 24.9571 51.3061 24.936 51.1944 24.9377C51.0836 24.9369 50.9737 24.9585 50.8713 25.0011C50.7689 25.0437 50.6761 25.1064 50.5985 25.1856C50.5174 25.263 50.4532 25.3563 50.4098 25.4597C50.3665 25.5631 50.3449 25.6744 50.3464 25.7865C50.3447 25.8984 50.3663 26.0095 50.4098 26.1127C50.4534 26.2159 50.5179 26.3088 50.5994 26.3857C50.6774 26.4637 50.7702 26.5253 50.8724 26.5669C50.9746 26.6085 51.0841 26.6292 51.1944 26.6278Z" fill="white"/>
<path d="M52.8078 33.1274L52.7656 33.0893H52.7086C52.2003 33.0571 52.0978 33.0447 52.0772 33.0406C52.0592 33.0379 52.0427 33.0295 52.03 33.0166C52.0096 32.989 51.9967 32.9565 51.9928 32.9224C51.9854 32.8901 51.9664 32.7472 51.9457 32.1108C51.9259 31.5182 51.9209 31.3215 51.9209 31.2611V29.8933C51.9209 29.0875 51.9433 28.4155 51.9871 27.8957L51.9953 27.7998L51.9127 27.7452L51.7978 27.6675L51.7251 27.6171L51.6424 27.6502C51.03 27.8774 50.3913 28.026 49.7415 28.0924L49.6853 28.099L49.6448 28.1395L49.596 28.1882L49.5481 28.2362V28.6387L49.6035 28.6883L49.658 28.7362L49.7035 28.7775H49.7655L50.2729 28.7833C50.3517 28.776 50.4312 28.7841 50.5068 28.8073C50.5118 28.8073 50.5159 28.8122 50.5192 28.8312C50.525 28.8717 50.5374 28.9908 50.5564 29.3271C50.5721 29.6015 50.5804 29.823 50.5804 29.9759V31.1661C50.5804 31.3884 50.5713 31.7223 50.5531 32.1579C50.53 32.7232 50.5151 32.8744 50.5076 32.9141C50.5048 32.9458 50.4933 32.9761 50.4746 33.0017C50.46 33.017 50.4414 33.0279 50.4209 33.0331C50.4043 33.0331 50.3093 33.0513 49.7878 33.0835H49.7307L49.6878 33.1216L49.6332 33.1703L49.5778 33.2191V33.6158L49.6266 33.6637L49.6803 33.7183L49.7332 33.7712L49.8084 33.7662C50.3043 33.7348 50.7886 33.7183 51.2474 33.7183C51.7061 33.7183 52.1953 33.7348 52.6921 33.7662L52.7747 33.772L52.8284 33.7117L52.8772 33.6571L52.9185 33.61V33.2191L52.8631 33.1703L52.8078 33.1274Z" fill="white"/>
<path d="M56.146 28.9717C56.3939 28.9717 56.622 28.9717 56.8253 28.9775H56.9014L56.9518 28.9204L56.9997 28.8659L57.0287 28.8337L57.0378 28.7923L57.1526 28.2849L57.1725 28.1964L57.108 28.132L57.0658 28.0898L57.0088 28.0328L56.9262 28.0427C56.5933 28.0711 56.2593 28.0827 55.9253 28.0774C55.76 28.0774 55.5947 28.0774 55.4459 28.0774C55.498 26.9699 55.5435 26.2905 55.5806 26.0558L55.5955 25.9624L55.5236 25.9029L55.379 25.7823L55.2872 25.7054L55.1856 25.7682C54.8721 25.9533 54.5396 26.104 54.1938 26.2178L54.0657 26.2624L54.0847 26.3963C54.0996 26.5071 54.1177 26.8922 54.1186 28.108C53.9045 28.213 53.6326 28.327 53.3086 28.4477L53.2607 28.465L53.2309 28.5072L53.1888 28.5684L53.159 28.6105V28.894L53.2144 28.9436L53.2681 28.9915L53.3202 29.0378L53.3896 29.0328C53.6186 29.0171 53.8243 29.0089 54.0004 29.0089H54.083V31.3478C54.083 31.4156 54.083 31.4834 54.0773 31.5495C54.0607 31.7751 54.0525 32.0553 54.0525 32.376C54.0525 33.3455 54.5798 33.8579 55.5765 33.8579C55.8219 33.8568 56.0642 33.8023 56.2865 33.6984L56.3096 33.6876L56.3286 33.6703C56.7757 33.262 56.9444 33.1231 57.0072 33.0793L57.1378 32.9859L57.0485 32.8521L56.9039 32.6347L56.8154 32.5025L56.6799 32.5851C56.4816 32.7088 56.2523 32.7736 56.0187 32.7719C55.8253 32.7719 55.6831 32.7347 55.5955 32.662C55.5048 32.5838 55.4477 32.4737 55.436 32.3545C55.4031 31.9921 55.3907 31.6282 55.3988 31.2644L55.4327 28.97C55.7203 28.9725 55.9575 28.9717 56.146 28.9717Z" fill="white"/>
</svg>
