<svg width="22" height="25" viewBox="0 0 22 25" fill="none" xmlns="http://www.w3.org/2000/svg">
<path d="M18.26 19.41H18.18C18.102 18.7936 18.2173 18.1681 18.51 17.62C18.61 17.38 18.71 17.14 18.8 16.87C19.23 15.73 19.23 14.18 18.8 11.68L18.52 10.01C18.4758 9.73574 18.3247 9.49018 18.0998 9.32712C17.8748 9.16405 17.5945 9.09678 17.32 9.14001C17.0836 9.15364 16.8523 9.21486 16.64 9.32001C16.5403 9.11878 16.3787 8.95483 16.1789 8.85223C15.9791 8.74964 15.7517 8.71381 15.5301 8.75C15.2945 8.76936 15.0643 8.8303 14.85 8.93C14.7467 8.73182 14.5845 8.57057 14.3857 8.46848C14.1869 8.36638 13.9613 8.32848 13.74 8.36C13.5186 8.37276 13.3015 8.42704 13.1 8.52L12.93 7.52C13.1001 7.53141 13.2707 7.509 13.4321 7.45407C13.5934 7.39915 13.7423 7.3128 13.8701 7.2C13.993 7.0909 14.0913 6.95691 14.1586 6.80692C14.2258 6.65694 14.2604 6.49437 14.26 6.33V1.19C14.26 0.874395 14.1347 0.571717 13.9115 0.348549C13.6883 0.125381 13.3856 0 13.07 0H7.91006C7.59445 0 7.29177 0.125381 7.0686 0.348549C6.84543 0.571717 6.72006 0.874395 6.72006 1.19V6.41C6.72006 6.72561 6.84543 7.02829 7.0686 7.25146C7.29177 7.47463 7.59445 7.60001 7.91006 7.60001H10.39L10.82 11.75C10.82 11.98 10.82 12.98 10.82 13.63C10.82 13.89 10.82 14.1 10.82 14.23L9.01004 13.09C8.75333 12.932 8.46035 12.8426 8.15917 12.8304C7.858 12.8181 7.55873 12.8834 7.29003 13.02L7.00006 13.17C6.82801 13.2632 6.69986 13.4207 6.64364 13.6081C6.58742 13.7955 6.60769 13.9975 6.70004 14.17L6.79003 14.3L11.23 19.36C11.5364 19.7012 11.7439 20.1196 11.83 20.57H11.7501C11.6665 20.5833 11.5863 20.6131 11.5143 20.6576C11.4423 20.7022 11.3799 20.7605 11.3306 20.8294C11.2813 20.8982 11.2461 20.9761 11.2271 21.0586C11.2082 21.1411 11.2058 21.2266 11.2201 21.31L11.6601 23.95C11.6763 24.0365 11.722 24.1148 11.7895 24.1713C11.857 24.2278 11.942 24.2592 12.0301 24.26H12.0901L19.18 23.07C19.2764 23.0506 19.3619 22.9955 19.4193 22.9158C19.4768 22.836 19.5021 22.7376 19.49 22.64L19.05 20C19.0421 19.9072 19.0145 19.8172 18.9693 19.7358C18.924 19.6544 18.862 19.5835 18.7874 19.5278C18.7128 19.4721 18.6272 19.4328 18.5363 19.4125C18.4455 19.3922 18.3513 19.3913 18.26 19.41ZM11.42 14.61C11.4876 14.5054 11.5256 14.3845 11.5301 14.26C11.5301 14.12 11.5301 13.86 11.5301 13.55C11.5689 12.9039 11.5689 12.2561 11.5301 11.61L11.07 7.19L10.99 6.46001C10.9755 6.37912 10.9936 6.29576 11.0405 6.22825C11.0874 6.16074 11.1592 6.11461 11.24 6.10001H11.57C11.6102 6.09136 11.6517 6.09105 11.692 6.09911C11.7323 6.10718 11.7706 6.12343 11.8043 6.14687C11.8381 6.17031 11.8666 6.20044 11.8883 6.23538C11.9099 6.27032 11.9241 6.30934 11.93 6.35001L12.83 11.71C12.8448 11.8067 12.8974 11.8936 12.9761 11.9517C13.0548 12.0098 13.1533 12.0344 13.2501 12.02C13.2992 12.0156 13.347 12.0009 13.39 11.9768C13.4331 11.9526 13.4706 11.9197 13.5001 11.88C13.5301 11.8387 13.5509 11.7915 13.5612 11.7415C13.5716 11.6915 13.5712 11.6398 13.5601 11.59L13.2201 9.59C13.2159 9.51168 13.2398 9.43444 13.2874 9.37213C13.3351 9.30983 13.4034 9.26653 13.48 9.25L13.8101 9.2C13.8906 9.18805 13.9727 9.20724 14.0396 9.25369C14.1065 9.30014 14.1531 9.37035 14.17 9.45L14.5601 11.8C14.58 11.8953 14.6331 11.9803 14.71 12.04C14.7499 12.0692 14.7954 12.0896 14.8436 12.1C14.8919 12.1103 14.9418 12.1103 14.99 12.1C15.0386 12.0929 15.0852 12.0759 15.127 12.05C15.1688 12.0242 15.2048 11.9901 15.2329 11.9498C15.261 11.9095 15.2806 11.8639 15.2904 11.8158C15.3003 11.7677 15.3001 11.7181 15.29 11.67L15.02 10C15.0112 9.96033 15.0111 9.91921 15.0197 9.87949C15.0283 9.83978 15.0455 9.80241 15.07 9.77C15.0922 9.73539 15.1216 9.7059 15.1561 9.68349C15.1905 9.66107 15.2294 9.64626 15.27 9.64001L15.6 9.59C15.6809 9.57544 15.7643 9.59359 15.8318 9.64047C15.8993 9.68735 15.9454 9.75912 15.96 9.84L16.29 11.84C16.3073 11.9363 16.361 12.0223 16.4401 12.08C16.5214 12.1374 16.6213 12.1623 16.7201 12.15C16.8164 12.1306 16.9019 12.0755 16.9593 11.9958C17.0168 11.916 17.0421 11.8175 17.0301 11.72L16.8 10.37C16.7908 10.291 16.8113 10.2114 16.8575 10.1467C16.9037 10.082 16.9723 10.0369 17.05 10.02L17.39 9.97C17.4296 9.96135 17.4706 9.96109 17.5103 9.96925C17.55 9.9774 17.5876 9.99378 17.6205 10.0173C17.6535 10.0409 17.6812 10.0711 17.7018 10.106C17.7224 10.1409 17.7354 10.1797 17.74 10.22L18.0301 11.89C18.4201 14.25 18.4301 15.69 18.0301 16.7C17.9501 16.94 17.85 17.17 17.77 17.39C17.4087 18.0739 17.269 18.8532 17.3701 19.62L12.49 20.41C12.3749 19.8264 12.1056 19.2843 11.71 18.84L7.30004 13.84L7.55004 13.71C7.70206 13.6222 7.87451 13.576 8.05004 13.576C8.22558 13.576 8.39802 13.6222 8.55004 13.71L10.42 14.88C10.5815 14.9789 10.7752 15.0112 10.96 14.97C11.0584 14.9473 11.1505 14.9033 11.23 14.8411C11.3095 14.7789 11.3744 14.7 11.42 14.61ZM10.32 6.8H7.92004C7.81386 6.79622 7.71245 6.75499 7.63375 6.68361C7.55505 6.61223 7.50415 6.51531 7.49005 6.41V1.19C7.49266 1.0724 7.54122 0.960491 7.62533 0.87825C7.70944 0.79601 7.82242 0.749971 7.94006 0.75H13.1C13.2177 0.749971 13.3307 0.79601 13.4148 0.87825C13.4989 0.960491 13.5474 1.0724 13.55 1.19V6.41C13.5474 6.52761 13.4989 6.63952 13.4148 6.72176C13.3307 6.804 13.2177 6.85004 13.1 6.85001H12.8401V6.67001C12.7801 6.27001 12.7101 5.76 12.3401 5.55C12.1751 5.44564 11.9888 5.37977 11.7949 5.35726C11.601 5.33476 11.4045 5.3562 11.2201 5.42001C10.9478 5.46432 10.7039 5.614 10.5411 5.83667C10.3783 6.05934 10.3097 6.33713 10.35 6.61L10.32 6.8ZM18.6501 22.34L12.3 23.41L11.93 21.24L18.29 20.17L18.6501 22.34Z" fill="#650084"/>
<path d="M4.59 4.76025H0.919983C0.799167 4.76025 0.679552 4.78405 0.567932 4.83028C0.456313 4.87652 0.35487 4.94429 0.26944 5.02972C0.18401 5.11515 0.116242 5.21657 0.0700073 5.32819C0.023773 5.43981 0 5.55944 0 5.68025V9.35026C0 9.47107 0.023773 9.5907 0.0700073 9.70232C0.116242 9.81394 0.18401 9.91536 0.26944 10.0008C0.35487 10.0862 0.456313 10.154 0.567932 10.2002C0.679552 10.2465 0.799167 10.2703 0.919983 10.2703H4.59C4.83239 10.2652 5.06345 10.1666 5.23489 9.99515C5.40633 9.82371 5.50487 9.59266 5.50998 9.35026V5.68025C5.50738 5.43706 5.40961 5.20457 5.23764 5.03259C5.06567 4.86062 4.83319 4.76286 4.59 4.76025ZM4.75998 5.68025V9.35026C4.75758 9.39457 4.7389 9.43642 4.70752 9.4678C4.67614 9.49917 4.6343 9.51786 4.59 9.52026H0.919983C0.874896 9.52026 0.831655 9.50235 0.799774 9.47047C0.767893 9.43859 0.75 9.39534 0.75 9.35026V5.68025C0.75 5.63517 0.767893 5.59193 0.799774 5.56005C0.831655 5.52817 0.874896 5.51025 0.919983 5.51025H4.59C4.6343 5.51265 4.67614 5.53134 4.70752 5.56271C4.7389 5.59409 4.75758 5.63594 4.75998 5.68025Z" fill="#650084"/>
<path d="M2.74998 6.46009C2.61191 6.45787 2.47487 6.48427 2.34751 6.53762C2.22015 6.59097 2.10522 6.67013 2.00996 6.77009C1.90999 6.86535 1.83086 6.98028 1.7775 7.10764C1.72415 7.23499 1.69774 7.37202 1.69996 7.51009C1.69864 7.64881 1.72484 7.78643 1.77702 7.91498C1.82919 8.04353 1.90631 8.16046 2.00394 8.25902C2.10158 8.35759 2.21778 8.43582 2.34583 8.48921C2.47388 8.5426 2.61124 8.5701 2.74998 8.57009C3.0303 8.56748 3.29839 8.45496 3.49662 8.25674C3.69485 8.05851 3.80737 7.79041 3.80997 7.51009C3.80734 7.23069 3.69448 6.96364 3.49598 6.76701C3.29748 6.57038 3.02938 6.46008 2.74998 6.46009ZM3.05997 7.46009C3.05997 7.54231 3.02732 7.62115 2.96918 7.67929C2.91105 7.73743 2.83219 7.77009 2.74998 7.77009C2.71052 7.77135 2.67127 7.76395 2.63499 7.7484C2.5987 7.73285 2.56625 7.70952 2.53995 7.68008C2.51026 7.65185 2.48689 7.61765 2.47138 7.57973C2.45587 7.54181 2.44857 7.50104 2.44996 7.46009C2.44996 7.42069 2.45774 7.38168 2.47282 7.34528C2.48789 7.30889 2.50999 7.27581 2.53785 7.24795C2.56571 7.2201 2.59877 7.198 2.63517 7.18292C2.67157 7.16785 2.71058 7.16009 2.74998 7.16009C2.79428 7.15972 2.83813 7.16885 2.87861 7.18687C2.91909 7.20488 2.95525 7.23137 2.98463 7.26453C3.014 7.2977 3.03593 7.33678 3.04893 7.37914C3.06192 7.4215 3.06569 7.46615 3.05997 7.51009V7.46009Z" fill="#650084"/>
<path d="M20.2899 2.04004H16.62C16.376 2.04004 16.142 2.13697 15.9694 2.3095C15.7969 2.48204 15.7 2.71605 15.7 2.96004V6.63004C15.7 6.87404 15.7969 7.10805 15.9694 7.28058C16.142 7.45311 16.376 7.55004 16.62 7.55004H20.2899C20.5322 7.54741 20.7637 7.44932 20.9341 7.27707C21.1044 7.10482 21.2 6.87232 21.2 6.63004V2.96004C21.2 2.71777 21.1044 2.48526 20.9341 2.31301C20.7637 2.14076 20.5322 2.04267 20.2899 2.04004ZM20.46 2.96004V6.63004C20.4576 6.67435 20.4389 6.71621 20.4075 6.74758C20.3761 6.77896 20.3343 6.79764 20.2899 6.80004H16.62C16.5976 6.80004 16.5755 6.79565 16.5549 6.7871C16.5343 6.77856 16.5155 6.76604 16.4998 6.75025C16.484 6.73447 16.4714 6.71572 16.4629 6.6951C16.4543 6.67447 16.45 6.65237 16.45 6.63004V2.96004C16.45 2.93772 16.4543 2.91561 16.4629 2.89499C16.4714 2.87436 16.484 2.85562 16.4998 2.83984C16.5155 2.82405 16.5343 2.81152 16.5549 2.80298C16.5755 2.79444 16.5976 2.79004 16.62 2.79004H20.2899C20.3144 2.78728 20.3391 2.78956 20.3627 2.79673C20.3862 2.8039 20.408 2.81583 20.4268 2.83176C20.4455 2.84769 20.4608 2.86729 20.4716 2.88935C20.4825 2.91142 20.4887 2.93548 20.49 2.96004H20.46Z" fill="#650084"/>
<path d="M12.7 2.29024C12.7001 2.24172 12.6904 2.19369 12.6715 2.14901C12.6526 2.10433 12.6249 2.06393 12.59 2.03024C12.5555 1.99486 12.5143 1.96675 12.4688 1.94755C12.4233 1.92835 12.3744 1.91846 12.325 1.91846C12.2756 1.91846 12.2267 1.92835 12.1812 1.94755C12.1357 1.96675 12.0945 1.99486 12.06 2.03024L10.16 3.93024L9.22 2.99024C9.14906 2.92121 9.05397 2.88259 8.95499 2.88259C8.856 2.88259 8.76094 2.92121 8.69 2.99024C8.6216 3.05949 8.58325 3.1529 8.58325 3.25024C8.58325 3.34757 8.6216 3.44099 8.69 3.51024L9.89999 4.71024C9.93368 4.74515 9.97409 4.77288 10.0188 4.79179C10.0634 4.81069 10.1115 4.82037 10.16 4.82024C10.2085 4.82037 10.2565 4.81069 10.3012 4.79179C10.3459 4.77288 10.3863 4.74515 10.42 4.71024L12.59 2.55024C12.6578 2.48035 12.6971 2.3876 12.7 2.29024Z" fill="#650084"/>
<path d="M18.49 3.74023C18.2248 3.74023 17.9705 3.84559 17.783 4.03313C17.5954 4.22066 17.49 4.47502 17.49 4.74023C17.4872 5.01198 17.5897 5.27427 17.7762 5.47195C17.9627 5.66964 18.2186 5.78731 18.49 5.80023C18.7522 5.78564 18.9997 5.67426 19.1844 5.48766C19.3692 5.30107 19.4781 5.05254 19.49 4.79023C19.4879 4.52092 19.3834 4.26252 19.1977 4.0675C19.0119 3.87248 18.7589 3.75547 18.49 3.74023ZM18.8 4.80023C18.7974 4.8807 18.7636 4.95701 18.7058 5.013C18.6479 5.06899 18.5706 5.10028 18.49 5.10023C18.4498 5.10026 18.41 5.09218 18.3729 5.07648C18.3358 5.06078 18.3023 5.03778 18.2743 5.00886C18.2463 4.97993 18.2244 4.94567 18.21 4.90811C18.1955 4.87055 18.1887 4.83046 18.1901 4.79023C18.1901 4.71066 18.2217 4.63436 18.2779 4.5781C18.3342 4.52184 18.4105 4.49023 18.49 4.49023C18.5308 4.49003 18.5713 4.49786 18.609 4.51331C18.6468 4.52875 18.6811 4.55149 18.7101 4.58023C18.7327 4.6117 18.7487 4.64739 18.7573 4.68517C18.7659 4.72296 18.7668 4.76208 18.76 4.80023H18.8Z" fill="#650084"/>
</svg>
