<svg width="25" height="26" viewBox="0 0 25 26" fill="none" xmlns="http://www.w3.org/2000/svg">
<path d="M23.1006 8.03541C22.6419 8.03815 22.2027 8.22159 21.8783 8.54595C21.554 8.87032 21.3705 9.30947 21.3678 9.76819V13.1607L21.2112 13.0667C20.975 12.9355 20.709 12.8672 20.4388 12.8684C20.1762 12.8669 19.9173 12.9311 19.6858 13.055C19.4543 13.179 19.2574 13.3588 19.1131 13.5782L17.2237 16.4071L16.7957 16.5636C15.8263 16.9056 15.0128 17.5858 14.5046 18.4794C13.9964 19.373 13.8278 20.42 14.0296 21.428L14.1966 22.2108H14.1339C14.0788 22.2481 14.0331 22.2977 14.0005 22.3556C13.9679 22.4136 13.9492 22.4784 13.946 22.5449V25.5303C13.946 25.6438 13.9911 25.7526 14.0714 25.8329C14.1517 25.9132 14.2605 25.9582 14.374 25.9582H20.7102C20.7659 25.9583 20.8211 25.9471 20.8724 25.9255C20.9238 25.9039 20.9702 25.8722 21.0092 25.8323C21.0481 25.7924 21.0786 25.7451 21.099 25.6933C21.1193 25.6414 21.1291 25.586 21.1277 25.5303V22.5449C21.1248 22.4452 21.088 22.3494 21.0233 22.2735L20.9607 22.2108L24.7603 16.5114C24.8046 16.4389 24.8298 16.3563 24.8333 16.2714V9.72644C24.8224 9.27415 24.6351 8.84406 24.3113 8.52807C23.9875 8.21209 23.553 8.03528 23.1006 8.03541ZM20.2926 25.1545H14.7916V23.0146H20.2926V25.1545ZM23.9878 16.1878L20.0943 22.0543V22.1586H15.0734L14.8959 21.2505C14.7307 20.4422 14.8639 19.6014 15.2707 18.8837C15.6775 18.166 16.3305 17.6199 17.1089 17.3465L17.6726 17.1482C17.759 17.1176 17.8325 17.0588 17.8813 16.9812L19.8438 14.0375C19.8975 13.954 19.9675 13.8822 20.0496 13.8263C20.1317 13.7704 20.2241 13.7316 20.3215 13.7121C20.4189 13.6926 20.5191 13.6929 20.6164 13.713C20.7136 13.733 20.8059 13.7724 20.8876 13.8288C20.9738 13.881 21.048 13.9507 21.1056 14.0334C21.1631 14.1161 21.2027 14.21 21.2217 14.3089C21.2425 14.4074 21.2431 14.5091 21.2233 14.6078C21.2036 14.7065 21.164 14.8002 21.1068 14.883L18.8521 18.2651C18.7906 18.3571 18.768 18.4697 18.7895 18.5783C18.7989 18.6332 18.8195 18.6857 18.85 18.7324C18.8806 18.7791 18.9203 18.819 18.9669 18.8497C19.0602 18.9102 19.1734 18.9321 19.2825 18.9106C19.3916 18.8892 19.4881 18.8262 19.5515 18.7348L22.1716 14.7995C22.2127 14.73 22.2344 14.6507 22.2342 14.5699V9.76819C22.2337 9.59124 22.2861 9.41817 22.3846 9.27123C22.4832 9.12428 22.6235 9.01017 22.7874 8.94355C22.8945 8.89731 23.01 8.87345 23.1267 8.87345C23.2433 8.87345 23.3588 8.89731 23.4659 8.94355C23.5738 8.98489 23.6721 9.0479 23.7547 9.12869C23.8372 9.20948 23.9024 9.30634 23.9461 9.41328C23.9953 9.5214 24.0202 9.63897 24.0192 9.75775L23.9878 16.1878Z" fill="#650084"/>
<path d="M10.6266 22.2213L10.7832 21.428C10.9873 20.4198 10.8196 19.3719 10.3111 18.4777C9.80263 17.5836 8.98775 16.9037 8.01699 16.5636L7.58903 16.4175L5.7101 13.5782C5.48981 13.2464 5.15206 13.0103 4.76475 12.9173C4.37745 12.8243 3.96931 12.8815 3.62241 13.0772L3.46584 13.1711V9.77863C3.46584 9.31907 3.28327 8.87832 2.95831 8.55336C2.63335 8.2284 2.19261 8.04584 1.73305 8.04584C1.27349 8.04584 0.832745 8.2284 0.507785 8.55336C0.182825 8.87832 0.000260981 9.31907 0.000260981 9.77863V16.3235C-0.00291277 16.4063 0.0229423 16.4875 0.0733379 16.5532L3.8625 22.263L3.81029 22.3257C3.77524 22.3613 3.74791 22.4038 3.72995 22.4505C3.712 22.4972 3.7038 22.5471 3.7059 22.5971V25.572C3.70451 25.6277 3.71428 25.6831 3.73464 25.735C3.755 25.7869 3.78556 25.8342 3.82447 25.874C3.86338 25.9139 3.90987 25.9456 3.96123 25.9672C4.01258 25.9889 4.06773 26 4.12345 26H10.4596C10.5153 26 10.5705 25.9889 10.6218 25.9672C10.6732 25.9456 10.7197 25.9139 10.7586 25.874C10.7975 25.8342 10.828 25.7869 10.8484 25.735C10.8688 25.6831 10.8785 25.6277 10.8771 25.572V22.5866C10.8751 22.5225 10.858 22.4598 10.8272 22.4036C10.7963 22.3473 10.7527 22.2992 10.6997 22.263L10.6266 22.2213ZM10.0316 25.1545H4.53055V23.0146H10.0316V25.1545ZM9.969 21.2609L9.7811 22.1691H4.77065V22.0856L0.835325 16.1878V9.76819C0.833122 9.53458 0.923165 9.30953 1.08587 9.14188C1.21241 9.01688 1.37321 8.93228 1.5479 8.89883C1.7226 8.86538 1.90332 8.88458 2.06709 8.95399C2.22991 9.02105 2.36876 9.13558 2.46557 9.28266C2.56238 9.42974 2.61266 9.60256 2.60988 9.77863V14.5803C2.61476 14.6618 2.63988 14.7407 2.68295 14.81L5.303 18.7348C5.33147 18.782 5.36945 18.8227 5.41451 18.8543C5.45958 18.886 5.51075 18.9079 5.56476 18.9187C5.61877 18.9295 5.67443 18.929 5.72821 18.9171C5.78199 18.9052 5.83271 18.8822 5.87712 18.8497C5.9685 18.7875 6.03503 18.6951 6.065 18.5887C6.07621 18.535 6.07644 18.4795 6.06567 18.4257C6.05491 18.3719 6.03339 18.3208 6.00238 18.2755L3.74767 14.8517C3.69082 14.7707 3.65131 14.6788 3.63155 14.5818C3.6118 14.4849 3.61224 14.3848 3.63286 14.288C3.64445 14.193 3.67545 14.1013 3.72393 14.0187C3.77241 13.9361 3.83733 13.8643 3.91468 13.8079C3.99837 13.7481 4.09342 13.7062 4.19396 13.6846C4.29451 13.6631 4.39841 13.6624 4.49924 13.6826C4.69817 13.7237 4.87377 13.8395 4.98984 14.0062L6.95228 16.9499C6.9737 16.9906 7.00331 17.0264 7.03923 17.0552C7.07516 17.0839 7.11662 17.1049 7.16105 17.1169L7.71428 17.3152C8.50762 17.5834 9.17518 18.133 9.59066 18.8601C10.0061 19.5872 10.1407 20.4413 9.969 21.2609Z" fill="#650084"/>
<path d="M19.1235 7.97277V3.10845C19.1242 3.02661 19.1008 2.94636 19.0563 2.87769C19.0118 2.80903 18.948 2.75497 18.873 2.72223L12.6099 0.00822615C12.5548 -0.00274205 12.498 -0.00274205 12.4429 0.00822615C12.3878 -0.00274205 12.331 -0.00274205 12.2759 0.00822615L6.0128 2.72223C5.93779 2.75497 5.87405 2.80903 5.8295 2.87769C5.78496 2.94636 5.7616 3.02661 5.76229 3.10845V7.97277C5.74914 8.94272 5.95106 9.90352 6.35355 10.7861C6.75604 11.6687 7.34909 12.4511 8.09006 13.0772L12.1402 16.4592C12.2175 16.5202 12.3131 16.5533 12.4116 16.5533C12.5101 16.5533 12.6056 16.5202 12.683 16.4592L16.7331 13.0772C17.4855 12.4572 18.0904 11.6775 18.5039 10.7945C18.9174 9.91161 19.129 8.9477 19.1235 7.97277ZM16.2008 12.4404L12.4116 15.572L8.62242 12.4404C7.96774 11.8947 7.44129 11.2115 7.08048 10.4394C6.71966 9.66721 6.53332 8.82507 6.53473 7.97277V3.36941H6.59737L12.4116 0.853743L18.2884 3.39029V7.97277C18.2899 8.82507 18.1035 9.66721 17.7427 10.4394C17.3819 11.2115 16.8554 11.8947 16.2008 12.4404Z" fill="#650084"/>
<path d="M14.5202 5.30053L11.6704 8.15023L10.3865 6.87674C10.3471 6.83653 10.3 6.8047 10.248 6.78318C10.1959 6.76165 10.1401 6.75087 10.0838 6.75148C10.0292 6.75168 9.97514 6.76287 9.92493 6.78439C9.87471 6.80591 9.82935 6.83732 9.79153 6.87674C9.75132 6.91614 9.7195 6.96328 9.69797 7.0153C9.67644 7.06732 9.66565 7.12316 9.66626 7.17945C9.66646 7.23408 9.67766 7.28811 9.69918 7.33833C9.7207 7.38854 9.75211 7.43391 9.79153 7.47173L11.3677 9.04794C11.4066 9.08739 11.4529 9.11872 11.504 9.1401C11.555 9.16149 11.6099 9.1725 11.6652 9.1725C11.7206 9.1725 11.7754 9.16149 11.8265 9.1401C11.8776 9.11872 11.9239 9.08739 11.9627 9.04794L15.0943 5.9164C15.1337 5.87754 15.165 5.83124 15.1864 5.78016C15.2078 5.72909 15.2188 5.67427 15.2188 5.6189C15.2188 5.56353 15.2078 5.50871 15.1864 5.45764C15.165 5.40657 15.1337 5.36026 15.0943 5.3214C15.0182 5.24733 14.9173 5.20418 14.8112 5.20032C14.7051 5.19646 14.6014 5.23218 14.5202 5.30053Z" fill="#650084"/>
</svg>
