<svg width="24" height="23" viewBox="0 0 24 23" fill="none" xmlns="http://www.w3.org/2000/svg">
<path d="M18.63 10.1603C18.5327 10.1628 18.44 10.2026 18.3712 10.2714C18.3023 10.3403 18.2625 10.4329 18.26 10.5303V19.3703C18.2613 19.7458 18.1886 20.118 18.0461 20.4655C17.9036 20.813 17.694 21.129 17.4294 21.3955C17.1648 21.662 16.8502 21.8738 16.5037 22.0187C16.1572 22.1637 15.7856 22.239 15.41 22.2403H3.63C2.87669 22.235 2.15585 21.9327 1.6241 21.3991C1.09235 20.8655 0.792609 20.1436 0.789993 19.3903V5.24026C0.789989 4.48612 1.08888 3.76273 1.6212 3.22853C2.15352 2.69434 2.87587 2.39291 3.63 2.39026H11.54C11.6408 2.39026 11.7374 2.35023 11.8087 2.27896C11.88 2.2077 11.92 2.11104 11.92 2.01026C11.9174 1.91122 11.8762 1.81712 11.8052 1.748C11.7342 1.67889 11.6391 1.64023 11.54 1.64026H3.63C3.15473 1.6363 2.68336 1.72649 2.24312 1.90563C1.80288 2.08478 1.40248 2.34932 1.065 2.68401C0.727527 3.01869 0.459661 3.41689 0.276871 3.85563C0.0940807 4.29437 -1.65014e-05 4.76497 2.17051e-09 5.24026V19.3703C-3.67472e-06 20.3233 0.377903 21.2375 1.05087 21.9123C1.72384 22.5872 2.63695 22.9676 3.59 22.9703H15.37C16.324 22.9676 17.2381 22.5875 17.9127 21.9129C18.5872 21.2384 18.9674 20.3242 18.97 19.3703V10.5303C18.9681 10.4378 18.9325 10.3492 18.8699 10.281C18.8073 10.2129 18.722 10.17 18.63 10.1603Z" fill="#650084"/>
<path d="M14.0501 15.8701H8.68004C8.5792 15.8705 8.48245 15.9099 8.41005 15.9801C8.37514 16.0138 8.34739 16.0542 8.32849 16.0989C8.30959 16.1436 8.29992 16.1916 8.30005 16.2401C8.30005 16.3409 8.34008 16.4376 8.41135 16.5088C8.48261 16.5801 8.57926 16.6201 8.68004 16.6201H14.0501C14.0986 16.6202 14.1466 16.6106 14.1913 16.5917C14.236 16.5728 14.2764 16.545 14.31 16.5101C14.3802 16.4377 14.4197 16.341 14.42 16.2401C14.4175 16.1428 14.3777 16.0501 14.3089 15.9813C14.24 15.9124 14.1474 15.8726 14.0501 15.8701Z" fill="#650084"/>
<path d="M14.05 8.61049H8.68004C8.63061 8.60916 8.58144 8.61774 8.53539 8.63573C8.48933 8.65373 8.44735 8.68077 8.41193 8.71526C8.3765 8.74975 8.34835 8.791 8.32913 8.83655C8.30992 8.88211 8.30003 8.93105 8.30005 8.98049C8.30005 9.08127 8.34008 9.17793 8.41135 9.24919C8.48261 9.32045 8.57926 9.36049 8.68004 9.36049H14.05C14.0995 9.36051 14.1484 9.35062 14.194 9.3314C14.2395 9.31219 14.2808 9.28403 14.3153 9.24861C14.3498 9.21319 14.3768 9.17121 14.3948 9.12516C14.4128 9.07911 14.4214 9.02991 14.42 8.98049C14.4214 8.93153 14.4128 8.8828 14.3947 8.83729C14.3766 8.79177 14.3494 8.75042 14.3147 8.71579C14.2801 8.68115 14.2388 8.65395 14.1933 8.63585C14.1477 8.61774 14.099 8.60911 14.05 8.61049Z" fill="#650084"/>
<path d="M14.0501 12.2402H8.68004C8.5792 12.2406 8.48245 12.28 8.41005 12.3502C8.37514 12.3839 8.34739 12.4243 8.32849 12.469C8.30959 12.5137 8.29992 12.5617 8.30005 12.6102C8.30005 12.711 8.34008 12.8077 8.41135 12.8789C8.48261 12.9502 8.57926 12.9902 8.68004 12.9902H14.0501C14.0986 12.9904 14.1466 12.9807 14.1913 12.9618C14.236 12.9429 14.2764 12.9151 14.31 12.8802C14.3802 12.8078 14.4197 12.7111 14.42 12.6102C14.4175 12.5129 14.3777 12.4202 14.3089 12.3514C14.24 12.2826 14.1474 12.2428 14.0501 12.2402Z" fill="#650084"/>
<path d="M5.58 12.2404H5C4.90267 12.2429 4.81001 12.2827 4.74117 12.3515C4.67232 12.4204 4.63253 12.513 4.63 12.6104C4.62997 12.7094 4.66863 12.8046 4.73775 12.8756C4.80686 12.9466 4.90096 12.9878 5 12.9904H5.59C5.63944 12.9904 5.68839 12.9805 5.73395 12.9613C5.7795 12.9421 5.82073 12.9139 5.85522 12.8785C5.88972 12.8431 5.91676 12.8011 5.93475 12.755C5.95275 12.709 5.96134 12.6598 5.96001 12.6104C5.96002 12.5609 5.95012 12.512 5.93091 12.4664C5.91169 12.4209 5.88354 12.3796 5.84811 12.3451C5.81269 12.3106 5.77072 12.2836 5.72467 12.2656C5.67862 12.2476 5.62943 12.239 5.58 12.2404Z" fill="#650084"/>
<path d="M22.53 0.810207C22.0479 0.331288 21.4066 0.0462792 20.7281 0.00940258C20.0495 -0.0274741 19.3811 0.186357 18.85 0.61021L18.63 0.780208L18.41 0.61021C17.9232 0.216308 17.3162 0.00102612 16.69 0.000209155C16.3195 -0.00432682 15.9519 0.0649579 15.6085 0.204028C15.2651 0.343099 14.9529 0.549168 14.69 0.810207C14.1721 1.33108 13.8815 2.03572 13.8815 2.77021C13.8815 3.50469 14.1721 4.20933 14.69 4.73021L17.69 7.73021C17.9387 7.96509 18.2679 8.09593 18.61 8.09593C18.9521 8.09593 19.2812 7.96509 19.53 7.73021L22.53 4.73021C23.0454 4.20806 23.3344 3.5039 23.3344 2.77021C23.3344 2.03652 23.0454 1.33236 22.53 0.810207ZM22 4.24021L19 7.24021C18.949 7.29167 18.8882 7.33235 18.8212 7.35984C18.7542 7.38732 18.6824 7.40106 18.61 7.40021C18.5375 7.40164 18.4655 7.38817 18.3984 7.36065C18.3313 7.33313 18.2706 7.29214 18.22 7.24021L15.22 4.24021C15.0295 4.05394 14.8781 3.8315 14.7748 3.58593C14.6714 3.34037 14.6182 3.07663 14.6182 2.81021C14.6182 2.54378 14.6714 2.28005 14.7748 2.03448C14.8781 1.78891 15.0295 1.56647 15.22 1.38021C15.406 1.19304 15.6273 1.04455 15.871 0.943286C16.1147 0.842025 16.3761 0.790001 16.64 0.79021C16.9039 0.790001 17.1652 0.842025 17.4089 0.943286C17.6526 1.04455 17.8739 1.19304 18.06 1.38021L18.31 1.63021C18.3444 1.66559 18.3857 1.6937 18.4312 1.7129C18.4767 1.7321 18.5256 1.74199 18.575 1.74199C18.6244 1.74199 18.6733 1.7321 18.7188 1.7129C18.7643 1.6937 18.8055 1.66559 18.84 1.63021L19.1 1.38021C19.2922 1.19545 19.5193 1.05099 19.7682 0.955303C20.017 0.859618 20.2825 0.814647 20.5489 0.823032C20.8154 0.831417 21.0775 0.89299 21.3198 1.00413C21.5621 1.11527 21.7798 1.27374 21.96 1.47021C22.3229 1.83747 22.5298 2.33087 22.5372 2.84716C22.5447 3.36345 22.3522 3.86262 22 4.24021Z" fill="#650084"/>
<path d="M5.58 15.8701H5C4.90267 15.8726 4.81001 15.9124 4.74117 15.9813C4.67232 16.0501 4.63253 16.1428 4.63 16.2401C4.62997 16.3392 4.66863 16.4343 4.73775 16.5053C4.80686 16.5763 4.90096 16.6175 5 16.6201H5.59C5.63851 16.6202 5.68655 16.6105 5.73123 16.5916C5.77591 16.5727 5.81632 16.545 5.85001 16.5101C5.894 16.4796 5.93039 16.4393 5.95639 16.3925C5.9824 16.3457 5.99732 16.2936 6 16.2401C6.00049 16.187 5.98953 16.1344 5.9679 16.0859C5.94626 16.0374 5.91445 15.9942 5.8746 15.9591C5.83476 15.924 5.78782 15.8979 5.73698 15.8825C5.68615 15.8671 5.63261 15.8629 5.58 15.8701Z" fill="#650084"/>
<path d="M5 9.36015H5.59C5.63944 9.36017 5.68839 9.35028 5.73395 9.33106C5.7795 9.31184 5.82073 9.28369 5.85522 9.24827C5.88972 9.21284 5.91676 9.17087 5.93475 9.12481C5.95275 9.07876 5.96134 9.02957 5.96001 8.98015C5.96204 8.93137 5.95323 8.88275 5.9342 8.83779C5.91518 8.79283 5.88643 8.75266 5.85001 8.72015C5.8175 8.68373 5.77732 8.65496 5.73236 8.63594C5.6874 8.61692 5.63877 8.60811 5.59 8.61015H5C4.90187 8.61015 4.80776 8.64913 4.73837 8.71852C4.66898 8.78791 4.63 8.88202 4.63 8.98015C4.62997 9.07922 4.66863 9.17439 4.73775 9.24537C4.80686 9.31636 4.90096 9.35754 5 9.36015Z" fill="#650084"/>
</svg>
