<svg width="23" height="26" viewBox="0 0 23 26" fill="none" xmlns="http://www.w3.org/2000/svg">
<path d="M14.4258 21.8064H12.8637V22.6452H14.4258V21.8064Z" fill="#640182"/>
<path d="M17.571 20.2339H16.0089V21.0726H17.571V20.2339Z" fill="#640182"/>
<path d="M14.8557 9.75V3.98387H16.4492V0H7.71613V3.98387H9.2992V9.75L5.90242 15.8097C5.65009 15.7605 5.3941 15.7324 5.13711 15.7258C3.77552 15.7286 2.47049 16.2707 1.5077 17.2335C0.544904 18.1963 0.00277029 19.5013 0 20.8629C0 22.2253 0.541232 23.532 1.50462 24.4954C2.46802 25.4588 3.77466 26 5.13711 26H19.0178C19.5326 25.9966 20.0372 25.8558 20.4795 25.5923C20.9218 25.3287 21.2858 24.952 21.5339 24.5008C21.7885 24.0707 21.9228 23.5801 21.9228 23.0802C21.9228 22.5804 21.7885 22.0898 21.5339 21.6597L14.8557 9.75ZM8.56534 0.838709H15.621V3.14516H8.56534V0.838709ZM10.1484 9.97016V3.98387H14.0274V9.97016L17.7282 16.554C15.8784 16.8908 13.9691 16.6186 12.2871 15.7782C10.7862 15.0225 9.10933 14.6857 7.43308 14.8032L10.1484 9.97016ZM9.44598 20.8629C9.44316 21.8551 9.09468 22.8152 8.46049 23.5782L2.44274 17.5605C3.19093 16.9004 4.14996 16.5287 5.14758 16.5121C5.71521 16.5148 6.27671 16.6297 6.79982 16.8501C7.32292 17.0705 7.79731 17.3921 8.19576 17.7964C8.5942 18.2006 8.90884 18.6797 9.12159 19.2059C9.33434 19.7322 9.44102 20.2953 9.43548 20.8629H9.44598ZM0.849207 20.8629C0.865764 19.8653 1.23748 18.9062 1.89759 18.1581L7.91533 24.1758C7.15232 24.81 6.19216 25.1585 5.20001 25.1613C4.6324 25.1654 4.06957 25.0574 3.54384 24.8434C3.01811 24.6293 2.53986 24.3135 2.13654 23.9141C1.73323 23.5147 1.4128 23.0395 1.19367 22.5159C0.97455 21.9923 0.861051 21.4305 0.859685 20.8629H0.849207ZM20.779 24.0919C20.597 24.4073 20.3359 24.6698 20.0216 24.8537C19.7072 25.0375 19.3504 25.1363 18.9863 25.1403H7.90485C8.62258 24.6762 9.21258 24.0396 9.62097 23.2887C10.0294 22.5379 10.2431 21.6967 10.2427 20.8419C10.2372 19.7646 9.89315 18.7162 9.25912 17.8451C8.62509 16.974 7.73322 16.3243 6.70969 15.9879L6.89839 15.6524C8.60246 15.4338 10.333 15.7295 11.8678 16.5016C13.1952 17.1822 14.6639 17.5413 16.1556 17.55C16.815 17.5441 17.4719 17.4703 18.1161 17.3298L20.8 22.0895C20.9726 22.3958 21.0615 22.742 21.0578 23.0935C21.0541 23.445 20.958 23.7894 20.779 24.0919Z" fill="#640182"/>
<path d="M4.21452 11.3331C4.79105 11.3331 5.34412 11.1048 5.75277 10.6981C6.16142 10.2914 6.3924 9.73943 6.39517 9.1629C6.39517 8.11451 4.86452 5.86048 4.56049 5.40968L4.21452 4.91693L3.86855 5.40968C3.56452 5.86048 2.03387 8.11451 2.03387 9.1629C2.03665 9.73943 2.26762 10.2914 2.67627 10.6981C3.08492 11.1048 3.63799 11.3331 4.21452 11.3331ZM4.21452 6.40564C4.82307 7.23711 5.27758 8.17098 5.55646 9.1629C5.55646 9.33864 5.52169 9.51264 5.45412 9.67486C5.38656 9.83709 5.28753 9.98433 5.16278 10.1081C5.03803 10.2319 4.89003 10.3297 4.72728 10.396C4.56453 10.4623 4.39025 10.4957 4.21452 10.4944C3.86043 10.4944 3.52068 10.3544 3.26932 10.105C3.01795 9.85563 2.87535 9.51698 2.87259 9.1629C3.15147 8.17098 3.60597 7.23711 4.21452 6.40564Z" fill="#640182"/>
<path d="M19.9403 11.3331C20.5159 11.3331 21.0679 11.1044 21.4749 10.6974C21.8819 10.2905 22.1105 9.73846 22.1105 9.1629C22.1105 8.11451 20.5903 5.86048 20.2863 5.40968L19.9403 4.91693L19.5944 5.40968C19.2903 5.86048 17.7597 8.11451 17.7597 9.1629C17.7625 9.73943 17.9934 10.2914 18.4021 10.6981C18.8107 11.1048 19.3638 11.3331 19.9403 11.3331ZM19.9403 6.40564C20.5489 7.23711 21.0034 8.17098 21.2823 9.1629C21.2795 9.51698 21.1369 9.85563 20.8855 10.105C20.6342 10.3544 20.2944 10.4944 19.9403 10.4944C19.7646 10.4957 19.5903 10.4623 19.4276 10.396C19.2648 10.3297 19.1168 10.2319 18.9921 10.1081C18.8673 9.98433 18.7683 9.83709 18.7007 9.67486C18.6332 9.51264 18.5984 9.33864 18.5984 9.1629C18.8773 8.17098 19.3318 7.23711 19.9403 6.40564Z" fill="#640182"/>
</svg>
