<svg width="14" height="12" viewBox="0 0 14 12" fill="none" xmlns="http://www.w3.org/2000/svg">
<path d="M9.47656 0.200195H9.47852C9.94565 0.196878 10.4085 0.291196 10.8369 0.477539C11.2653 0.663881 11.6498 0.938242 11.9658 1.28223L11.9668 1.2832C12.6071 1.96635 12.9803 2.85484 13.0225 3.78613L13.0264 3.97363C12.9926 5.11539 12.5434 6.20604 11.7627 7.04004L11.7607 7.04102C10.7532 8.14282 9.65917 9.16222 8.48926 10.0898L8.48047 10.0986C8.25403 10.3021 8.01301 10.514 7.76074 10.7334L6.97363 11.4141L6.60449 11.7334L6.24512 11.418H6.24609C5.97759 11.1694 5.71331 10.9359 5.46094 10.7158L4.74512 10.0957L4.73828 10.0898L4.30273 9.73828C3.29521 8.90764 2.34718 8.00699 1.4668 7.04199L1.46484 7.04004L1.32227 6.87988C0.67472 6.12149 0.285637 5.17615 0.211914 4.18164L0.201172 3.96777C0.178421 2.98777 0.525926 2.03463 1.17578 1.30078L1.17676 1.30176C1.49222 0.957252 1.87635 0.682443 2.30469 0.496094C2.73302 0.309768 3.196 0.215662 3.66309 0.219727H3.66699C4.27838 0.213112 4.87613 0.387917 5.38574 0.71875L5.59863 0.870117C5.90785 1.11188 6.1808 1.39687 6.4082 1.7168L6.57227 1.94824L6.73438 1.7168C6.95947 1.39673 7.23046 1.11096 7.53809 0.869141C8.09096 0.435092 8.77367 0.199535 9.47656 0.200195Z" fill="#FF0505" stroke="white" stroke-width="0.4"/>
</svg>
