<svg width="45" height="31" viewBox="0 0 45 31" fill="none" xmlns="http://www.w3.org/2000/svg">
<g opacity="0.1">
<path d="M6.15005 19.5524L10.6049 26.9664L9.1178 27.8599L7.22227 24.7053L4.04635 26.6135L5.94187 29.7682L4.45482 30.6617L1.38352e-05 23.2477L1.48707 22.3542L3.31877 25.4027L6.4947 23.4944L4.663 20.4459L6.15005 19.5524Z" fill="#8521A4" fill-opacity="0.4"/>
<path d="M8.86567 19.0483C8.60366 19.2057 8.33522 19.2562 8.06032 19.1997C7.78826 19.1319 7.57777 18.974 7.42885 18.7262C7.27993 18.4783 7.24151 18.2219 7.3136 17.9569C7.38852 17.6806 7.55698 17.4638 7.81898 17.3063C8.08099 17.1489 8.34802 17.1041 8.62009 17.1719C8.89498 17.2284 9.10688 17.3806 9.2558 17.6284C9.40472 17.8763 9.44172 18.1384 9.36681 18.4147C9.29472 18.6797 9.12767 18.8909 8.86567 19.0483ZM10.0198 19.309L13.5556 25.1935L12.0685 26.087L8.53275 20.2025L10.0198 19.309Z" fill="#8521A4" fill-opacity="0.4"/>
<path d="M13.4867 18.3824C13.5162 17.9984 13.6441 17.618 13.8706 17.2409C14.0999 16.8526 14.4305 16.5287 14.8624 16.2691C15.3652 15.967 15.8929 15.8186 16.4454 15.824C17.005 15.825 17.54 15.9855 18.0502 16.3054C18.5633 16.6139 19.0006 17.0691 19.3623 17.671C19.724 18.2729 19.9248 18.8799 19.9649 19.4919C20.0078 20.0926 19.9004 20.6438 19.6429 21.1455C19.3924 21.6429 19.0158 22.0427 18.5131 22.3448C18.0811 22.6043 17.6455 22.7456 17.2064 22.7685C16.7742 22.7872 16.3747 22.7237 16.0076 22.578L18.1967 26.2213L16.7097 27.1148L11.489 18.4262L12.9761 17.5327L13.4867 18.3824ZM17.8434 18.5837C17.6306 18.2296 17.3733 17.9698 17.0715 17.8042C16.7724 17.6273 16.4621 17.5439 16.1405 17.554C15.8259 17.5599 15.5306 17.6458 15.2544 17.8117C14.9853 17.9734 14.773 18.1974 14.6173 18.4837C14.4645 18.7587 14.3924 19.0718 14.4011 19.4232C14.4169 19.7703 14.5312 20.1208 14.744 20.4749C14.9567 20.829 15.2126 21.0945 15.5116 21.2714C15.8178 21.444 16.1302 21.531 16.449 21.5322C16.7706 21.522 17.066 21.4361 17.335 21.2745C17.6112 21.1085 17.8236 20.8845 17.9722 20.6025C18.1278 20.3162 18.1978 19.9995 18.182 19.6524C18.1732 19.3011 18.0604 18.9448 17.8434 18.5837Z" fill="#8521A4" fill-opacity="0.4"/>
<path d="M20.6854 14.0569C20.7149 13.673 20.8429 13.2925 21.0694 12.9155C21.2986 12.5271 21.6292 12.2032 22.0612 11.9437C22.564 11.6416 23.0916 11.4932 23.6442 11.4985C24.2038 11.4996 24.7387 11.66 25.249 11.9799C25.7621 12.2884 26.1994 12.7436 26.5611 13.3455C26.9227 13.9475 27.1236 14.5544 27.1637 15.1664C27.2065 15.7671 27.0992 16.3183 26.8417 16.82C26.5912 17.3175 26.2146 17.7172 25.7118 18.0193C25.2799 18.2789 24.8443 18.4201 24.4051 18.4431C23.973 18.4618 23.5734 18.3983 23.2064 18.2526L25.3955 21.8959L23.9085 22.7894L18.6878 14.1007L20.1748 13.2072L20.6854 14.0569ZM25.0422 14.2582C24.8294 13.9041 24.5721 13.6443 24.2702 13.4788C23.9712 13.3019 23.6608 13.2185 23.3392 13.2286C23.0247 13.2344 22.7294 13.3203 22.4532 13.4863C22.1841 13.648 21.9717 13.872 21.8161 14.1582C21.6632 14.4332 21.5912 14.7463 21.5999 15.0977C21.6157 15.4448 21.73 15.7954 21.9427 16.1494C22.1555 16.5035 22.4114 16.769 22.7104 16.9459C23.0166 17.1186 23.329 17.2055 23.6478 17.2067C23.9694 17.1966 24.2647 17.1107 24.5338 16.949C24.81 16.7831 25.0224 16.5591 25.1709 16.277C25.3266 15.9908 25.3965 15.6741 25.3807 15.327C25.372 14.9756 25.2592 14.6194 25.0422 14.2582Z" fill="#8521A4" fill-opacity="0.4"/>
<path d="M26.2195 8.62108C25.9575 8.7785 25.689 8.82897 25.4141 8.77247C25.1421 8.70464 24.9316 8.5468 24.7827 8.29896C24.6338 8.05111 24.5953 7.7947 24.6674 7.52972C24.7423 7.2534 24.9108 7.03652 25.1728 6.8791C25.4348 6.72167 25.7018 6.67687 25.9739 6.7447C26.2488 6.8012 26.4607 6.95337 26.6096 7.20121C26.7585 7.44905 26.7955 7.71114 26.7206 7.98746C26.6485 8.25244 26.4815 8.46365 26.2195 8.62108ZM27.3736 8.88174L30.9094 14.7662L29.4223 15.6597L25.8866 9.77525L27.3736 8.88174Z" fill="#8521A4" fill-opacity="0.4"/>
<path d="M35.8626 11.7901L32.3594 10.4832L33.8657 12.9899L32.3786 13.8834L27.6557 6.02329L29.1428 5.12978L31.8297 9.60156L32.3056 5.91834L34.2387 4.75677L33.4213 9.26691L37.7957 10.6285L35.8626 11.7901Z" fill="#8521A4" fill-opacity="0.4"/>
<path d="M35.3787 3.11764C35.1167 3.27507 34.8483 3.32554 34.5734 3.26904C34.3013 3.2012 34.0908 3.04337 33.9419 2.79552C33.793 2.54768 33.7546 2.29127 33.8267 2.02628C33.9016 1.74996 34.07 1.53309 34.3321 1.37566C34.5941 1.21823 34.8611 1.17344 35.1332 1.24127C35.408 1.29777 35.62 1.44994 35.7689 1.69778C35.9178 1.94562 35.9548 2.20771 35.8799 2.48402C35.8078 2.74901 35.6407 2.96021 35.3787 3.11764ZM36.5329 3.37831L40.0686 9.2628L38.5816 10.1563L35.0458 4.27182L36.5329 3.37831Z" fill="#8521A4" fill-opacity="0.4"/>
<path d="M40.4674 2.67672L42.1778 5.52337C42.297 5.72164 42.4302 5.83915 42.5776 5.8759C42.7278 5.9013 42.9162 5.84593 43.1428 5.70977L43.8332 5.29493L44.5863 6.54831L43.6516 7.10994C42.3982 7.86305 41.4056 7.63061 40.6738 6.41264L38.9697 3.57662L38.2687 3.99785L37.5347 2.77633L38.2358 2.35511L37.3614 0.899916L38.8591 1.96627e-05L39.7334 1.45521L41.0506 0.663813L41.7845 1.88532L40.4674 2.67672Z" fill="#8521A4" fill-opacity="0.4"/>
</g>
</svg>
