<svg width="233" height="220" viewBox="0 0 233 220" fill="none" xmlns="http://www.w3.org/2000/svg">
<path d="M53.6592 200.875H148.038L148.038 0.450134H53.6592L53.6592 200.875Z" fill="#1C5B7C"/>
<path opacity="0.19" d="M53.6592 200.875H148.038L148.038 0.450134H53.6592L53.6592 200.875Z" stroke="#00A555" stroke-width="0.9" stroke-miterlimit="10"/>
<rect y="200.875" width="232.67" height="0.882812" rx="0.441406" fill="#BABABA"/>
<path d="M63.5702 200.534H139.036L139.036 10.4564H63.5702L63.5702 200.534Z" fill="#0D425D"/>
<path d="M67.7022 10.4561H63.5703V200.533H67.7022V10.4561Z" fill="#0D425D"/>
<path d="M67.7021 10.4561L121.136 15.4152V196.77L67.7021 200.533V10.4561Z" fill="#1C5B7C"/>
<path d="M113.974 28.0888L78.0981 23.5264V183.177L113.974 181.617V28.0888Z" fill="#297197"/>
<path opacity="0.19" d="M148.038 0.449707L139.041 10.4561" stroke="#DBEEF8" stroke-width="0.9" stroke-miterlimit="10"/>
<path opacity="0.19" d="M53.6536 0.449707L63.5702 10.4561" stroke="white" stroke-width="0.9" stroke-miterlimit="10"/>
<path d="M187.952 50.7793C191.924 52.2395 194.701 55.2536 197.009 58.2952C204.237 67.8167 208.579 78.8204 209.548 90.028C209.813 93.0751 209.824 96.1828 208.849 99.1252C207.829 102.291 205.61 104.932 202.667 106.481C199.571 108.068 195.77 108.371 192.123 108.454C190.655 108.573 189.179 108.414 187.77 107.985C185.71 107.22 184.509 105.456 183.534 103.776C179.044 96.0616 176.399 87.6917 174.168 79.3218C172.008 71.1833 170.229 62.7143 172.317 54.5648C172.813 52.6418 174.003 51.8648 175.705 50.5865C178.311 48.6469 185.076 49.7214 187.952 50.7793Z" fill="#072C3F"/>
<path d="M185.445 50.8181C185.809 49.5177 185.054 48.0631 184.344 46.9996C184.052 46.4756 183.658 46.0156 183.184 45.6474C182.711 45.2791 182.169 45.01 181.589 44.8562C180.946 44.7379 180.286 44.7656 179.655 44.9373C179.025 45.109 178.441 45.4202 177.947 45.848C177.445 46.296 177.066 46.865 176.846 47.501C176.588 48.1411 176.532 48.845 176.686 49.5177C176.906 50.1294 177.881 50.2506 178.047 49.5177C178.162 49.0163 178.096 48.5149 178.256 48.0135C178.4 47.5816 178.664 47.1995 179.016 46.9114C179.346 46.6402 179.734 46.4492 180.15 46.3536C180.565 46.258 180.998 46.2603 181.413 46.3604C182.188 46.6253 182.835 47.1721 183.225 47.8922C183.806 48.7814 184.218 49.7693 184.443 50.8071C184.487 50.9018 184.558 50.9818 184.646 51.0379C184.734 51.0939 184.837 51.1237 184.941 51.1237C185.046 51.1237 185.148 51.0939 185.237 51.0379C185.325 50.9818 185.395 50.9018 185.44 50.8071L185.445 50.8181Z" fill="#072C3F"/>
<path d="M161.943 52.3003C161.943 52.3003 153.024 55.6394 151.035 58.9124C142.611 72.7208 141.372 89.389 141.372 89.389C141.421 89.6424 146.881 95.125 151.839 87.0802C155.343 81.3883 158.841 78.1207 158.241 76.8314C157.64 75.542 161.943 52.3003 161.943 52.3003Z" fill="#FFA629"/>
<path d="M128.453 64.2298C128.276 62.0918 127.004 63.1277 126.838 65.6569C125.736 63.7118 124.635 62.3839 124.282 61.3976C123.929 60.4113 122.425 61.0339 123.775 64.9351C123.136 64.0296 122.594 63.0601 122.155 62.0423C121.781 60.9402 120.475 62.2186 121.549 65.5963C121.164 65.0569 120.832 64.4811 120.558 63.8771C120.167 62.9074 119.158 63.9873 119.93 66.6873C119.845 66.5847 119.768 66.476 119.698 66.3622C118.927 65.1499 117.715 67.9601 121.985 72.5556L126.177 76.6055L128.32 70.9246L129.874 68.7205C129.145 67.3167 128.664 65.7974 128.453 64.2298Z" fill="#FFAD79"/>
<path d="M130.998 68.9299C130.295 68.5558 129.503 68.3793 128.708 68.4191C127.912 68.4589 127.143 68.7134 126.48 69.1558C124.216 70.6987 121.88 73.0129 123.885 75.7956C125.891 78.5782 130.998 68.9299 130.998 68.9299Z" fill="#FF8B00"/>
<path d="M124.491 76.3024C126.144 84.8321 133.995 92.9816 141.57 96.6403C146.313 98.9325 150.936 99.4615 153.905 97.2189C161.546 91.3891 176.708 73.9551 176.223 66.7479C175.892 61.8438 174.019 56.7635 172.813 54.0084C172.262 52.7136 171.854 51.9312 171.854 51.9312L169.761 54.3997L159.26 66.7313C151.514 71.4425 150.109 79.7518 147.641 79.6911C145.173 79.6305 138.105 71.977 132.309 69.1282C130.706 68.3458 123.505 70.3735 124.491 76.3024Z" fill="#FFA629"/>
<path d="M153.712 97.3344C150.919 99.5385 147.008 98.9875 143.884 97.8413C137.488 95.3948 132.094 90.6506 128.271 85.0303C126.323 82.2185 124.991 79.0261 124.365 75.6631C125.188 78.9499 126.631 82.0489 128.618 84.7934C132.507 90.2484 137.802 94.9045 144.044 97.4667C147.096 98.6624 150.848 99.3236 153.723 97.3565L153.712 97.3344Z" fill="#FF8B00"/>
<path d="M141.752 75.8837C139.548 74.3739 137.344 72.5776 135.113 71.1009C134.011 70.4066 132.909 69.5415 131.637 69.1668C130.981 69.0971 130.318 69.159 129.687 69.3487C129.027 69.516 128.382 69.7372 127.758 70.0099C128.912 69.201 130.283 68.761 131.692 68.748C132.391 68.8985 133.057 69.1728 133.659 69.5581C136.661 71.2442 139.24 73.5529 141.752 75.8837Z" fill="#FF8B00"/>
<path d="M172.086 42.9551C172.086 42.9551 172.637 47.523 173.738 49.1099C167.375 51.4076 165.094 50.7023 163.673 50.3276C164.031 50.0191 164.257 48.4707 163.723 47.4018C165.728 46.2722 172.086 42.9551 172.086 42.9551Z" fill="#F29F6B"/>
<path d="M158.731 37.3125C158.731 37.3125 158.555 47.9801 165.447 47.9526C169.937 47.0158 171.155 44.6465 172.058 42.9494C173.452 42.8447 174.504 41.93 174.306 39.6102C174.146 37.7809 172.306 36.7615 172.047 38.1941C171.496 38.6129 172.201 34.9431 169.942 33.0366C167.915 31.3285 164.477 33.0918 164.477 33.0918C164.477 33.0918 158.527 33.224 158.731 37.3125Z" fill="#FFAD79"/>
<path d="M172.967 38.1003C172.967 38.1003 171.794 37.913 171.513 39.9738C171.215 40.5744 171.022 38.3208 170.912 37.5493C169.617 39.3236 163.954 38.3373 162.648 36.1608C160.869 38.2161 157.899 36.2379 157.381 34.8604C156.913 33.6096 157.563 29.2456 160.39 29.9013C160.559 29.3597 160.85 28.8644 161.242 28.4539C161.633 28.0433 162.114 27.7286 162.647 27.534C163.18 27.3395 163.751 27.2704 164.315 27.3322C164.878 27.3939 165.421 27.5848 165.899 27.8901C169.204 26.2371 173.138 27.9562 173.551 31.7472C175.204 31.0364 179.336 34.9651 176.631 41.1144C174.835 43.9962 172.086 43.0154 172.086 43.0154C172.086 43.0154 173.424 43.2303 174.108 41.1805C174.273 40.6185 174.62 38.4144 172.967 38.1003Z" fill="black"/>
<path d="M198.756 195.922L204.695 206.154L213.333 202.049L207.576 189.238L198.756 195.922Z" fill="#FFAD79"/>
<path d="M214.754 200.192C214.754 200.192 217.123 205.272 219.465 209.179C211.785 213.482 201.362 219.202 201.362 219.202C201.362 219.202 200.425 215.896 205.218 212.59C201.852 205.305 202.656 206.699 202.656 206.699L214.754 200.192Z" fill="#072C3F"/>
<path d="M206.612 213.444C206.643 213.427 206.671 213.404 206.695 213.378C206.728 213.345 206.754 213.306 206.772 213.263C206.79 213.22 206.799 213.174 206.799 213.127C206.799 213.08 206.79 213.034 206.772 212.991C206.754 212.948 206.728 212.909 206.695 212.876C206.109 212.399 205.373 212.147 204.618 212.165C204.531 212.176 204.451 212.218 204.394 212.284C204.336 212.349 204.304 212.434 204.304 212.521C204.304 212.608 204.336 212.693 204.394 212.758C204.451 212.823 204.531 212.865 204.618 212.876C205.182 212.867 205.733 213.047 206.182 213.389C206.238 213.444 206.31 213.479 206.388 213.489C206.466 213.499 206.544 213.483 206.612 213.444Z" fill="#1DCD77"/>
<path d="M218.977 208.288L201.238 218.399L201.375 218.639L219.113 208.527L218.977 208.288Z" fill="#1DCD77"/>
<path d="M171.166 44.4214C169.849 46.9505 166.863 48.4927 163.987 47.7874C166.857 48.0849 169.513 46.7026 171.166 44.4214Z" fill="#D66751"/>
<path d="M169.557 118.339C169.557 118.339 172.493 146.705 178.923 162.602C185.352 178.499 197.654 204.22 197.654 204.22C197.654 204.22 213.229 199.65 220.391 192.79C214.7 180.051 196.734 156.833 195.632 145.262C194.53 133.69 194.167 107.627 194.167 107.627L169.557 109.953V118.339Z" fill="#86489A"/>
<path d="M200.32 84.1488C200.249 83.8402 197.665 74.6713 197.566 74.3683C195.913 67.7561 193.787 59.9042 189.555 56.3722C183.975 51.6941 174.427 48.0078 174.427 48.0078L171.882 68.1694C173.495 70.4652 174.967 72.8574 176.289 75.3325L200.32 84.1488Z" fill="#FFA629"/>
<path d="M165.64 197.41L166.103 209.234L175.656 209.653L176.565 195.635L165.64 197.41Z" fill="#FFAD79"/>
<path d="M177.782 208.678C177.782 208.678 177.496 214.271 177.738 218.816C168.923 219.026 157.051 219.202 157.051 219.202C157.051 219.202 157.773 215.841 163.535 215.169C163.971 207.157 164.031 208.766 164.031 208.766L177.782 208.678Z" fill="#072C3F"/>
<path d="M164.384 216.574H164.488C164.533 216.559 164.574 216.536 164.609 216.506C164.644 216.476 164.673 216.439 164.694 216.398C164.715 216.356 164.728 216.311 164.731 216.265C164.735 216.218 164.729 216.172 164.714 216.127C164.418 215.432 163.885 214.864 163.21 214.524C163.127 214.494 163.036 214.495 162.954 214.528C162.872 214.561 162.805 214.623 162.766 214.703C162.727 214.782 162.719 214.873 162.743 214.958C162.767 215.043 162.822 215.116 162.896 215.163C163.4 215.418 163.802 215.835 164.037 216.348C164.065 216.416 164.113 216.475 164.175 216.515C164.237 216.555 164.31 216.576 164.384 216.574Z" fill="#1DCD77"/>
<path d="M177.743 217.798L157.336 218.429L157.344 218.705L177.752 218.074L177.743 217.798Z" fill="#1DCD77"/>
<path d="M172.295 46.6801C171.551 47.7325 169.32 49.8539 163.177 50.4325C162.956 50.4345 162.739 50.4908 162.545 50.5964C162.351 50.702 162.185 50.8537 162.063 51.0382C161.942 51.2226 161.867 51.4342 161.846 51.6543C161.825 51.8744 161.858 52.0963 161.943 52.3004C161.964 52.3504 161.998 52.3938 162.042 52.4258C162.085 52.4579 162.137 52.4774 162.191 52.4823C165.045 52.8294 171.584 51.5014 174.416 47.9915C174.524 47.8335 174.59 47.6511 174.61 47.4609C174.629 47.2706 174.6 47.0785 174.526 46.9022C174.453 46.7258 174.336 46.5707 174.186 46.4511C174.037 46.3314 173.861 46.251 173.672 46.2172C173.424 46.1361 173.155 46.1373 172.907 46.2206C172.659 46.304 172.444 46.4651 172.295 46.6801Z" fill="#FFA629"/>
<path d="M176.14 146.364L182.632 206.848H156.346C156.346 206.848 152.319 117.942 156.346 107.616C160.373 97.2905 170.813 111.44 170.813 111.44L176.14 146.364Z" fill="#86489A"/>
<path d="M163.282 51.4849C162.301 52.5869 160.637 52.6695 159.376 53.4134C157.901 54.3342 156.596 55.5031 155.519 56.8683C154.991 57.4527 154.561 58.1189 154.247 58.8409C153.897 59.9778 153.788 61.1751 153.927 62.3564C154.616 78.0657 151.823 87.703 151.723 103.44C151.723 106.305 154.076 112.653 156.549 113.066C158.274 113.358 160.015 113.573 161.75 113.771C168.03 114.548 174.36 114.852 180.685 114.681C184.41 114.543 191.39 114.681 193.869 111.154C198.789 104.217 196.624 87.3228 189.599 73.2719C182.575 59.2211 181.616 59.9044 181.616 59.9044L173.804 47.0713L165.816 51.821L162.334 52.5043" fill="#FFA629"/>
<path d="M155.305 67.4201C154.886 72.0651 154.412 76.6992 153.922 81.3332C153.778 82.6611 153.619 83.9891 153.481 85.3225C153.481 85.3611 153.542 85.3666 153.547 85.3225C154.368 80.7271 154.88 76.071 155.288 71.4259C155.406 70.0925 155.503 68.7554 155.58 67.4146C155.58 67.2328 155.321 67.2383 155.305 67.4146V67.4201Z" fill="#E0E0E0"/>
<path d="M183.325 51.7438C182.192 52.5706 181.253 53.6327 180.57 54.857C179.815 56.0458 179.161 57.2954 178.614 58.5929C177.524 61.1673 176.795 63.8801 176.449 66.6542C175.672 72.5501 176.565 78.4514 178.102 84.1599C178.537 85.8129 179.027 87.4329 179.556 89.0529C180.011 90.6466 180.618 92.1929 181.369 93.6704C181.848 94.541 183.088 93.9238 182.906 93.0257C182.583 91.6858 182.186 90.365 181.716 89.0694C181.27 87.6919 180.845 86.3144 180.46 84.9093C179.658 82.0965 179.042 79.2343 178.614 76.341C177.816 71.0253 178.299 65.5958 180.024 60.5049C180.508 59.1154 181.112 57.7712 181.832 56.488C182.57 55.1821 183.583 53.9919 184.206 52.6309C184.448 52.0799 183.914 51.3691 183.325 51.7493V51.7438Z" fill="#072C3F"/>
<path d="M160.367 51.9255C159.235 52.7545 158.296 53.8183 157.613 55.0442C156.871 56.2418 156.23 57.4988 155.696 58.8021C154.597 61.3667 153.856 64.0698 153.492 66.8359C152.715 72.7317 153.613 78.6385 155.145 84.3415C155.585 85.9909 156.07 87.6219 156.599 89.2345C157.057 90.8289 157.664 92.3767 158.412 93.8575C158.891 94.7226 160.136 94.111 159.949 93.2073C159.628 91.8694 159.232 90.5504 158.764 89.2566C158.312 87.879 157.888 86.5015 157.503 85.0909C156.702 82.2782 156.088 79.4159 155.663 76.5226C154.865 71.2091 155.346 65.7819 157.067 60.6921C157.551 59.3002 158.158 57.9541 158.88 56.6697C159.613 55.3638 160.632 54.1736 161.249 52.8126C161.497 52.2616 160.962 51.5508 160.367 51.931V51.9255Z" fill="#072C3F"/>
<path d="M162.197 52.4986C166.461 52.4986 171.397 51.1431 174.422 48.0078C171.777 51.3745 166.35 52.9339 162.197 52.4986Z" fill="#FF8B00"/>
<g style="mix-blend-mode:screen">
<path d="M170.747 120.466C171.601 135.068 174.113 149.736 179.281 163.445C179.628 164.36 180.024 165.252 180.383 166.161C173.81 152.463 170.846 135.602 170.736 120.46L170.747 120.466Z" fill="#2E3941"/>
</g>
<path d="M153.922 75.4594L175.43 70.2192L182.911 107.743L160.351 113.049L153.922 75.4594Z" fill="#1D49B7"/>
<path d="M149.162 81.2945L169.551 72.6602L182.966 108.493L161.557 117.364L149.162 81.2945Z" fill="#6D84F3"/>
<path d="M162.103 101.098C160.241 100.034 160.373 101.649 162.373 103.236C160.169 103.059 158.423 103.236 157.414 102.944C156.406 102.652 156.065 104.272 160.042 105.357C158.933 105.368 157.826 105.269 156.737 105.06C155.635 104.751 155.932 106.542 159.326 107.567C158.662 107.577 157.998 107.527 157.343 107.418C156.324 107.192 156.649 108.63 159.31 109.523C159.166 109.523 159.029 109.523 158.907 109.523C157.475 109.479 159.106 112.057 165.309 111.132L171.022 109.958L167.546 104.999L166.582 102.459C165.022 102.264 163.507 101.804 162.103 101.098Z" fill="#FFAD79"/>
<path d="M167.012 101.384C166.335 101.805 165.785 102.401 165.421 103.109C165.056 103.818 164.89 104.612 164.94 105.407C165.144 108.162 165.965 111.314 169.392 110.977C172.818 110.641 167.012 101.384 167.012 101.384Z" fill="#FF8B00"/>
<path d="M170.13 110.707C178.339 113.556 189.324 110.834 196.288 106.101C200.651 103.142 203.45 99.3841 202.965 95.7144C202.287 90.3696 200.645 85.0854 198.849 80.0271C197.832 77.1304 196.668 74.2871 195.362 71.5084C194.156 68.9627 193.362 66.2132 190.106 66.2021C187.507 66.2039 184.996 67.1474 183.038 68.858C178.487 72.8639 178.873 78.5999 181.055 83.7354C181.76 85.3884 185.804 90.5018 184.652 92.3808C183.363 94.4856 173.176 96.7558 167.832 100.359C166.362 101.34 164.51 108.581 170.13 110.707Z" fill="#FFA629"/>
<path d="M202.965 95.9458C203.472 99.4668 201.026 102.558 198.48 104.707C193.164 109.021 186.36 111.319 179.573 111.809C176.162 112.086 172.732 111.637 169.507 110.493C172.764 111.429 176.169 111.732 179.54 111.385C186.206 110.752 192.888 108.503 198.216 104.382C200.778 102.338 203.229 99.4227 202.965 95.9458Z" fill="#FF8B00"/>
<path d="M179.264 75.812C179.507 79.2345 180.498 82.5619 182.168 85.5594C182.966 87.0912 183.886 88.5239 184.636 90.0943C184.988 90.7079 185.127 91.4208 185.032 92.122C184.652 93.224 183.324 93.7144 182.41 94.2103C180.829 94.9322 179.209 95.5107 177.606 96.1168C174.416 97.3456 171.155 98.4752 168.24 100.249C166.703 101.087 166.499 103.137 166.323 104.718C166.378 103.065 166.549 100.971 168.097 100.024C172.433 97.1913 177.54 95.8193 182.195 93.7144C182.958 93.4021 183.665 92.9685 184.289 92.4306C184.84 91.9292 184.526 91.0475 184.195 90.2981C183.49 88.7718 182.542 87.3116 181.809 85.7523C180.188 82.695 179.321 79.2944 179.281 75.834L179.264 75.812Z" fill="#FF8B00"/>
<path d="M152.016 98.0671C152.016 97.3343 152.071 96.5904 152.142 95.8631C152.214 95.1358 152.33 94.4029 152.357 93.659C152.357 93.64 152.35 93.6218 152.336 93.6084C152.323 93.595 152.304 93.5874 152.285 93.5874C152.266 93.5874 152.248 93.595 152.235 93.6084C152.221 93.6218 152.214 93.64 152.214 93.659C151.998 94.3624 151.868 95.0897 151.828 95.8245C151.77 96.5743 151.759 97.327 151.795 98.0782C151.795 98.1074 151.807 98.1354 151.827 98.1561C151.848 98.1768 151.876 98.1883 151.905 98.1883C151.935 98.1883 151.963 98.1768 151.983 98.1561C152.004 98.1354 152.016 98.1074 152.016 98.0782V98.0671Z" fill="#FF8B00"/>
<path d="M161.354 52.5428C161.585 53.5126 161.717 54.5099 161.871 55.4907C162.103 57.017 162.318 58.5433 162.549 60.0641C162.979 63.3039 163.578 66.5189 164.345 69.6959C164.62 70.7373 164.896 71.9715 165.574 72.8421C165.662 72.9468 166.009 72.8421 166.08 72.7485C166.909 71.7084 167.566 70.5419 168.025 69.2936C168.736 67.591 169.314 65.8388 169.854 64.081C171.022 60.2901 171.986 56.4385 173.16 52.6475C173.577 51.1155 174.13 49.6236 174.813 48.1898C174.846 48.1237 174.355 48.1512 174.289 48.2835C173.694 49.5254 173.205 50.8157 172.829 52.1406C172.278 53.9148 171.771 55.7056 171.27 57.5019C170.299 61.2984 169.135 65.0428 167.783 68.7205C167.287 70.2026 166.542 71.589 165.579 72.8201L166.086 72.7264C165.554 71.9147 165.18 71.0099 164.984 70.0595C164.576 68.6103 164.279 67.1226 163.998 65.6514C163.397 62.4115 162.946 59.155 162.455 55.8985C162.285 54.7469 162.136 53.5787 161.866 52.4381C161.866 52.3334 161.315 52.4381 161.315 52.5814L161.354 52.5428Z" fill="#6D84F3"/>
<path d="M162.748 71.9108L168.455 71.459L169.061 80.2697L163.084 80.705L162.748 71.9108Z" fill="#FFFCF3"/>
<path d="M163.375 72.7484L167.943 72.3848L168.433 79.4377L163.645 79.7849L163.375 72.7484Z" stroke="#6D84F3" stroke-width="0.25" stroke-miterlimit="10"/>
<path d="M27.6392 181.667L29.6666 205.328C29.6666 206.43 54.5407 206.43 54.5407 205.328L57.1191 181.667H27.6392Z" fill="#86489A"/>
<path d="M16.5819 165.726C16.323 167.137 16.1687 168.636 16.67 169.975C16.8774 169.583 17.1558 169.234 17.4909 168.944C17.8798 168.696 18.3113 168.522 18.7636 168.432C19.3759 168.257 19.979 168.051 20.5706 167.815C20.6808 167.778 20.7834 167.722 20.8736 167.649C20.9802 167.526 21.0389 167.369 21.0389 167.206C21.0389 167.043 20.9802 166.885 20.8736 166.762C20.6499 166.516 20.3702 166.327 20.0582 166.211C19.3237 165.892 18.6019 165.544 17.8931 165.17C17.0667 164.773 16.7802 164.674 16.5819 165.726Z" fill="#008B47"/>
<path d="M67.4047 156.96C68.0268 157.08 68.6156 157.334 69.1309 157.703C69.6462 158.072 70.0759 158.548 70.3907 159.098C70.6606 157.516 70.9416 155.935 71.2061 154.353C71.3159 153.952 71.3063 153.527 71.1785 153.13C70.9574 152.748 70.6166 152.45 70.2089 152.282C69.6764 151.982 69.1001 151.768 68.501 151.648C67.9007 151.572 67.2911 151.625 66.7127 151.802C66.1343 151.98 65.6002 152.279 65.1459 152.678C64.2404 153.487 63.5623 154.518 63.1791 155.67C62.81 156.69 62.9091 158.007 64.2203 157.571C65.3442 157.213 66.1541 156.728 67.4047 156.96Z" fill="#008B47"/>
<path d="M35.7927 149.582C34.4319 145.725 29.683 144.215 27.3305 140.859C25.2095 137.823 25.3692 133.784 24.1958 130.274C23.3198 127.657 21.6946 125.315 21.0335 122.643C24.8238 125.236 28.6564 127.76 32.5312 130.214C33.7981 130.932 34.9527 131.832 35.958 132.886C37.6108 134.842 38.1617 137.553 38.1617 140.132C38.1617 142.71 37.7264 145.273 37.7705 147.846C37.8846 150.237 38.2091 152.614 38.7401 154.948C39.4196 158.409 40.0991 161.871 40.7786 165.335C42.0733 162.2 42.529 158.782 42.1008 155.417C41.7812 152.794 40.9218 150.215 41.065 147.576C41.1867 145.387 41.99 143.291 43.3624 141.581C43.9133 140.87 44.602 140.231 45.1529 139.504C46.5027 137.729 47.1858 135.41 48.9653 134.071C50.1332 133.189 51.6703 132.831 52.6895 131.778C53.4553 130.985 53.8299 129.894 54.5516 129.062C56.0171 127.376 58.6174 127.051 60.0884 125.376C58.7056 127.839 59.5926 130.886 59.4383 133.723C59.3226 135.784 58.6395 137.768 58.2814 139.785C57.7635 142.733 57.8076 146.088 55.7031 148.21C54.0062 149.918 51.1469 150.535 50.2379 152.766C50.0396 153.251 49.9569 153.78 49.7476 154.265C48.9322 156.139 46.5963 156.712 45.0262 158.023C43.1475 159.588 42.4699 162.134 41.8859 164.514C41.5024 165.741 41.3638 167.031 41.4782 168.311C41.5939 169.071 41.8914 169.787 42.0291 170.515C43.005 167.877 44.1402 165.301 45.4284 162.8C46.149 161.265 47.1064 159.851 48.2656 158.613C49.3674 157.511 50.7282 156.723 51.9348 155.742C53.3396 154.601 54.5351 153.213 55.9345 152.067C57.815 150.541 60.0293 149.482 62.3968 148.975C63.0818 148.798 63.7949 148.757 64.4958 148.854C65.1476 149.008 65.7732 149.257 66.3524 149.593C67.9894 150.353 69.506 151.35 70.8535 152.552C68.8866 153.93 67.1799 155.646 65.8125 157.621C64.898 158.949 64.1212 160.376 62.9697 161.533C61.317 163.186 59.0472 163.98 56.8325 164.657C53.7708 165.594 50.6563 166.348 47.5053 166.916C46.7308 167.013 45.9751 167.225 45.2631 167.545C44.5288 167.949 43.909 168.533 43.4616 169.242C42.4258 170.779 42.4864 174.383 42.2165 174.476C45.9242 170.493 50.8825 167.313 56.276 166.619C57.6809 166.432 59.1133 166.421 60.4961 166.101C61.5979 165.847 62.6116 165.401 63.7025 165.175C64.8154 164.949 65.9624 164.947 67.0759 165.171C68.1895 165.394 69.2472 165.838 70.1868 166.476C68.0548 166.602 65.7794 166.773 64.0275 167.963C62.9752 168.674 62.1709 169.694 61.1407 170.437C60.1104 171.181 59.0362 171.573 58.0004 172.179C56.8214 172.873 55.7416 173.832 54.4029 174.096C51.6868 174.691 48.9487 172.443 46.2272 172.994C45.3829 173.219 44.6117 173.66 43.9896 174.273C43.3675 174.887 42.9159 175.652 42.6792 176.493C42.224 178.188 42.3048 179.982 42.9106 181.629C42.4864 181.629 42.0842 181.629 41.66 181.629C42.0292 179.265 40.9383 176.923 39.6271 174.923C39.3158 174.378 38.8935 173.905 38.3876 173.534C37.8185 173.213 37.1786 173.039 36.5254 173.027C33.4127 172.823 30.0411 174.063 27.303 172.564C25.9587 171.831 24.9726 170.52 23.5622 169.919C22.939 169.696 22.3023 169.512 21.656 169.368C19.9836 168.871 18.5071 167.866 17.4304 166.492C17.2127 166.306 17.045 166.068 16.9429 165.801C16.8407 165.533 16.8073 165.244 16.8456 164.96C16.884 164.676 16.9929 164.406 17.1625 164.175C17.332 163.944 17.5567 163.76 17.8161 163.638C19.2443 162.601 20.934 161.985 22.6942 161.858C24.4544 161.731 26.215 162.1 27.7768 162.922C29.1486 163.671 30.3165 164.762 31.6718 165.544C33.0271 166.327 34.4264 166.746 35.5944 167.622C37.9688 169.368 38.9936 172.493 41.2964 174.333L39.6437 167.561C39.5976 167.302 39.5042 167.054 39.3682 166.828C39.0266 166.338 38.3655 166.222 37.8642 165.892C37.4581 165.581 37.103 165.21 36.8119 164.79C34.9274 162.396 32.1845 160.83 29.1651 160.426C28.1734 160.293 27.1157 160.277 26.2727 159.742C25.1709 159.031 24.7247 157.604 23.6944 156.783C22.5099 155.83 20.769 155.863 19.5239 154.987C18.7883 154.384 18.1876 153.633 17.761 152.783L12.2793 143.372C15.2763 144.049 18.3395 144.744 21.0335 146.182C23.2041 147.328 25.1048 148.937 27.2754 150.072C29.6664 151.339 32.4155 152.089 34.3217 154.001C36.2279 155.913 36.9221 158.458 37.3794 161.01C37.6824 162.663 38.0956 164.685 39.6767 165.335C39.1809 163.462 37.0102 151.367 35.7872 149.763C35.699 149.642 35.8257 149.686 35.7927 149.582Z" fill="#01C063"/>
</svg>
