<svg width="23" height="24" viewBox="0 0 23 24" fill="none" xmlns="http://www.w3.org/2000/svg">
<path d="M3.07712 5.50153L2.91679 6.40341C2.90174 6.48892 2.9117 6.57696 2.94548 6.65695C2.97925 6.73695 3.0354 6.80549 3.10719 6.85434C3.18557 6.91225 3.28029 6.94383 3.37775 6.94453C3.44634 6.96545 3.5196 6.96545 3.58819 6.94453L4.39987 6.51364L5.22158 6.94453C5.29399 6.98881 5.37721 7.01224 5.46208 7.01224C5.54695 7.01224 5.63018 6.98881 5.70258 6.94453C5.77099 6.89259 5.82457 6.82361 5.85798 6.74448C5.89139 6.66535 5.90346 6.57884 5.89298 6.49359L5.73265 5.50153L6.384 4.8602C6.44779 4.79981 6.493 4.72245 6.5143 4.63724C6.53561 4.55202 6.53212 4.46249 6.50425 4.37919C6.47945 4.29691 6.43114 4.22368 6.36527 4.16849C6.29939 4.1133 6.21883 4.07856 6.13348 4.06855L5.2316 3.92826L4.82075 3.11657C4.78538 3.03763 4.72756 2.97083 4.65451 2.92451C4.58145 2.87818 4.49639 2.85436 4.4099 2.85603C4.32223 2.85493 4.23607 2.87886 4.16152 2.92501C4.08697 2.97116 4.02713 3.03761 3.98902 3.11657L3.58819 3.92826L2.68631 4.06855C2.60039 4.08026 2.51938 4.11546 2.45219 4.17027C2.385 4.22508 2.33424 4.29738 2.30552 4.37919C2.27848 4.46098 2.27544 4.54881 2.29675 4.63227C2.31806 4.71574 2.36283 4.79135 2.42577 4.85017L3.07712 5.50153ZM4.96104 5.50153L5.04121 5.96249L4.62033 5.74203C4.55119 5.70999 4.47607 5.69292 4.39987 5.69193C4.33014 5.69325 4.26161 5.71038 4.19946 5.74203L3.77858 5.96249L3.85875 5.50153C3.87216 5.42761 3.8673 5.35154 3.84459 5.27994C3.82189 5.20833 3.78203 5.14335 3.72848 5.09067L3.39779 4.77L3.84873 4.69986C3.92291 4.68903 3.99343 4.66065 4.05443 4.61707C4.11543 4.5735 4.16515 4.51599 4.19946 4.44934L4.4099 4.02846L4.62033 4.44934C4.65589 4.51502 4.70596 4.57173 4.76674 4.61514C4.82752 4.65855 4.8974 4.68753 4.97106 4.69986L5.422 4.75999L5.09131 5.09067C5.04576 5.1364 5.01056 5.19139 4.98809 5.25189C4.96561 5.3124 4.95639 5.37703 4.96104 5.44141V5.50153Z" fill="#650084"/>
<path d="M17.1865 7.82637L15.9339 10.6522C15.8964 10.7455 15.8964 10.8496 15.9337 10.9429C15.971 11.0362 16.0429 11.1116 16.1343 11.1533C16.1837 11.1648 16.2351 11.1648 16.2846 11.1533H16.4249C16.4719 11.1392 16.5152 11.1147 16.5516 11.0818C16.588 11.0489 16.6166 11.0083 16.6353 10.9629L17.8879 8.13701C17.9233 8.04338 17.9233 7.94004 17.8879 7.84641C17.849 7.75419 17.7777 7.67936 17.6875 7.63597C17.5958 7.59526 17.4916 7.59243 17.3978 7.62809C17.304 7.66374 17.228 7.735 17.1865 7.82637Z" fill="#650084"/>
<path d="M4.73056 7.68607C4.68462 7.6665 4.6352 7.65642 4.58526 7.65642C4.53532 7.65642 4.4859 7.6665 4.43996 7.68607C4.39714 7.70438 4.35883 7.73179 4.32768 7.7664C4.29653 7.80101 4.27329 7.84199 4.25958 7.88649C4.23974 7.93412 4.22952 7.9852 4.22952 8.0368C4.22952 8.0884 4.23974 8.13949 4.25958 8.18712L5.49215 10.9529C5.50958 10.999 5.53776 11.0404 5.57435 11.0735C5.61095 11.1066 5.6549 11.1305 5.70258 11.1433C5.74877 11.1536 5.79668 11.1536 5.84288 11.1433C5.89253 11.1527 5.94353 11.1527 5.99319 11.1433C6.08519 11.1024 6.15724 11.0267 6.1936 10.9328C6.21375 10.887 6.22416 10.8376 6.22416 10.7875C6.22416 10.7375 6.21375 10.688 6.1936 10.6422L4.97106 7.87647C4.94865 7.82814 4.91522 7.78574 4.87345 7.75267C4.83168 7.71961 4.78274 7.6968 4.73056 7.68607Z" fill="#650084"/>
<path d="M7.8771 10.7424C7.90261 10.8235 7.95325 10.8944 8.0217 10.9449C8.09015 10.9953 8.17287 11.0227 8.2579 11.023H8.34809C8.3965 11.0096 8.44179 10.9868 8.48134 10.9559C8.5209 10.9249 8.55394 10.8864 8.57856 10.8426C8.59813 10.7967 8.60822 10.7473 8.60822 10.6973C8.60822 10.6474 8.59813 10.598 8.57856 10.552L7.52638 6.89443C7.513 6.84601 7.49017 6.80073 7.45921 6.76117C7.42826 6.72162 7.38978 6.68858 7.346 6.66395C7.25145 6.63399 7.14995 6.63399 7.0554 6.66395C6.95947 6.69457 6.87769 6.75856 6.82492 6.84432C6.80535 6.89026 6.79526 6.93969 6.79526 6.98963C6.79526 7.03957 6.80535 7.08898 6.82492 7.13493L7.8771 10.7424Z" fill="#650084"/>
<path d="M16.3046 5.50153L16.1443 6.40341C16.1282 6.48795 16.1366 6.57533 16.1686 6.65523C16.2006 6.73514 16.2547 6.80422 16.3247 6.85434C16.3948 6.90529 16.4772 6.93677 16.5634 6.94557C16.6497 6.95437 16.7367 6.94019 16.8157 6.90445L17.6274 6.47355L18.4491 6.90445C18.5184 6.91934 18.5902 6.91934 18.6595 6.90445C18.7572 6.90519 18.8524 6.87346 18.9301 6.81426C18.9993 6.76301 19.0534 6.69414 19.0869 6.61482C19.1204 6.5355 19.132 6.44865 19.1205 6.36332L18.9602 5.50153L19.6115 4.8602C19.6844 4.80175 19.7378 4.72254 19.7646 4.63306C19.7915 4.54358 19.7905 4.44806 19.7618 4.35915C19.737 4.27688 19.6887 4.20364 19.6228 4.14845C19.557 4.09326 19.4764 4.05852 19.3911 4.04851L18.4892 3.90822L18.0783 3.09653C18.0429 3.01758 17.9851 2.95079 17.9121 2.90446C17.839 2.85813 17.754 2.83432 17.6675 2.83598C17.5798 2.83489 17.4936 2.85882 17.4191 2.90497C17.3445 2.95112 17.2847 3.01757 17.2466 3.09653L16.8458 3.90822L15.9439 4.04851C15.8581 4.05724 15.7769 4.09152 15.7108 4.1469C15.6447 4.20228 15.5967 4.27622 15.5731 4.35915C15.5422 4.43967 15.5363 4.52761 15.5559 4.61157C15.5756 4.69554 15.6199 4.77167 15.6833 4.83013L16.3046 5.50153ZM18.1885 5.50153L18.2687 5.96249L17.8478 5.75205C17.7811 5.71253 17.7049 5.69176 17.6274 5.69193C17.5561 5.69173 17.4864 5.71265 17.427 5.75205L17.0061 5.96249L17.0863 5.50153C17.1006 5.42761 17.0961 5.3513 17.0734 5.27953C17.0506 5.20777 17.0103 5.14284 16.956 5.09067L16.6253 4.77L17.0762 4.69986C17.151 4.6907 17.2222 4.66297 17.2835 4.61922C17.3447 4.57546 17.3941 4.51705 17.427 4.44934L17.6374 4.02846L17.8378 4.44934C17.8737 4.51674 17.9252 4.57462 17.9879 4.61818C18.0507 4.66175 18.1229 4.68974 18.1986 4.69986L18.6495 4.77L18.3188 5.09067C18.2738 5.13678 18.2389 5.19182 18.2165 5.25223C18.1941 5.31264 18.1845 5.37709 18.1885 5.44141V5.50153Z" fill="#650084"/>
<path d="M13.7493 10.9729H13.8495C13.9346 10.9726 14.0173 10.9452 14.0857 10.8948C14.1542 10.8443 14.2048 10.7734 14.2303 10.6923L15.3025 6.94453C15.3304 6.84753 15.3186 6.74343 15.2697 6.65512C15.2209 6.56681 15.139 6.5015 15.042 6.47355C14.9449 6.44563 14.8407 6.4564 14.7514 6.50361C14.6599 6.55217 14.5914 6.63507 14.561 6.7341L13.5289 10.5119C13.4995 10.6024 13.506 10.7007 13.547 10.7865C13.588 10.8723 13.6605 10.939 13.7493 10.9729Z" fill="#650084"/>
<path d="M10.6429 7.7462V10.3015C10.6415 10.3519 10.6504 10.402 10.669 10.4489C10.6877 10.4957 10.7157 10.5382 10.7513 10.5738C10.787 10.6095 10.8295 10.6375 10.8763 10.6561C10.9231 10.6748 10.9733 10.6837 11.0236 10.6823C11.074 10.6837 11.1242 10.6748 11.171 10.6561C11.2178 10.6375 11.2603 10.6095 11.296 10.5738C11.3316 10.5382 11.3596 10.4957 11.3783 10.4489C11.3969 10.402 11.4058 10.3519 11.4044 10.3015V7.7462C11.4058 7.69582 11.3969 7.64568 11.3783 7.59886C11.3596 7.55203 11.3316 7.5095 11.296 7.47387C11.2603 7.43823 11.2178 7.41023 11.171 7.39158C11.1242 7.37293 11.074 7.36403 11.0236 7.36541C10.9227 7.36541 10.8258 7.40553 10.7544 7.47694C10.683 7.54835 10.6429 7.64521 10.6429 7.7462Z" fill="#650084"/>
<path d="M9.0295 4.14872L8.7389 5.85226C8.72481 5.9485 8.73691 6.04675 8.77395 6.13669C8.81098 6.22663 8.87156 6.30492 8.94933 6.36333C9.03571 6.42904 9.14143 6.46427 9.24996 6.46353C9.33696 6.46283 9.42264 6.44227 9.50048 6.40341L11.0236 5.59172L12.5568 6.40341C12.6395 6.45493 12.735 6.48224 12.8324 6.48224C12.9298 6.48224 13.0253 6.45493 13.108 6.40341C13.1875 6.34697 13.2488 6.26855 13.2844 6.17777C13.32 6.08699 13.3283 5.98779 13.3084 5.89235L13.0178 4.18881L14.2604 2.97629C14.3292 2.90852 14.3778 2.82297 14.4008 2.72919C14.4238 2.63541 14.4203 2.53708 14.3906 2.44518C14.361 2.3528 14.3057 2.27076 14.2312 2.20865C14.1567 2.14655 14.066 2.10693 13.9698 2.09445L12.2562 1.84393L11.4946 0.290701C11.4523 0.202154 11.3854 0.127661 11.3019 0.0761277C11.2184 0.0245947 11.1218 -0.00179933 11.0236 9.5287e-05C10.9275 0.00127683 10.8335 0.0290494 10.7522 0.0803403C10.6708 0.131631 10.6052 0.20444 10.5627 0.290701L9.80111 1.84393L8.08754 2.09445C7.98995 2.10631 7.8977 2.14554 7.82145 2.2076C7.7452 2.26966 7.68807 2.35202 7.65665 2.44518C7.62741 2.5395 7.62505 2.6401 7.64984 2.73569C7.67462 2.83128 7.72556 2.91806 7.79694 2.9863L9.0295 4.14872ZM12.4065 3.68776C12.3467 3.74715 12.3018 3.81993 12.2757 3.90009C12.2496 3.98025 12.2429 4.06547 12.2562 4.14872L12.4867 5.50153L11.2742 4.8602C11.1984 4.82068 11.1141 4.80005 11.0287 4.80005C10.9432 4.80005 10.859 4.82068 10.7831 4.8602L9.57063 5.50153L9.80111 4.14872C9.81572 4.06627 9.81062 3.98153 9.78624 3.90142C9.76186 3.82131 9.71888 3.7481 9.66081 3.68776L8.65873 2.68568L10.0115 2.48526C10.0951 2.4715 10.1742 2.43795 10.2422 2.38739C10.3102 2.33684 10.3651 2.27075 10.4024 2.19465L11.0136 0.972118L11.6149 2.20468C11.6533 2.2789 11.7088 2.343 11.7767 2.39176C11.8446 2.44051 11.9231 2.47255 12.0057 2.48526L13.3685 2.68568L12.4065 3.68776Z" fill="#650084"/>
<path d="M4.05917 20.0117L5.36187 20.142C5.45683 20.1421 5.54823 20.1058 5.61721 20.0406C5.6862 19.9753 5.72751 19.8861 5.73265 19.7912C5.76166 19.7068 5.76166 19.6151 5.73265 19.5307C5.6665 19.4545 5.57278 19.4076 5.4721 19.4004L4.18944 19.2802C4.13809 19.2704 4.08518 19.2725 4.03478 19.2864C3.98439 19.3003 3.93787 19.3256 3.89883 19.3604C3.82504 19.4284 3.77871 19.521 3.76856 19.6209C3.76362 19.6713 3.76907 19.7223 3.78458 19.7705C3.80009 19.8188 3.82533 19.8634 3.85875 19.9015C3.91086 19.9602 3.98165 19.9992 4.05917 20.0117Z" fill="#650084"/>
<path d="M20.2128 17.8372V14.6606L21.7059 14.7608C21.7869 14.7681 21.8681 14.7484 21.937 14.705C22.0058 14.6615 22.0584 14.5966 22.0867 14.5203C22.1153 14.4482 22.123 14.3695 22.1088 14.2933C22.0946 14.217 22.0592 14.1463 22.0065 14.0894L20.1025 12.1955C20.0407 12.1333 19.9593 12.0943 19.872 12.0852L12.0057 11.3036L2.49592 12.0752C2.40468 12.0802 2.31873 12.1196 2.25542 12.1854L0.110955 14.3199C0.0572011 14.3762 0.0209983 14.4469 0.00676257 14.5234C-0.00747317 14.5999 0.000873999 14.6789 0.0307879 14.7508C0.06241 14.819 0.113552 14.8764 0.177757 14.9157C0.241963 14.9549 0.316354 14.9742 0.391539 14.9712L2.13516 14.871V22.6973C2.13917 22.792 2.1766 22.8822 2.24081 22.9519C2.30502 23.0216 2.39185 23.0663 2.48589 23.0781L11.9957 24H12.0758L17.7075 23.3386C18.2158 23.6844 18.8164 23.8695 19.4311 23.8697C20.2393 23.8566 21.01 23.527 21.5777 22.9518C22.1455 22.3765 22.4649 21.6016 22.4674 20.7933C22.4776 20.1191 22.2608 19.4611 21.8519 18.9249C21.443 18.3888 20.8657 18.0057 20.2128 17.8372ZM19.3911 23.1081C18.887 23.112 18.3964 22.9461 17.9982 22.6372C17.7075 22.4236 17.4716 22.1443 17.3096 21.8221C17.1476 21.4999 17.0642 21.1439 17.0662 20.7833C17.0689 20.1685 17.315 19.5797 17.7507 19.1459C18.1864 18.7121 18.7762 18.4685 19.3911 18.4685L19.7618 18.5286C20.3052 18.6188 20.7989 18.899 21.1549 19.3193C21.5109 19.7396 21.7062 20.2726 21.7059 20.8234C21.6954 21.4313 21.4472 22.0109 21.0145 22.4379C20.5818 22.865 19.999 23.1056 19.3911 23.1081ZM12.9978 12.1854L19.6516 12.8468L20.7639 13.9291L19.8821 13.8589C18.0382 13.7487 16.1844 13.6184 14.3405 13.4881L12.9978 12.1854ZM16.8458 14.4301L19.4412 14.6005V17.7069C18.6226 17.7069 17.8375 18.0321 17.2587 18.6109C16.6799 19.1897 16.3547 19.9748 16.3547 20.7933C16.3569 21.4667 16.5785 22.1211 16.986 22.6572L12.4065 23.1983V12.6163L13.9197 14.1395C13.986 14.1994 14.0709 14.2348 14.1602 14.2397L16.8458 14.4301ZM2.81658 14.8309L9.63075 14.4101H9.76102L9.87125 14.3299L11.5548 12.6464V23.2284L2.81658 22.3866V14.8309ZM10.9335 12.1554L9.44036 13.6585L1.28339 14.1595L2.61616 12.8268L10.9335 12.1554Z" fill="#650084"/>
<path d="M20.7639 20.4125H19.7618V19.4105C19.7632 19.3601 19.7543 19.3099 19.7356 19.2631C19.717 19.2163 19.689 19.1738 19.6534 19.1381C19.6177 19.1025 19.5752 19.0745 19.5284 19.0558C19.4815 19.0372 19.4314 19.0283 19.381 19.0297C19.3306 19.0283 19.2805 19.0372 19.2337 19.0558C19.1869 19.0745 19.1443 19.1025 19.1087 19.1381C19.0731 19.1738 19.0451 19.2163 19.0264 19.2631C19.0078 19.3099 18.9989 19.3601 19.0002 19.4105V20.4125H17.9982C17.9473 20.4112 17.8967 20.4201 17.8494 20.4386C17.802 20.4571 17.7588 20.485 17.7224 20.5205C17.686 20.556 17.657 20.5984 17.6373 20.6453C17.6175 20.6921 17.6073 20.7425 17.6073 20.7933C17.6073 20.8442 17.6175 20.8945 17.6373 20.9414C17.657 20.9883 17.686 21.0307 17.7224 21.0662C17.7588 21.1017 17.802 21.1295 17.8494 21.1481C17.8967 21.1666 17.9473 21.1755 17.9982 21.1741H19.0002V22.1762C19.0002 22.2772 19.0404 22.3741 19.1118 22.4455C19.1832 22.5169 19.28 22.557 19.381 22.557C19.482 22.557 19.5789 22.5169 19.6503 22.4455C19.7217 22.3741 19.7618 22.2772 19.7618 22.1762V21.1741H20.7639C20.8143 21.1755 20.8644 21.1666 20.9112 21.148C20.9581 21.1293 21.0006 21.1013 21.0362 21.0657C21.0719 21.03 21.0999 20.9875 21.1185 20.9407C21.1372 20.8939 21.1461 20.8437 21.1447 20.7933C21.1461 20.743 21.1372 20.6928 21.1185 20.646C21.0999 20.5992 21.0719 20.5566 21.0362 20.521C21.0006 20.4854 20.9581 20.4574 20.9112 20.4387C20.8644 20.4201 20.8143 20.4112 20.7639 20.4125Z" fill="#650084"/>
<path d="M6.865 21.104L4.12931 20.8434C4.03332 20.8431 3.94075 20.8791 3.87014 20.9441C3.79954 21.0092 3.7561 21.0985 3.74852 21.1942C3.73904 21.2945 3.76766 21.3946 3.82869 21.4748C3.89484 21.551 3.98855 21.5978 4.08923 21.605L6.83494 21.8756C6.92919 21.8734 7.01928 21.8363 7.08778 21.7715C7.15627 21.7067 7.19829 21.6188 7.20571 21.5249C7.2127 21.4746 7.20929 21.4234 7.19569 21.3745C7.18209 21.3256 7.15859 21.28 7.12665 21.2405C7.09471 21.2011 7.055 21.1686 7.00999 21.1451C6.96499 21.1216 6.91564 21.1076 6.865 21.104Z" fill="#650084"/>
</svg>
