<svg width="22" height="25" viewBox="0 0 22 25" fill="none" xmlns="http://www.w3.org/2000/svg">
<path d="M10.8226 0.050293C13.0615 0.0551076 15.2091 0.94095 16.8002 2.51611C18.3911 4.09125 19.2982 6.22967 19.3256 8.46826V14.8413C19.327 15.3123 19.472 15.7718 19.7406 16.1587L21.2806 18.3755L21.3578 18.4722C21.5255 18.7042 21.6128 18.9865 21.6039 19.2749L21.598 19.3999C21.5862 19.5244 21.5561 19.6472 21.5082 19.7632C21.4443 19.9177 21.3493 20.0573 21.2308 20.1753C20.9928 20.4166 20.6694 20.5548 20.3304 20.5581H14.7982L14.722 20.9692H14.7211C14.5655 21.7342 14.188 22.4366 13.6351 22.9878C13.1514 23.47 12.5527 23.8184 11.8978 24.0005L11.6136 24.0679C11.1026 24.174 10.5752 24.1775 10.0629 24.0776C9.55084 23.9778 9.06382 23.7769 8.63025 23.4868C8.19381 23.2016 7.8182 22.8322 7.52673 22.3999C7.23541 21.9678 7.03379 21.4815 6.93298 20.9702L6.84802 20.5581H1.32458C1.00674 20.5553 0.700476 20.4366 0.463257 20.2251H0.46228C0.33879 20.1126 0.23899 19.9761 0.168335 19.8247C0.0977476 19.6734 0.0580707 19.5091 0.0511475 19.3423C0.0443653 19.1628 0.073315 18.9838 0.137085 18.8159C0.200162 18.6499 0.295124 18.4974 0.417358 18.3687L1.95154 16.1685C2.22023 15.7815 2.36523 15.3212 2.36658 14.8501V8.51514C2.38144 6.27637 3.27662 4.13332 4.85876 2.54932C6.44091 0.965402 8.58299 0.0677763 10.8217 0.050293H10.8226ZM7.80994 21.2163C8.03022 21.8393 8.43855 22.3786 8.97791 22.7603C9.5173 23.142 10.1618 23.3476 10.8226 23.3481C11.484 23.3454 12.1289 23.1386 12.6693 22.7573C13.2097 22.376 13.6199 21.8375 13.8441 21.2153L14.0844 20.5298H7.57068L7.80994 21.2163ZM10.7758 0.770996C8.73614 0.773474 6.78066 1.58579 5.33923 3.02881C3.89781 4.47198 3.08829 6.42855 3.08826 8.46826V14.7759C3.07917 15.4009 2.88611 16.0097 2.53357 16.5259L2.53259 16.5269L0.932983 18.8228L0.926147 18.8335L0.924194 18.8315L0.856812 18.8921V19.7612H20.7377L20.6849 19.0435L20.684 19.0396H20.6849V18.8862L19.0277 16.5552C18.6655 16.043 18.471 15.4305 18.472 14.8032V8.46826C18.4695 6.42774 17.6581 4.4717 16.2152 3.02881C14.7723 1.58595 12.8163 0.773571 10.7758 0.770996Z" fill="#650084" stroke="#650084" stroke-width="0.1"/>
</svg>
