<svg width="23" height="22" viewBox="0 0 23 22" fill="none" xmlns="http://www.w3.org/2000/svg">
<path d="M18.4408 2.2336C18.3316 2.23598 18.2277 2.28103 18.1513 2.3591C18.0749 2.43717 18.0322 2.54205 18.0322 2.65127V3.55923H17.1242C17.015 3.56161 16.9111 3.60666 16.8347 3.68473C16.7584 3.7628 16.7156 3.86768 16.7156 3.97689C16.7156 4.08611 16.7584 4.19099 16.8347 4.26906C16.9111 4.34714 17.015 4.39219 17.1242 4.39456H18.0322V5.30253C18.0322 5.41174 18.0749 5.51662 18.1513 5.59469C18.2277 5.67276 18.3316 5.71781 18.4408 5.72019C18.5515 5.72019 18.6578 5.67619 18.7361 5.59786C18.8144 5.51953 18.8584 5.4133 18.8584 5.30253V4.39456H19.7664C19.8756 4.39219 19.9795 4.34714 20.0559 4.26906C20.1323 4.19099 20.175 4.08611 20.175 3.97689C20.175 3.86768 20.1323 3.7628 20.0559 3.68473C19.9795 3.60666 19.8756 3.56161 19.7664 3.55923H18.8584V2.65127C18.8584 2.5405 18.8144 2.43426 18.7361 2.35593C18.6578 2.27761 18.5515 2.2336 18.4408 2.2336Z" fill="#8521A4"/>
<path d="M8.62567 11.4131C8.69717 11.4146 8.76774 11.3968 8.83003 11.3617C8.89232 11.3265 8.94403 11.2753 8.97978 11.2134L9.49732 10.369L10.1874 11.4767C10.247 11.5687 10.3403 11.6336 10.4473 11.6574C10.5544 11.6812 10.6664 11.6619 10.7594 11.6038C10.8205 11.57 10.8708 11.5196 10.9047 11.4585L12.0669 9.42468L13.6649 12.3393C13.7017 12.403 13.7546 12.4558 13.8184 12.4925C13.8822 12.5292 13.9545 12.5483 14.0281 12.5481C14.1006 12.5484 14.172 12.5302 14.2355 12.4953C14.2991 12.4603 14.3527 12.4097 14.3912 12.3483L15.4082 10.6414H17.8688C17.9795 10.6414 18.0858 10.5974 18.1641 10.519C18.2424 10.4407 18.2864 10.3345 18.2864 10.2237C18.2752 10.121 18.2263 10.0261 18.1491 9.95729C18.072 9.88854 17.9721 9.85082 17.8688 9.85143H15.1449C15.0717 9.85293 15 9.87285 14.9365 9.90934C14.8731 9.94584 14.8198 9.99775 14.7817 10.0603L14.019 11.3496L12.4119 8.41684C12.3751 8.35313 12.3221 8.30027 12.2584 8.2636C12.1946 8.22693 12.1223 8.20775 12.0487 8.20801C11.9749 8.2068 11.9022 8.22557 11.8383 8.26234C11.7744 8.29911 11.7216 8.35249 11.6855 8.41684L10.5142 10.4507L9.82418 9.36113C9.78844 9.29919 9.73673 9.24798 9.67444 9.21284C9.61215 9.1777 9.54157 9.15993 9.47008 9.16138C9.40029 9.16243 9.33195 9.18135 9.27155 9.21631C9.21115 9.25128 9.16071 9.30114 9.12505 9.36113L8.38052 10.5869H6.56459C6.45455 10.5892 6.34965 10.6339 6.27182 10.7118C6.19399 10.7896 6.14924 10.8945 6.14692 11.0045C6.1493 11.1137 6.19435 11.2177 6.27242 11.294C6.35049 11.3704 6.45537 11.4132 6.56459 11.4131H8.62567Z" fill="#8521A4"/>
<path d="M19.6574 13.4833C20.4366 12.6263 20.9621 11.5696 21.1753 10.4312C21.3886 9.29286 21.2812 8.1176 20.865 7.03674C21.3386 6.66975 21.7216 6.19893 21.9845 5.66055C22.2474 5.12218 22.3832 4.53063 22.3813 3.9315C22.3789 2.88797 21.9627 1.888 21.224 1.15096C20.4852 0.413924 19.4843 6.98994e-06 18.4408 9.76005e-06C17.5504 -0.00197568 16.6859 0.29901 15.9893 0.853496C15.9455 0.887187 15.9091 0.929596 15.8826 0.978044C15.856 1.02649 15.8398 1.07993 15.8349 1.13497C15.8237 1.24577 15.8563 1.35656 15.9257 1.44367C15.9963 1.52623 16.0957 1.57876 16.2037 1.59057C16.3116 1.60238 16.42 1.57258 16.5068 1.50723C17.054 1.06458 17.737 0.82408 18.4408 0.826258C19.2643 0.826258 20.0542 1.15342 20.6365 1.73576C21.2189 2.31811 21.546 3.10794 21.546 3.9315C21.546 4.33928 21.4657 4.74307 21.3096 5.11982C21.1536 5.49657 20.9249 5.83888 20.6365 6.12723C20.3482 6.41558 20.0058 6.64431 19.6291 6.80036C19.2523 6.95642 18.8486 7.03674 18.4408 7.03674C17.6823 7.03804 16.9496 6.76173 16.3809 6.25993C15.8122 5.75813 15.4468 5.06554 15.3537 4.31284C15.3537 4.20389 15.3537 4.09493 15.3537 3.97689C15.3435 3.49576 15.4494 3.01926 15.6624 2.58771C15.7024 2.48555 15.7024 2.37208 15.6624 2.26992C15.6275 2.16407 15.5525 2.07608 15.4536 2.02477C15.3516 1.98386 15.2378 1.98386 15.1358 2.02477C15.0299 2.05969 14.9419 2.13465 14.8906 2.2336C14.6192 2.77772 14.4793 3.37793 14.482 3.98598V4.08585C13.6817 4.38462 12.9499 4.84165 12.3302 5.42964L12.0396 5.72019L11.7491 5.42964C10.6729 4.34509 9.21799 3.72017 7.69046 3.68635H7.58151C6.98378 3.69146 6.39343 3.81898 5.84687 4.06103C5.30032 4.30307 4.80914 4.65452 4.40363 5.09369C4.3276 5.17312 4.28516 5.27883 4.28516 5.38878C4.28516 5.49873 4.3276 5.60444 4.40363 5.68387C4.48194 5.76205 4.58807 5.80595 4.69872 5.80595C4.80937 5.80595 4.9155 5.76205 4.99381 5.68387C5.32665 5.32974 5.72718 5.04602 6.17167 4.84951C6.61617 4.65299 7.09558 4.54769 7.58151 4.53983H7.67231C8.98307 4.56857 10.2295 5.11348 11.1407 6.05613L11.4948 6.40116C11.8762 6.77343 12.1577 6.78251 12.539 6.40116L12.9022 6.05613C13.3961 5.56245 13.9823 5.17066 14.6273 4.90302C14.8396 5.75445 15.33 6.51067 16.0208 7.0518C16.7116 7.59292 17.5633 7.88799 18.4408 7.89022C19.0282 7.89246 19.6086 7.76211 20.1387 7.50888C20.4694 8.4302 20.5428 9.42427 20.3508 10.3842C20.1588 11.344 19.7088 12.2334 19.0491 12.9567L14.4185 17.6962L13.8102 17.8234C13.4343 17.915 13.042 17.915 12.6661 17.8234L9.94222 17.324C9.89723 17.3143 9.85463 17.2958 9.81691 17.2695C9.7792 17.2431 9.74713 17.2095 9.7226 17.1706C9.69806 17.1317 9.68156 17.0883 9.67406 17.0429C9.66655 16.9975 9.66821 16.9511 9.67891 16.9063C9.69227 16.8257 9.73704 16.7537 9.80342 16.706C9.8698 16.6584 9.95236 16.639 10.033 16.6521L10.4325 16.7066C10.9591 16.7701 11.5493 16.8518 12.085 16.9063C12.4902 16.9985 12.9153 16.931 13.272 16.718C13.6288 16.5049 13.8898 16.1627 14.0008 15.7623C14.0553 15.3301 13.9442 14.8933 13.6898 14.5396C13.4355 14.1859 13.0568 13.9416 12.6298 13.8556H12.5753L10.7594 13.5287C9.79255 13.3925 8.80836 13.448 7.86298 13.6921L6.84606 13.8737L6.03797 14.0008L5.00289 12.9385C4.25721 12.1231 3.77711 11.1002 3.6263 10.0056C3.47548 8.91101 3.66109 7.79642 4.15848 6.80975C4.18471 6.76183 4.20083 6.70904 4.20584 6.65464C4.21086 6.60024 4.20467 6.54539 4.18765 6.49348C4.17063 6.44158 4.14315 6.39371 4.10689 6.35284C4.07064 6.31198 4.0264 6.27898 3.97689 6.25589C3.92688 6.23361 3.87274 6.22209 3.81799 6.22209C3.76325 6.22209 3.70911 6.23361 3.6591 6.25589C3.60845 6.27183 3.56149 6.2977 3.52096 6.33199C3.48042 6.36629 3.44713 6.40833 3.42303 6.45564C2.84099 7.58803 2.61618 8.87035 2.77829 10.1332C2.94041 11.3961 3.48181 12.58 4.33099 13.5287L4.96657 14.1915L3.82253 14.3731C3.79882 14.2393 3.72823 14.1183 3.62342 14.0317C3.5186 13.9452 3.38641 13.8989 3.25052 13.901H0.581097C0.507161 13.8985 0.433476 13.9107 0.364247 13.9368C0.295019 13.9628 0.23161 14.0023 0.177642 14.0529C0.123674 14.1035 0.080204 14.1642 0.0497236 14.2316C0.0192432 14.299 0.00234659 14.3718 0 14.4457V20.1478C0.00234659 20.2217 0.0192432 20.2944 0.0497236 20.3618C0.080204 20.4292 0.123674 20.49 0.177642 20.5406C0.23161 20.5912 0.295019 20.6306 0.364247 20.6567C0.433476 20.6828 0.507161 20.695 0.581097 20.6925H3.25052C3.38556 20.6968 3.51766 20.6524 3.62267 20.5674C3.72769 20.4824 3.79863 20.3625 3.82253 20.2295L9.27033 21.7185C9.78229 21.8937 10.3183 21.9887 10.8593 22C11.5997 21.9618 12.3292 21.8055 13.0202 21.5369L18.6859 19.7392C18.9811 19.652 19.2492 19.4914 19.4652 19.2722C19.6812 19.053 19.838 18.7825 19.9208 18.4862C19.9696 18.2713 19.9608 18.0474 19.8955 17.837C19.8301 17.6265 19.7104 17.4371 19.5485 17.2877C19.2547 17.0707 18.9064 16.9397 18.5424 16.9092C18.1784 16.8787 17.8132 16.9501 17.4874 17.1151L15.8531 17.4329L19.6484 13.4833H19.6574ZM18.9583 17.8778C19.012 17.9315 19.0503 17.9985 19.0695 18.0719C19.0886 18.1453 19.0879 18.2225 19.0673 18.2955C19.0225 18.4519 18.9365 18.5934 18.8183 18.7053C18.7001 18.8171 18.554 18.8951 18.3954 18.9311L12.8659 20.7016C11.8422 21.1773 10.6744 21.2391 9.60627 20.8741L3.89517 19.3215V15.1721L6.96409 14.6636L8.00825 14.482C8.85493 14.2589 9.73706 14.2034 10.605 14.3186L12.3574 14.6364C12.993 14.8452 13.2109 15.272 13.1473 15.5444C13.0838 15.8168 12.6752 16.0891 12.1304 16.0347L10.5142 15.8803L10.0875 15.8258C9.79999 15.7879 9.50881 15.8605 9.27283 16.0291C9.03685 16.1977 8.87369 16.4495 8.81634 16.7338C8.79832 16.8481 8.79832 16.9645 8.81634 17.0788C8.83245 17.3293 8.92983 17.5676 9.0937 17.7577C9.25756 17.9478 9.47897 18.0792 9.72431 18.1321H9.92406L12.5844 18.6133C12.9654 18.6849 13.3565 18.6849 13.7375 18.6133L14.0916 18.5407L14.8543 18.3863L17.7689 17.8143C17.9606 17.7381 18.167 17.7059 18.3729 17.7201C18.5787 17.7342 18.7788 17.7943 18.9583 17.896V17.8778ZM3.05984 14.6818V19.839H0.889809V14.7L3.05984 14.6818Z" fill="#8521A4"/>
</svg>
