<svg width="22" height="25" viewBox="0 0 22 25" fill="none" xmlns="http://www.w3.org/2000/svg">
<path d="M17.9822 2.51263C17.6763 2.48261 17.3681 2.48261 17.0622 2.51263H16.6822C16.5552 2.51263 16.4522 2.40965 16.4522 2.28263C16.4498 1.98043 16.3876 1.6817 16.2691 1.40366C16.1507 1.12562 15.9784 0.873769 15.7622 0.662628C15.3299 0.245742 14.7528 0.0127414 14.1522 0.0126288H7.63221C7.32935 -0.0191705 7.02319 0.00922756 6.73135 0.0961879C6.43951 0.183148 6.16774 0.326954 5.93167 0.519335C5.69561 0.711716 5.49992 0.948873 5.35585 1.21716C5.21178 1.48545 5.12219 1.77958 5.09221 2.08263C5.09221 2.14263 5.09221 2.21263 5.09221 2.27263C5.09221 2.4107 4.98028 2.52263 4.84221 2.52263H4.50221C4.3457 2.5127 4.18872 2.5127 4.03221 2.52263C3.04797 2.51581 2.09577 2.87213 1.35778 3.5234C0.619794 4.17467 0.14784 5.07518 0.0322128 6.05263C-0.00780622 6.35799 -0.00780622 6.66727 0.0322128 6.97263V19.5426C-0.0355634 20.0734 0.0038587 20.6125 0.148144 21.1278C0.29243 21.6431 0.538646 22.1242 0.872213 22.5426C1.19437 22.9552 1.59553 23.2995 2.05225 23.5554C2.50896 23.8112 3.01208 23.9734 3.53221 24.0326C3.83757 24.0726 4.14685 24.0726 4.45221 24.0326H17.0322C17.5543 24.0954 18.0836 24.0547 18.5899 23.9128C19.0963 23.7708 19.5696 23.5304 19.9829 23.2053C20.3962 22.8802 20.7414 22.4769 20.9987 22.0182C21.2559 21.5596 21.4202 21.0548 21.4822 20.5326C21.5222 20.2273 21.5222 19.918 21.4822 19.6126V6.97263C21.5464 6.44978 21.5068 5.9194 21.3655 5.41193C21.2242 4.90446 20.984 4.42989 20.6588 4.01549C20.3336 3.60108 19.9297 3.25499 19.4704 2.99709C19.0111 2.73918 18.5053 2.57455 17.9822 2.51263ZM6.44221 2.58263C6.44221 1.70263 6.75221 1.39263 7.63221 1.39263H13.9022C14.7822 1.39263 15.0922 1.70263 15.0922 2.58263V3.83263C15.0922 4.71263 14.7822 5.02263 13.9022 5.02263H7.63221C6.75221 5.02263 6.44221 4.71263 6.44221 3.83263V2.58263ZM20.1022 19.5126C20.1022 21.6326 19.1622 22.5826 17.0322 22.5826H4.49221C2.37221 22.5826 1.42221 21.5826 1.42221 19.5126V6.97263C1.42221 4.84263 2.37221 3.90263 4.49221 3.90263H4.84221C4.97476 3.90263 5.08221 4.01008 5.08221 4.14263C5.08649 4.44545 5.15053 4.74444 5.27066 5.02244C5.39078 5.30044 5.56463 5.55198 5.78221 5.76263C6.21728 6.18893 6.80311 6.42614 7.41221 6.42263H13.9022C14.2045 6.45439 14.5101 6.42591 14.8014 6.33883C15.0926 6.25175 15.3637 6.10781 15.599 5.91532C15.8342 5.72283 16.029 5.48562 16.172 5.21739C16.315 4.94916 16.4035 4.65524 16.4322 4.35263C16.4375 4.2894 16.4375 4.22585 16.4322 4.16263C16.4322 4.03008 16.5397 3.92263 16.6722 3.92263H17.0122C19.1422 3.92263 20.0822 4.86263 20.0822 6.99263L20.1022 19.5126Z" fill="#650084"/>
<path d="M14.3822 11.0826C14.3185 11.0169 14.2424 10.9644 14.1583 10.9284C14.0742 10.8923 13.9837 10.8734 13.8922 10.8726C13.7082 10.8784 13.5332 10.9534 13.4022 11.0826L9.72221 14.7626L8.11221 13.1626C8.04957 13.099 7.97484 13.0485 7.89241 13.0142C7.80998 12.9798 7.72151 12.9623 7.63221 12.9626C7.54069 12.9634 7.45024 12.9823 7.36611 13.0184C7.28199 13.0544 7.20588 13.1069 7.14221 13.1726C7.07313 13.2363 7.01798 13.3136 6.98027 13.3997C6.94255 13.4857 6.92308 13.5787 6.92308 13.6726C6.92308 13.7666 6.94255 13.8595 6.98027 13.9456C7.01798 14.0316 7.07313 14.1089 7.14221 14.1726L9.27221 16.2826C9.40323 16.4119 9.57825 16.4869 9.76221 16.4926C9.85373 16.4919 9.94419 16.4729 10.0283 16.4369C10.1124 16.4008 10.1885 16.3484 10.2522 16.2826L14.4222 12.1026C14.4872 12.0405 14.5393 11.9661 14.5753 11.8837C14.6113 11.8013 14.6307 11.7125 14.6322 11.6226C14.6338 11.5308 14.616 11.4396 14.5798 11.3551C14.552 11.2903 14.5139 11.2306 14.4671 11.1782C14.4388 11.1464 14.4088 11.1159 14.3822 11.0826Z" fill="#650084"/>
</svg>
